<svg id="Layer_1" data-name="Layer 1" xmlns="http://www.w3.org/2000/svg" xmlns:xlink="http://www.w3.org/1999/xlink" viewBox="0 0 50 50"><defs><style>.cls-1{fill:url(#linear-gradient);}</style><linearGradient id="linear-gradient" x1="4.19" y1="35.8" x2="46.74" y2="13.72" gradientUnits="userSpaceOnUse"><stop offset="0.22" stop-color="#b56809"/><stop offset="0.55" stop-color="#f8de6e"/><stop offset="1" stop-color="#efa313"/></linearGradient></defs><circle cx="25" cy="25" r="24"/><circle cx="25" cy="25" r="25"/><path id="PoB-Gold" class="cls-1" d="M29.56,12.26c.32-.62,1.88-1.61,2.48-.15C32.14,12.41,30.62,12.56,29.56,12.26Zm3.93-4.93a1.26,1.26,0,0,1,.69,1.43,4,4,0,0,1-.28,1.29.07.07,0,0,0,0,.1h0A.06.06,0,0,0,34,10.1a4.38,4.38,0,0,0,.3-1.32,1.41,1.41,0,0,0-.8-1.59.07.07,0,0,0-.09,0A.06.06,0,0,0,33.49,7.33ZM36,13.15a.67.67,0,0,0,.1.53.45.45,0,0,0,.31.16h.15a.63.63,0,0,0,.66-.4.43.43,0,0,0-.13-.52c-.07,0-.25-.12-.52.14a.09.09,0,0,0,0,.11.08.08,0,0,0,.11,0c.14-.13.26-.18.34-.12a.28.28,0,0,1,.07.34c-.08.22-.33.33-.66.29a.27.27,0,0,1-.2-.11.54.54,0,0,1-.07-.41c0-.33.29-.52.58-.74a1.84,1.84,0,0,0,.83-1.22.08.08,0,0,0-.15,0,1.71,1.71,0,0,1-.78,1.13A1.36,1.36,0,0,0,36,13.15ZM32.5,33.63a.45.45,0,0,0-.5.45c1.18.53-.15,2.22-.86,4.34s-.54,2.36-.53,2.13C30.67,39.61,34.41,34.07,32.5,33.63Zm-11.31-1.8a.05.05,0,0,0,0,0,.08.08,0,0,0,.06,0,.08.08,0,0,0,0-.1c-.88-.59-.44-2.53-.44-2.55a.08.08,0,0,0-.06-.09.07.07,0,0,0-.09.05C20.66,29.21,20.22,31.19,21.19,31.83Zm1.28.36a.06.06,0,0,0,.05,0l.06,0a.08.08,0,0,0,0-.11c-1-.8-.49-2.71-.49-2.73a.08.08,0,0,0-.15,0C21.91,29.4,21.44,31.33,22.47,32.19Zm1.39.26h0a.08.08,0,0,0,.07,0,.09.09,0,0,0,0-.11c-1.2-.63-.85-2.62-.85-2.64a.08.08,0,1,0-.15,0C22.92,29.73,22.56,31.77,23.86,32.45ZM10.44,30.87a.08.08,0,0,0-.06-.09.09.09,0,0,0-.09.07c-.31,2.27.9,3.76,1.88,5s1.73,2.13.85,3.39a.07.07,0,0,0,0,.11h0a.07.07,0,0,0,.06,0c.95-1.35.11-2.38-.86-3.58S10.14,33.07,10.44,30.87ZM49,25v0A24,24,0,0,1,1,25H1A24,24,0,0,1,18,2.07c.66-.2,1.33-.37,2-.52l.45-.09A24,24,0,0,1,25,1h0A24,24,0,0,1,49,25ZM1.25,26l3.31-.11c0-.3,0-.59,0-.89,0-.13,0-.27,0-.4l-3.31-.12V25C1.23,25.36,1.23,25.68,1.25,26Zm43.13.91a.08.08,0,0,1,.1,0,.67.67,0,0,1,.1.19c.1.17.22.25.33.23s.27-.2.32-.55a1.5,1.5,0,0,0,0-.2c0-.1,0-.18,0-.26s0-.46,0-.7-.14-.18-.44-.26c-1-.24-1.35.31-1.74.94a3.49,3.49,0,0,1-.62.81h0a2.11,2.11,0,0,1-.31.21,21.12,21.12,0,0,1-3.07.11,1.28,1.28,0,0,1-.82-.07c-.41,1-.86,1.95-1.33,3a4.54,4.54,0,0,1-.21.45,2.24,2.24,0,0,1-.45.76v0a4.44,4.44,0,0,1-.43.44,42.94,42.94,0,0,0,5.82-2c.93-.36,1.66-.65,2-.72a.85.85,0,0,0,.71-.58,2.44,2.44,0,0,0,.09-1.56L44.35,27A.09.09,0,0,1,44.38,26.9Zm-8.83,5.16a2.79,2.79,0,0,0,.51-.46h0a1.23,1.23,0,0,1-.87-.32l-.05,0a.58.58,0,0,0-.72,0,.42.42,0,0,0-.08.56.08.08,0,0,1,0,0,2.85,2.85,0,0,1,.22.24A2.2,2.2,0,0,0,35.55,32.06Zm-4,7.67c.24-.6.58-1.33.95-2.09.9-1.92,1.92-4.08,2-5.49a2.52,2.52,0,0,0-1.57-.91h0a2.72,2.72,0,0,0-1.67.41C29.05,33,29,35.07,28.92,37.44a21.5,21.5,0,0,1-.31,3.48c-.33,1.83-.29,1.86.09,2.19l.17.15a3.47,3.47,0,0,0,3.74.54c.52-.25.88-.62.88-.9a.27.27,0,0,0-.18-.25A.82.82,0,0,1,33,42c0-.2-.07-.38-.21-.46s-.47,0-1,.15h0a1.09,1.09,0,0,1-.33.11c-.33.05-.43-.13-.45-.24A4,4,0,0,1,31.52,39.73Zm-1.75-7c.09-.12.18-.24.28-.35a.85.85,0,0,1-.26.05.81.81,0,0,1-.37-.09,1.11,1.11,0,0,1-.53-.86,3.16,3.16,0,0,1-1.35.66v0a.57.57,0,0,0,.38.8,2.49,2.49,0,0,0,1.79-.18A.07.07,0,0,1,29.77,32.76ZM8.24,15.29h0c.07.06.1.18.15.47A2.6,2.6,0,0,0,9.82,18a2.9,2.9,0,0,0,1.79.15,2.21,2.21,0,0,1,1.42.08,3.15,3.15,0,0,1,.51.28A.63.63,0,0,1,13.3,18a.48.48,0,0,1,.22-.33A1,1,0,0,1,13,17a.9.9,0,0,1,.28-.88.6.6,0,0,1,.21-.13,1.77,1.77,0,0,1-.87-1c-.06-.38.16-.76.66-1.12a1.29,1.29,0,0,1-.25-1,1.56,1.56,0,0,1,.78-1,1.71,1.71,0,0,1-.14-.77,1.51,1.51,0,0,1,1.08-1.22,2.46,2.46,0,0,1,.47-2,1.54,1.54,0,0,1,1.22-.43h0a1.72,1.72,0,0,1,1.87-.67h0a1.83,1.83,0,0,1,.5-.53c.36-.24,1-.38,1.76.29a1.83,1.83,0,0,1,1.09-.4h0c.56,0,.77.54.82.91a1.5,1.5,0,0,1,.23-.15A1.08,1.08,0,0,1,24,7c.47.49.38,1.43-.23,2.5a5.37,5.37,0,0,0-1.14,4.57c.93,3.75,6.35,6.39,8.39,7.38l.2.1c1.26-1.28,1.5-2.55,1.08-3.15s-1.4-.58-2.66,0c-1.06.52-2.21-.91-2.25-1a.08.08,0,0,1,0-.11.21.21,0,0,1,.12,0,3.9,3.9,0,0,1,.67-.05c.68,0,1.59-1,2.21-1.1a.76.76,0,0,0-.19-.62c-.34-.29-1.07-.16-1.78,0a5.32,5.32,0,0,1-1.29.14h0a.88.88,0,0,1-.8-.62,2.16,2.16,0,0,1-.17-.82h0c0-.12-.15-.27-.28-.4a.9.9,0,0,1-.33-.5c-.17-.65.63-1,1.12-1.16l0,0A.62.62,0,0,1,27,12h0c.07,0,1.77-.59,2.54-.75A2.56,2.56,0,0,1,31.75,9.7c.84-.18,1.52-.33,1.52-1.39v0c0-.31,0-.82-.94-1.57-.08-.07-.07-.14,0-.17s.43-.18.75-.14A20.28,20.28,0,0,0,6.56,16.61a.37.37,0,0,1,.18,0c.07,0,.1,0,.12,0A1.76,1.76,0,0,0,7.23,16C7.44,15.59,7.68,15.07,8.24,15.29Zm36.69,9.78a1.52,1.52,0,0,0-1.61.28,3,3,0,0,0-.75,1.49,4.39,4.39,0,0,0,.42-.61c.39-.63.79-1.28,1.9-1l.08,0A.13.13,0,0,0,44.93,25.07Zm.19.22a.48.48,0,0,1,.19.09V25A20.25,20.25,0,0,0,37,8.64a3,3,0,0,1,.7,1.32,5.05,5.05,0,0,1,.3,3c2.39,2.43,4,10.09,1.45,14.35l-.05,0a18.75,18.75,0,0,0,2.75-.1,1.56,1.56,0,0,0,.25-.17,3.35,3.35,0,0,1,.85-1.79A1.65,1.65,0,0,1,45,25,.27.27,0,0,1,45.12,25.29ZM36.6,30.76h-.05a1.66,1.66,0,0,1-1-.26l0,0c-.31.11-.46.28-.42.48a1,1,0,0,0,1.06.49A2.44,2.44,0,0,0,36.6,30.76Zm-2.3.34h0c-.49-.07-.59-.34-.61-.46a.85.85,0,0,1,.41-.75.61.61,0,0,1-.46-.19l0,0a1.52,1.52,0,0,1-1,.7.57.57,0,0,0-.11.42c0,.12.15.22.35.3h0a2.6,2.6,0,0,1,1.22.53A.52.52,0,0,1,34.3,31.1Zm-3.23.43.23-.13a.35.35,0,0,1-.16-.08.33.33,0,0,1-.09-.16,1.32,1.32,0,0,1-.66.21h0a.68.68,0,0,1-.59-.24s0,0,0-.05a2,2,0,0,1-.72.26,1,1,0,0,0,.46.89.73.73,0,0,0,.82-.13l.05,0A5.8,5.8,0,0,1,31.07,31.53ZM27.3,28.88a1.11,1.11,0,0,1-.27-.12.73.73,0,0,1-.31-.69,1.73,1.73,0,0,1-.49.08,1,1,0,0,1-.25,0,.67.67,0,0,1-.21-.1,1.16,1.16,0,0,1-.43.19.61.61,0,0,0,.11.75A1.89,1.89,0,0,0,27.3,28.88Zm-1.64-1a.88.88,0,0,1-.13-.74l-.24,0a.89.89,0,0,1-.44-.1.56.56,0,0,1-.21-.16.93.93,0,0,1-.35.21.71.71,0,0,0,.34.73A.85.85,0,0,0,25.66,27.91Zm-1.1-1.11a.67.67,0,0,1-.06-.35h-.1a1.37,1.37,0,0,1-.51-.08.57.57,0,0,1-.42-.56,1,1,0,0,1-.44.25.67.67,0,0,0,.27.88A1.15,1.15,0,0,0,24.56,26.8ZM22.81,26a1,1,0,0,0,.57-.29H23.3a1,1,0,0,1-.62-.17.51.51,0,0,1-.11-.62,2.37,2.37,0,0,1-.79.31c-.12.17-.22.4-.11.57S22.38,26.07,22.81,26Zm-2.27-.86a.43.43,0,0,1-.25-.3.56.56,0,0,1,.22-.49,2,2,0,0,1-.37-.09,5.38,5.38,0,0,1-1,.16c-.34.2-.52.39-.5.54s.13.21.34.28A2.15,2.15,0,0,0,20.54,25.11Zm-4.95-3.42c0,.25.27.54.95.59a5.94,5.94,0,0,0,2-.2.92.92,0,0,1-.47-.31.51.51,0,0,1,0-.59l-.22-.08a.07.07,0,0,1-.05,0,6.65,6.65,0,0,1-1.47.13H15.9A.4.4,0,0,0,15.59,21.69ZM18.16,21a4.43,4.43,0,0,0,1.55.13h0c-.09-.17,0-.37.25-.58a1,1,0,0,1-.46-.37h0A6.33,6.33,0,0,1,18,19.85h0c-.13,0-.36.19-.43.45h0a.06.06,0,0,1,0,.08h0C17.51,20.69,17.73,20.91,18.16,21Zm-4.71-3c0,.12,0,.54,1.09.85a8.49,8.49,0,0,0,2.59.26.61.61,0,0,1,0-.48.57.57,0,0,1,.32-.26,1.14,1.14,0,0,1-.15-.17A16.73,16.73,0,0,1,14,17.82l-.27-.08A.3.3,0,0,0,13.45,18Zm17.49,3.6-.67-.33c-.24.16-.36.32-.34.47s.21.32.49.41A1.38,1.38,0,0,0,31.69,22l-.49-.23h0Zm-3.4-4.18c.22.25,1.18,1.29,2,.88a6.06,6.06,0,0,1,.74-.3,3,3,0,0,1,1.48-.52,3.79,3.79,0,0,0,1.85-2.54.71.71,0,0,0,0-.33c-2,.74-3.38-1.23-3.4-1.25a.08.08,0,0,1,0-.1.07.07,0,0,1,.11,0s1.35,1.91,3.25,1.18h0s.12,0,.15.14a3.7,3.7,0,0,1-1.73,2.89,1.4,1.4,0,0,1,.76.37A1.29,1.29,0,0,1,33,18h0c1.39-.76,1.56-2.14,1.71-3.36a3.24,3.24,0,0,1,.88-2.32l.34-.24h0c.59-.43,1.72-1.37,1.6-2.12a3.69,3.69,0,0,0-1.2-1.81l-.77-.49a5.93,5.93,0,0,1,.3,1.65h0c.08.7-.29.79-.68.89a1.36,1.36,0,0,0-1.15,1,.08.08,0,0,1-.07,0h0a.08.08,0,0,1-.07,0,2.44,2.44,0,0,0-2.38-1.31h0a2.22,2.22,0,0,0-1.86,1.46.06.06,0,0,1-.06.05c-.72.15-2.44.72-2.56.75a1.12,1.12,0,0,1-.22.11c-.3.25-.36.88-.4,1.36a2.39,2.39,0,0,1-.09.61,2.14,2.14,0,0,0,.16.74.74.74,0,0,0,.67.53,5,5,0,0,0,1.26-.14c.74-.14,1.51-.29,1.91.06a.9.9,0,0,1,.24.76h0C30.62,17.65,28.28,17.4,27.54,17.42Zm5.89-9.15v0c0,1-.64,1.3-1.37,1.47A2.39,2.39,0,0,1,34,11a1.53,1.53,0,0,1,1.2-.91.94.94,0,0,0,.45-.19h0a1.57,1.57,0,0,0-.86,0,.07.07,0,0,1-.08,0,.06.06,0,0,1,0-.08,2.25,2.25,0,0,0,.14-1.62A1.88,1.88,0,0,0,33.34,6.6a1.58,1.58,0,0,0-.91,0C33.43,7.37,33.43,8,33.43,8.27Zm2-.67-1-.54a2,2,0,0,1,.51,1.09,2.92,2.92,0,0,1-.08,1.57,1.57,1.57,0,0,1,.8,0,4.32,4.32,0,0,0-.25-2A.19.19,0,0,1,35.39,7.6Zm2.25,2.77A4.45,4.45,0,0,1,36,12.23c-.52.88-.61,1.62-.24,2a1,1,0,0,0,1.19,0C38.11,13.43,38.06,11.74,37.64,10.37ZM35.92,29.74a.52.52,0,0,1-.17,0H35.6a.49.49,0,0,1-.42-.29,1.28,1.28,0,0,1-.35.26c0,.27,0,.45.18.51a1.1,1.1,0,0,0,1-.29h0A.34.34,0,0,1,35.92,29.74Zm-.72-.61a1.1,1.1,0,0,1-.37.06.8.8,0,0,1-.48-.14.46.46,0,0,1-.19-.36,1.89,1.89,0,0,1-.37.32v0c-.09.18-.16.43,0,.57a.79.79,0,0,0,.79.07A1,1,0,0,0,35.2,29.13Zm-1.62,0a1.08,1.08,0,0,1-.28.11.93.93,0,0,1-.27,0,.51.51,0,0,1-.37-.13.55.55,0,0,1-.13-.29,2.56,2.56,0,0,1-1.15.71.52.52,0,0,0,.08.54,1.14,1.14,0,0,0,1.06.15,1.34,1.34,0,0,0,1-.75s0,0,0,0A1,1,0,0,1,33.58,29.13Zm-1.9,1.28a.73.73,0,0,1-.34-.2.63.63,0,0,1-.12-.59l-.24,0s0,0,0,0a4.09,4.09,0,0,1-1.09.79.61.61,0,0,0,0,.57.51.51,0,0,0,.49.18A2.07,2.07,0,0,0,31.68,30.41Zm-1.81-1.52h-.16a.73.73,0,0,1-.57-.19.43.43,0,0,1-.09-.28,3.06,3.06,0,0,1-1.31.48c-.08.5,0,.79.34.86A2.17,2.17,0,0,0,29.87,28.89Zm-.8-.66.08-.2a1.62,1.62,0,0,1-.44.07h0a.73.73,0,0,1-.64-.26A.58.58,0,0,1,28,27.4h-.21a1.72,1.72,0,0,1-.88.63.57.57,0,0,0,.24.61C27.43,28.84,28.11,28.84,29.07,28.23ZM26,28a1.89,1.89,0,0,0,1.59-.61l-.09,0a.66.66,0,0,1-.45-.7h-.43a2.52,2.52,0,0,1-.95.51C25.6,27.6,25.71,27.88,26,28Zm-4.14-4.12a.65.65,0,0,1,.1-.15H21.9c-.53-.06-.89-.24-1-.5a.19.19,0,0,1,0-.08,4.21,4.21,0,0,1-.69.05,3.78,3.78,0,0,1-.46,0A.76.76,0,0,0,20,24a2,2,0,0,0,1.84-.15Zm-3.64-2.11a3.13,3.13,0,0,0,2.05.32v0a.63.63,0,0,1,.19-.48,1.53,1.53,0,0,1-.64-.24h0a4.55,4.55,0,0,1-.53,0,4.39,4.39,0,0,1-1-.11C18,21.54,18.19,21.69,18.24,21.74ZM20,20.45a1.82,1.82,0,0,0,1.55.06.73.73,0,0,1,.11-.69,2.32,2.32,0,0,1-.55.06,2.67,2.67,0,0,1-1.25-.29h0a.36.36,0,0,0-.3.29C19.53,20.09,19.69,20.3,20,20.45ZM19.34,19a.59.59,0,0,1,0-.38.79.79,0,0,1,.16-.23,5.22,5.22,0,0,1-1.73-1.09.51.51,0,0,0-.35.16h0a.52.52,0,0,0-.05.47C17.5,18.48,18.74,18.88,19.34,19ZM17.6,16.75c.15.71,1.82,1.53,2.06,1.54h0l.09,0a.36.36,0,0,0,0-.09.61.61,0,0,1,0-.58h0c-.35-.16-1.56-.75-1.78-1.42C17.68,16.32,17.55,16.52,17.6,16.75Zm.5-.84c-.06.62,1.23,1.32,1.78,1.56a1.06,1.06,0,0,1,.49-.16.5.5,0,0,1,0-.12,4,4,0,0,1-1.83-1.49l0-.06a.33.33,0,0,0-.25,0A.27.27,0,0,0,18.1,15.91Zm.61-.91a.59.59,0,0,0-.05.64A3.75,3.75,0,0,0,20.34,17a.54.54,0,0,1,.09-.26.49.49,0,0,1,.24-.16,2.78,2.78,0,0,1-1.4-1.76A.55.55,0,0,0,18.71,15Zm.71-.49c-.08.49.25,1.32,1.46,2h.18a.63.63,0,0,1,.12-.34l.06-.06a4,4,0,0,1-.95-1.62c-.2-.28-.42-.43-.6-.39l-.09,0,0,0h0A.5.5,0,0,0,19.42,14.51Zm1.36-.93a.36.36,0,0,0-.4.39,3.27,3.27,0,0,0,1,2.11A1,1,0,0,1,22,16a.73.73,0,0,1,.07-.24,6.6,6.6,0,0,1-.85-2,.06.06,0,0,1,0,0C21.2,13.72,21,13.59,20.78,13.58Zm2,4a.59.59,0,0,0-.5.33.54.54,0,0,0,.16.59,3.77,3.77,0,0,0,1.88.64h0a1,1,0,0,1,.29-.18.66.66,0,0,1-.15-.38A2,2,0,0,1,22.78,17.54ZM24.72,19a.66.66,0,0,0-.42.38.58.58,0,0,0,.18.55,1.82,1.82,0,0,0,1.47.38,1,1,0,0,1,.3-.47.65.65,0,0,1-.13-.28A2.51,2.51,0,0,1,24.72,19Zm7.11,3a1.34,1.34,0,0,1-.93.34,1.86,1.86,0,0,1-.33,0,.46.46,0,0,0,0,.44.76.76,0,0,0,.71.18,1.22,1.22,0,0,0,1-.71Zm.51.28a1.29,1.29,0,0,1-.92.76.42.42,0,0,0,.12.43,1,1,0,0,0,1-.17.8.8,0,0,0,.46-.65Zm.77.46a1,1,0,0,1-.53.69.41.41,0,0,1-.11.07c.05.31.2.45.44.42a1.12,1.12,0,0,0,.85-.74Zm.78.54a1.3,1.3,0,0,1-.67.7h0a.31.31,0,0,0-.07.24c0,.07.07.13.17.18a.68.68,0,0,0,.62-.09,1,1,0,0,0,.48-.62Zm.66.52a1.32,1.32,0,0,1-.53.64l-.12.06A.44.44,0,0,0,34,25a.47.47,0,0,0,.47.08,1,1,0,0,0,.62-.77Zm.63.57a1.12,1.12,0,0,1-.56.74.36.36,0,0,0,.23.48.82.82,0,0,0,.91-.6A6.76,6.76,0,0,0,35.18,24.41Zm.69.75a1,1,0,0,1-.68.61.38.38,0,0,0,.14.34A.67.67,0,0,0,36,26a.59.59,0,0,0,.3-.33C36.13,25.49,36,25.32,35.87,25.16Zm.48.65a1.05,1.05,0,0,1-.32.31,1,1,0,0,1-.53.18l-.13,0a.34.34,0,0,0,.25.42.8.8,0,0,0,.91-.6Zm.27.46a1,1,0,0,1-.86.6h-.1a.36.36,0,0,0,.24.48.81.81,0,0,0,.92-.64h0Zm.31.7a.14.14,0,0,1,0-.07,1.05,1.05,0,0,1-.61.57s0,0,0,0a.51.51,0,0,0-.16.49.22.22,0,0,0,.22.16c.35,0,.7-.43.78-.55A4.12,4.12,0,0,0,36.93,27Zm-.73,1.32a.24.24,0,0,1-.11-.06,1.07,1.07,0,0,1-.64.24c-.11.19-.11.32,0,.4a.78.78,0,0,0,.74-.08C36.11,28.7,36.05,28.55,36.2,28.29Zm-1.76.64a.84.84,0,0,0,.85,0,.42.42,0,0,1,0-.46l-.14-.05a.45.45,0,0,1-.19-.48,1.29,1.29,0,0,1-.54.31,1,1,0,0,1-.06.16A.45.45,0,0,0,34.44,28.93Zm-.23-.59,0-.07h-.18a.57.57,0,0,1-.52-.61h-.12a1.22,1.22,0,0,1-.7.78c-.07.29-.06.49.05.6a.49.49,0,0,0,.49.06A1.62,1.62,0,0,0,34.21,28.34Zm-1.66.16-.11,0-.22,0a.64.64,0,0,1-.55-.24.41.41,0,0,1-.09-.26,2.09,2.09,0,0,1-.9.63,3.62,3.62,0,0,1-.56.17.53.53,0,0,0,.37.64,2.26,2.26,0,0,0,2-.89s0,0,0,0S32.55,28.53,32.55,28.5ZM29.1,26.63a.64.64,0,0,1-.6-.46,3.61,3.61,0,0,1-1.27.44.51.51,0,0,0,.34.58A1.37,1.37,0,0,0,29.1,26.63ZM28.54,26a1,1,0,0,1-.25,0,.65.65,0,0,1-.3-.06.59.59,0,0,1-.39-.38.38.38,0,0,1,0-.1,2.47,2.47,0,0,1-1.3.4c-.1.3,0,.5.21.59A2.92,2.92,0,0,0,28.54,26Zm-.89-.78,0-.06a2.42,2.42,0,0,1-.46.06.89.89,0,0,1-.47-.12.47.47,0,0,1-.2-.43,1.64,1.64,0,0,1-1,.46.42.42,0,0,0,.25.52A2,2,0,0,0,27.65,25.18ZM25.3,25a1.52,1.52,0,0,0,1.18-.47,1.17,1.17,0,0,1-.43-.17.55.55,0,0,1-.28-.48,2.48,2.48,0,0,1-.68.31l-.16,0c-.18.22-.24.4-.18.53A.61.61,0,0,0,25.3,25Zm-1.6-1.81c-.51,0-.67-.29-.71-.41a.57.57,0,0,1,0-.29,5,5,0,0,1-1.33.2l-.41,0c-.17.21-.23.39-.18.53s.4.35.87.4A2.53,2.53,0,0,0,23.7,23.14ZM21,22.41A4.32,4.32,0,0,0,23,22.26a.38.38,0,0,1,.09-.13H23c-.54-.1-.67-.38-.69-.53v-.05a4.31,4.31,0,0,1-.95.09,5.43,5.43,0,0,1-.71,0,.5.5,0,0,0-.24.42C20.45,22.2,20.64,22.33,21,22.41Zm.87-1.76a2.78,2.78,0,0,0,2.41.3.5.5,0,0,1-.11-.38.61.61,0,0,1,.3-.43l-.05,0a5,5,0,0,1-1,.11,2.07,2.07,0,0,1-1.46-.44C21.63,20.12,21.61,20.42,21.85,20.65Zm0-2a2.43,2.43,0,0,1-1.44-1.14v0c-.07,0-.42,0-.55.22a.43.43,0,0,0,0,.44c.22.59,1.58.75,1.79.77a.43.43,0,0,1,0-.07A.78.78,0,0,1,21.87,18.62Zm-1.32-1.76c-.09.11-.08.31,0,.57A2.42,2.42,0,0,0,22,18.51a.76.76,0,0,1,.2-.06.64.64,0,0,1-.1-.6,1.44,1.44,0,0,1-1-.86,1,1,0,0,1-.08-.28A.6.6,0,0,0,20.55,16.86ZM22,19.61c.48.6,1.86.45,2.33.36a.63.63,0,0,1-.07-.73,3.66,3.66,0,0,1-1.87-.65.58.58,0,0,0-.39,1Zm3.66.91a1.89,1.89,0,0,1-1-.27.43.43,0,0,0-.29.34c0,.18.1.35.36.46a3.42,3.42,0,0,0,1.72,0,.85.85,0,0,1-.37-.32.52.52,0,0,1-.07-.21Zm2.56.7a2.74,2.74,0,0,1-.59.06,3.21,3.21,0,0,1-.95-.14c-.28.27-.34.49-.19.66a1,1,0,0,0,.38.2h0a2.12,2.12,0,0,0,1.41-.08h0A.49.49,0,0,1,28.18,21.22ZM29.28,23,29,23a.26.26,0,0,0,0,.26,1.06,1.06,0,0,0,1,.2.87.87,0,0,0,.66-.43.47.47,0,0,1-.23-.18.26.26,0,0,1-.06-.13A1.8,1.8,0,0,1,29.28,23Zm6.79,4.48h0a.57.57,0,0,1-.18,0,.53.53,0,0,1-.3-.22.93.93,0,0,1-.3.15.92.92,0,0,1-.09.23,0,0,0,0,1,0,0c-.07.21-.12.49.06.6a.82.82,0,0,0,.77-.17L36,28A.65.65,0,0,1,36.07,27.51Zm-1-.05-.28,0a.82.82,0,0,1-.4-.09.4.4,0,0,1-.12-.11,1.16,1.16,0,0,1-.6.35c0,.28.13.46.39.48A1.06,1.06,0,0,0,35.09,27.46Zm-1.82.17a.49.49,0,0,1-.36-.5.59.59,0,0,1-.29.07.69.69,0,0,1-.28-.05.92.92,0,0,1-.49.5h0c-.14.24-.15.43-.06.56a.61.61,0,0,0,.62.16A1.12,1.12,0,0,0,33.27,27.63Zm-2.47-.94a.85.85,0,0,0,.18-.34.86.86,0,0,1,0-.29,1.06,1.06,0,0,1-.44.11h-.11l-.17-.06a.92.92,0,0,1-.67.5.51.51,0,0,0,.48.38.84.84,0,0,0,.72-.25h0S30.79,26.7,30.8,26.69Zm-.69-.7a.66.66,0,0,1-.13-.36,1.13,1.13,0,0,1-.3,0,.62.62,0,0,1-.25,0,.35.35,0,0,1-.15-.09,1.92,1.92,0,0,1-.41.29.73.73,0,0,1-.23.24c.06.39.46.42.63.42C29.65,26.48,30.08,26.26,30.11,26Zm-4.67-3.53h0a1.19,1.19,0,0,1-.71-.34.45.45,0,0,1-.12-.25,2.84,2.84,0,0,1-1.21.29h-.09a.8.8,0,0,0-.15.17.09.09,0,0,1,0,.06.45.45,0,0,0,0,.3c.08.22.37.33.79.31A2.49,2.49,0,0,0,25.44,22.46ZM24.86,22a1.66,1.66,0,0,0,1.8.09.92.92,0,0,1-.32-.2c-.11-.12-.23-.36.06-.72a4.47,4.47,0,0,1-1,.12h-.33C24.86,21.48,24.65,21.77,24.86,22Zm.55,1a.47.47,0,0,0,.37.3,1.11,1.11,0,0,0,1-.24.5.5,0,0,1,0-.24h0a.51.51,0,0,1-.35-.44,2,2,0,0,1-.72.14h-.12C25.46,22.66,25.38,22.82,25.41,23Zm.72,1.22a1.08,1.08,0,0,0,1.23-.08.56.56,0,0,1,0-.52,1.17,1.17,0,0,1-.27-.15.61.61,0,0,1-.19-.24,1.2,1.2,0,0,1-.78.26h0a.59.59,0,0,1-.12.2v0A.4.4,0,0,0,26.13,24.19Zm2.75-.84a1.94,1.94,0,0,1-1,.32,1.37,1.37,0,0,1-.36,0c-.09.24-.05.4.12.5a1.54,1.54,0,0,0,1.5-.29.53.53,0,0,1,0-.29.69.69,0,0,1-.25-.19Zm2.28,1.39a1.72,1.72,0,0,1-1,.85c0,.25.13.39.31.42a1.59,1.59,0,0,0,1.36-1,.54.54,0,0,1-.43-.34ZM32,25h0a2.14,2.14,0,0,1-.83.95c0,.25,0,.44.13.53a.71.71,0,0,0,.74-.08,1,1,0,0,0,.6-.86h0a.64.64,0,0,1-.28-.06A.52.52,0,0,1,32,25Zm1.52,1.09-.17,0a.73.73,0,0,1-.3-.06.57.57,0,0,1-.27-.35,1.29,1.29,0,0,1-.57.79h0a.27.27,0,0,0,.06.4.55.55,0,0,0,.72,0,2.12,2.12,0,0,0,.51-.74A.64.64,0,0,0,33.47,26.11ZM31,24.77h0a.62.62,0,0,1-.6-.52,2.52,2.52,0,0,1-.95.7h0c-.1.28-.07.45.11.52A1.54,1.54,0,0,0,31,24.77Zm-.77-.6-.21,0h-.16a.86.86,0,0,1-.66-.22,1.59,1.59,0,0,1-.82.36h0c-.1.16-.25.44-.06.58S29.57,24.89,30.2,24.17Zm-3.37.76a1.57,1.57,0,0,0,1.23-.1.63.63,0,0,1,.1-.46H28a1,1,0,0,1-.51-.11l-.06,0a1.16,1.16,0,0,1-.75.28C26.67,24.71,26.71,24.85,26.83,24.93Zm.92.58a.43.43,0,0,0,.29.28c.49.2,1.05-.27,1.16-.38a.56.56,0,0,1,0-.37,1.79,1.79,0,0,1-.57.11A.67.67,0,0,1,28.2,25a.59.59,0,0,1-.08-.08l-.22.09a1.59,1.59,0,0,0-.11.18v0h0A.43.43,0,0,0,27.75,25.51Zm3.15,2a.65.65,0,0,0,.66.1.92.92,0,0,0,.65-.52.24.24,0,0,1-.09-.06.43.43,0,0,1-.17-.39,1.12,1.12,0,0,1-.45.1.55.55,0,0,1-.34-.1.38.38,0,0,1-.09-.09,1.17,1.17,0,0,1-.17.26C30.78,27.12,30.77,27.36,30.9,27.5Zm3.32-.37a.64.64,0,0,1,0-.3H34.1a.77.77,0,0,1-.27,0,.49.49,0,0,1-.35-.32,2.5,2.5,0,0,1-.41.53c0,.27.06.44.26.49A.93.93,0,0,0,34.22,27.13Zm1.3-.31a.49.49,0,0,1-.29-.6h0a1.18,1.18,0,0,1-.82.58.72.72,0,0,0,0,.3,0,0,0,0,1,0,0,.3.3,0,0,0,.11.14,1.2,1.2,0,0,0,1-.14A.65.65,0,0,1,35.52,26.82Zm-.52-1a.58.58,0,0,1-.19,0,.48.48,0,0,1-.33-.29,1.15,1.15,0,0,1-.33.33,1.45,1.45,0,0,1-.51.26.83.83,0,0,1,0,.15.38.38,0,0,0,.27.44,1.13,1.13,0,0,0,1.24-.56h0A.56.56,0,0,1,35,25.8Zm-.57-.58-.17,0a.58.58,0,0,1-.4-.16.5.5,0,0,1-.11-.17,1.34,1.34,0,0,1-.42.4,1.7,1.7,0,0,1-.47.22.44.44,0,0,0,.21.4,1.12,1.12,0,0,0,1-.24A.82.82,0,0,0,34.43,25.22Zm-.72-.61-.19,0a.58.58,0,0,1-.26-.06.45.45,0,0,1-.25-.24,1.31,1.31,0,0,1-.84.65s0,0,0,0a.41.41,0,0,0,.19.37,1,1,0,0,0,.88-.19A.9.9,0,0,0,33.71,24.61Zm-.79-.5h-.06c-.17,0-.45-.08-.53-.51h0a1.65,1.65,0,0,1-.82,1,.46.46,0,0,0,.56.26C32.45,24.78,32.89,24.44,32.92,24.11Zm-.76-.44a1.51,1.51,0,0,1-.35.06.6.6,0,0,1-.35-.1.41.41,0,0,1-.1-.09,1.6,1.6,0,0,1-.92.58c.07.36.26.53.54.5A1.74,1.74,0,0,0,32.16,23.67Zm-.9-.56-.2,0a.82.82,0,0,1-.28,0,.94.94,0,0,1-.77.53,1.63,1.63,0,0,1-.31,0,1.84,1.84,0,0,1-.41,0,.26.26,0,0,0,0,.27c.09.14.35.2.69.18a1.63,1.63,0,0,0,1.31-.67A.74.74,0,0,1,31.26,23.11ZM28.85,23a1.2,1.2,0,0,1-.55-.22l-.07-.08a2,2,0,0,1-.87.19,1.37,1.37,0,0,1-.36,0,.45.45,0,0,0,.16.5,1.47,1.47,0,0,0,1.66-.13A.46.46,0,0,1,28.85,23Zm-.67-.86a2.1,2.1,0,0,1-.7.11,2.25,2.25,0,0,1-.64-.08,1.37,1.37,0,0,1-.2.13.39.39,0,0,0,.27.36,1.74,1.74,0,0,0,1.24-.09A.48.48,0,0,1,28.18,22.12Zm-5.7-.55c0,.2.23.34.57.4a2.59,2.59,0,0,0,1.58-.28,1,1,0,0,1,.25-.43l-.28-.07a1.42,1.42,0,0,1-.22-.13,1.76,1.76,0,0,1-.93.2,3.53,3.53,0,0,1-.78-.09h0A.39.39,0,0,0,22.48,21.57ZM24,23.89a1.14,1.14,0,0,0,1.1.1,1.42,1.42,0,0,0,.87-.54l-.19,0a.59.59,0,0,1-.47-.41.67.67,0,0,1,0-.24,2.86,2.86,0,0,1-1.29.38C23.83,23.48,23.82,23.74,24,23.89Zm4.23,3.87a.67.67,0,0,0,.53.19h0a2.24,2.24,0,0,0,1.46-.81H30a.67.67,0,0,1-.61-.5h-.14a1.65,1.65,0,0,1-1.15.75A.47.47,0,0,0,28.18,27.76Zm1.08.84c.18.21.76.18,1.36-.06s.88-.52.92-.78l-.26,0a.65.65,0,0,1-.5-.19.64.64,0,0,1-.09-.61.94.94,0,0,1-.3.12,3,3,0,0,1-1,.84C29.24,28.16,29.12,28.44,29.26,28.6Zm1.16-6.29h0a1.19,1.19,0,0,1-.39-.2,1.45,1.45,0,0,1-.62.1,2.27,2.27,0,0,1-.95-.18c-.19.26-.2.47,0,.62a1.76,1.76,0,0,0,1.94-.11A.85.85,0,0,1,30.42,22.31ZM30.1,21.2a4.25,4.25,0,0,1-1.06.17,1.17,1.17,0,0,1-.67-.16c-.27.37-.1.53,0,.58a2.17,2.17,0,0,0,1.55.2.52.52,0,0,1-.1-.23A.63.63,0,0,1,30.1,21.2Zm-1.89-.14h0a.67.67,0,0,1-.15-.46,1.07,1.07,0,0,1-.25,0,2.16,2.16,0,0,1-.94-.25,2.44,2.44,0,0,1-.52-.37c-.25.24-.32.46-.21.64C26.39,21.06,27.5,21.22,28.21,21.06Zm-5.52-3.8A1.27,1.27,0,0,1,22,16.2h0c-.32-.07-.55,0-.67.12a.61.61,0,0,0,0,.62,1.23,1.23,0,0,0,.91.76.75.75,0,0,1,.53-.31.5.5,0,0,1,0-.12Zm-3,2a2.38,2.38,0,0,0,2.08.35.77.77,0,0,1-.15-.59,3.22,3.22,0,0,1-1.76-.65.55.55,0,0,0-.38.31A.53.53,0,0,0,19.7,19.28Zm.14,1.82c.08.16.4.27.8.33h.05a4.25,4.25,0,0,0,1.65-.07.72.72,0,0,1,.14-.24,1.66,1.66,0,0,1-.74-.37.63.63,0,0,1-.1-.12,1.56,1.56,0,0,1-.74.16,2.15,2.15,0,0,1-.79-.15C19.94,20.78,19.77,21,19.84,21.1Zm-1,1.5c0,.12.15.27.47.33a4.56,4.56,0,0,0,1.61,0,.69.69,0,0,1,.17-.36l-.11,0a.84.84,0,0,1-.61-.36h0a2.22,2.22,0,0,1-.54.05A4.93,4.93,0,0,1,19,22.2s0,0-.06,0-.07,0-.09,0A.43.43,0,0,0,18.81,22.6Zm3.25,1.78a2.38,2.38,0,0,0,2.41-.16.79.79,0,0,1-.63-.23.71.71,0,0,1-.08-.7,2.55,2.55,0,0,1-1.52.42h-.07C21.92,24,21.88,24.22,22.06,24.38Zm.72,1a.93.93,0,0,0,.68.13l.05,0h.09A2.91,2.91,0,0,0,24.85,25a.43.43,0,0,1-.23-.23.57.57,0,0,1,.1-.56,2.49,2.49,0,0,1-1.7.58h-.23C22.63,25.07,22.63,25.28,22.78,25.4Zm1.17.83a1.61,1.61,0,0,0,1.72-.5.53.53,0,0,1-.31-.63h-.07a1.17,1.17,0,0,1-.27,0,3.1,3.1,0,0,1-1.38.6A.45.45,0,0,0,24,26.23Zm1,.73a1.64,1.64,0,0,0,1.55-.38h0a.55.55,0,0,1-.32-.74,1.53,1.53,0,0,1-.32-.05,1.56,1.56,0,0,1-1.16.65A.5.5,0,0,0,24.91,27Zm3.73,3.19a.38.38,0,0,0,.21.23,1.09,1.09,0,0,0,.93,0h0a3.79,3.79,0,0,0,1-.66,1.34,1.34,0,0,1-.3-.05A.63.63,0,0,1,30,29a2.39,2.39,0,0,1-1.2.81l0,0A.42.42,0,0,0,28.64,30.15ZM36.18,29a1,1,0,0,1-.46.11.78.78,0,0,1-.22,0c-.15.13-.21.26-.18.35s.15.17.31.2a.48.48,0,0,0,.39-.07l.14-.14A.36.36,0,0,1,36.18,29Zm1-.39a4.85,4.85,0,0,0-.05-.76,1.2,1.2,0,0,1-.79.5c-.08.13-.15.29,0,.38A.83.83,0,0,0,37.2,28.58ZM37.09,27c3.14-7.64.22-12.13-.12-12.61a1.31,1.31,0,0,1-.68.21.88.88,0,0,1-.62-.24c-.38-.37-.35-1.06.07-1.89l-.07.05a3.16,3.16,0,0,0-.82,2.22c-.15,1.25-.33,2.66-1.77,3.46.66,1,.57,2.74-.25,4.28l.22.14,0,0c.24.16.5.33.76.52,0,0,0,0,0,0,.21.15.43.31.64.48,0,0,0,0,0,0l.61.53,0,0a6.64,6.64,0,0,1,.68.72l0,0c.16.19.31.39.45.59,0,0,0,0,0,0a4.78,4.78,0,0,1,.26.42.06.06,0,0,1,0,.06,6.4,6.4,0,0,1,.39.84Zm-6.22-9.08a1.45,1.45,0,0,1,1.54.46c.54.76.1,2.11-1,3.3l.48.24h0l.47.26h0l.34.2c.87-1.63.88-3.58,0-4.38A1.61,1.61,0,0,0,30.87,17.87Zm-.95,3.23c-.42-.22-.88-.46-1.37-.74a.07.07,0,0,1-.05,0c-.12,0-.25.07-.28.17s0,.23.12.4C28.57,21.34,29.43,21.21,29.92,21.1Zm-1.52-.83a20.52,20.52,0,0,1-1.77-1.11h0c-.23.09-.35.21-.35.35s.26.5.67.71a1.33,1.33,0,0,0,1.25.14l0,0A.58.58,0,0,1,28.4,20.27Zm-1.91-1.21c-.41-.29-.81-.6-1.2-.92a.62.62,0,0,0-.62.23.39.39,0,0,0,.08.47,2.2,2.2,0,0,0,1.37.61A.61.61,0,0,1,26.49,19.06ZM25.11,18a11.51,11.51,0,0,1-1.25-1.27h0c-.61,0-1,.21-1,.53,0,.49.77,1.12,1.63,1.14a.46.46,0,0,1,.05-.1A.75.75,0,0,1,25.11,18Zm-1.36-1.41c-.16-.21-.32-.42-.46-.64h0c-.32-.28-.62-.39-.85-.29a.52.52,0,0,0-.29.49,1.12,1.12,0,0,0,.6,1C22.78,16.9,23,16.61,23.75,16.57Zm-.66-1a5.21,5.21,0,0,1-.61-1.47,4.48,4.48,0,0,1-.11-.62.08.08,0,0,1,0-.06c0-.07-.11-.17-.28-.22a.56.56,0,0,0-.66.22c-.23.38.43,1.65.76,2.21a.56.56,0,0,1,.21-.16A.82.82,0,0,1,23.09,15.6Zm.54-6.16c.68-1.19.57-2,.25-2.31a.93.93,0,0,0-1.12-.08c-.24.12-2.3,1.34-1.46,6.27a.72.72,0,0,1,.79-.24.66.66,0,0,1,.25.13A5.88,5.88,0,0,1,23.63,9.44ZM22.32,7.16c0-.09-.08-.86-.68-.86a1.73,1.73,0,0,0-1.44.89,6.87,6.87,0,0,0-.42,3.75,12.73,12.73,0,0,0,.57,2.68.47.47,0,0,1,.43-.19.94.94,0,0,1,.41.13C20.54,10,21.33,8,22.32,7.16Zm-1.88-.51c-.58-.48-1.11-.57-1.57-.26-1,.64-1.33,2.84-.94,4.13A15.33,15.33,0,0,0,19.55,14l.11,0a.65.65,0,0,1,.58.24,1.34,1.34,0,0,1,0-.28.41.41,0,0,1,0-.16C19.93,13.09,19,9,20.07,7.12A2,2,0,0,1,20.44,6.65Zm-2.24.28a1.55,1.55,0,0,0-1.76.75c-.84,1.7.77,5.67,2.23,7.15a.74.74,0,0,1,.59-.15,1.15,1.15,0,0,1,0-.19.6.6,0,0,1,.16-.35,15.86,15.86,0,0,1-1.65-3.58A5,5,0,0,1,18.2,6.93Zm-1.88.67a1.35,1.35,0,0,0-1,.39,2.37,2.37,0,0,0-.42,1.92s0,0,0,0c0,.17.05.36.09.55.46,2.47,3,4.76,3.34,5a.44.44,0,0,1,.16,0,.72.72,0,0,1,.12-.54c-1.5-1.5-3.16-5.51-2.26-7.32ZM14.72,10a1.33,1.33,0,0,0-.93,1.07c-.15,1.72,3.5,4.29,4.17,4.74a.39.39,0,0,1,.18-.28c-.48-.43-2.89-2.65-3.34-5.06C14.77,10.35,14.74,10.19,14.72,10Zm-.89,2a1.4,1.4,0,0,0-.7.83A1.32,1.32,0,0,0,13.51,14a12.87,12.87,0,0,0,4,2.53.88.88,0,0,1,.46-.48,20.27,20.27,0,0,1-2.25-1.75A7.56,7.56,0,0,1,13.83,12Zm-.5,2c-.45.33-.65.66-.6,1s.46.73,1,1h0l0,0a16.65,16.65,0,0,0,3.12,1.2l.45.13a.58.58,0,0,1,.31-.16,1.14,1.14,0,0,1-.21-.41.66.66,0,0,1,0-.14,12.94,12.94,0,0,1-4.05-2.58Zm0,2.27a.77.77,0,0,0-.24.73c.06.23.27.54.93.7a15.23,15.23,0,0,0,3.21.37s0,0,0,0a.75.75,0,0,1,0-.52l-.4-.12a15.71,15.71,0,0,1-3.19-1.23A.38.38,0,0,0,13.34,16.24Zm6.09,3.81a.44.44,0,0,1,0-.2.56.56,0,0,1,.28-.37l-.11-.09a1.37,1.37,0,0,1-.17-.19,5.8,5.8,0,0,1-1.82-.72.54.54,0,0,0-.33.22.52.52,0,0,0,0,.45C17.56,19.76,19.07,20,19.43,20.05ZM16.69,23c.13.19.5.26.95.26a.06.06,0,0,1,.06,0,10.36,10.36,0,0,0,1.64-.17h-.08a.68.68,0,0,1-.59-.43.57.57,0,0,1,.06-.47,5.63,5.63,0,0,1-1.76.27H16.8C16.64,22.69,16.6,22.87,16.69,23Zm1,1a.67.67,0,0,0,.6.25,7.25,7.25,0,0,0,1.61-.12.89.89,0,0,1-.35-.94,10.68,10.68,0,0,1-1.87.23A.73.73,0,0,0,17.72,24Zm4,1.07h0a1.91,1.91,0,0,0,.79-.32A1.2,1.2,0,0,1,22,24.5a.48.48,0,0,1-.16-.42,2.4,2.4,0,0,1-1.06.25h0c-.21.17-.3.33-.28.45s.12.19.29.25A2,2,0,0,0,21.71,25.07Zm5,4.94a1,1,0,0,0,1.2-.16c-.22-.11-.4-.36-.31-.94h-.06a2.67,2.67,0,0,1-1,.37h0A.54.54,0,0,0,26.7,30Zm.89,1a2.18,2.18,0,0,0,2.1,0,.9.9,0,0,1,0-.4,1.48,1.48,0,0,1-.46.08.91.91,0,0,1-.45-.11.52.52,0,0,1-.3-.34.47.47,0,0,1,.06-.27l-.29,0-.2,0a1.42,1.42,0,0,1-.52.33h0C27.37,30.57,27.38,30.82,27.59,31Zm4.95.09a.51.51,0,0,1-.16-.25.58.58,0,0,1,.06-.4,2.22,2.22,0,0,1-.37,0h-.22a3.41,3.41,0,0,1-.66.62.18.18,0,0,0,.06.14c.07.07.2.08.38.05h0A2.45,2.45,0,0,1,32.54,31.08ZM35,31s0,0,0,0a.52.52,0,0,1,.33-.57H35.2a.61.61,0,0,1-.24,0,.49.49,0,0,1-.29-.58l-.08,0h0l0,0c-.44.12-.74.51-.7.77s.35.37.87.35h0A.88.88,0,0,1,35,31Zm1.82-.74.06-.18a1.11,1.11,0,0,1-.81-.06,1.19,1.19,0,0,1-.44.28l0,.07a1.63,1.63,0,0,0,1,.21l.07-.14Zm.27-.86a1.09,1.09,0,0,1-.52.15.56.56,0,0,1-.3-.08l-.1.09h0l0,0c-.07.08-.12.17-.07.25a.84.84,0,0,0,.87.06C37,29.75,37.06,29.58,37.1,29.42Zm.09-.64a1.09,1.09,0,0,1-.56.15l-.2,0c-.16.15-.22.3-.14.4s.47.17.85-.1C37.16,29.07,37.18,28.93,37.19,28.78Zm.08.53c2.29-5,3.92-9.5.16-15.33a2.28,2.28,0,0,1-.33.29c.38.54,3.31,5.13.07,12.88,0,0,0,0,0,0s.07.29.1.43a0,0,0,0,1,0,0,4.54,4.54,0,0,1,.08,1v0A3.94,3.94,0,0,1,37.27,29.31ZM13.8,18.71a3.52,3.52,0,0,1,1,1.32,8.46,8.46,0,0,0,2.57.25.88.88,0,0,1,.39-.52,1.27,1.27,0,0,1-.6-.5l-.47,0A8.54,8.54,0,0,1,14.5,19,3,3,0,0,1,13.8,18.71Zm1.09,1.5A2.26,2.26,0,0,1,15,21a9.76,9.76,0,0,0,2.72,0,.64.64,0,0,1-.35-.59l-.41,0A8.31,8.31,0,0,1,14.89,20.21Zm-.07,1.51c-.72,1.42-2.92,2.21-4.26,2.32a3.51,3.51,0,0,0-3.1,2.2,2.14,2.14,0,0,0,.66,2.33l.19.1c.36.21.77.44,1.67-.44A7.78,7.78,0,0,1,19.84,26a1,1,0,0,1,.05-.53h-.22a2.26,2.26,0,0,1-.77-.12c-.27-.09-.43-.23-.44-.41s.1-.35.35-.54h-.5a.81.81,0,0,1-.72-.32.88.88,0,0,1,0-.67,1.43,1.43,0,0,1-.94-.26c-.17-.17-.16-.41,0-.71h-.09c-.78-.05-1.08-.41-1.1-.73a.59.59,0,0,1,.19-.46c-.21,0-.43,0-.63-.08A1.9,1.9,0,0,1,14.82,21.72Zm5.51,4.63a2.55,2.55,0,0,0,1.78-.2.76.76,0,0,1-.57-.29c-.08-.11-.12-.31,0-.62a1.62,1.62,0,0,1-.31,0,1.67,1.67,0,0,1-.57-.08,1.22,1.22,0,0,1-.64.26C19.89,25.9,20,26.21,20.33,26.35Zm1.32,1.1a1.56,1.56,0,0,0,1.82-.28.87.87,0,0,1-.25-.1.81.81,0,0,1-.36-1h0a2.61,2.61,0,0,1-.48.05h-.06a1.29,1.29,0,0,1-.69.32C21.35,26.9,21.36,27.24,21.65,27.45Zm1.05.94a2.25,2.25,0,0,0,2-.28,1.18,1.18,0,0,1-.19-.11.9.9,0,0,1-.41-.81,1.55,1.55,0,0,1-.31,0h-.18a1.55,1.55,0,0,1-1.06.55C22.44,28.05,22.47,28.26,22.7,28.39ZM24,29.56a2.21,2.21,0,0,0,1.84-.28,1.06,1.06,0,0,1-.47-.2.74.74,0,0,1-.18-.86,1,1,0,0,1-.29,0,1.8,1.8,0,0,1-1.12.47C23.58,29.1,23.65,29.41,24,29.56Zm1.18,1a1.67,1.67,0,0,0,2.09-.27h-.08a.94.94,0,0,1-.56-.18.69.69,0,0,1-.23-.82H26a1.66,1.66,0,0,1-1,.47h0A.6.6,0,0,0,25.16,30.57ZM26.55,32a2.78,2.78,0,0,0,2.26-.67l-.3,0a1.64,1.64,0,0,1-1-.28.62.62,0,0,1-.21-.65,2,2,0,0,1-1.14.51C26,31.54,26.16,31.9,26.55,32ZM13.47,41.7a3.9,3.9,0,0,1-1.61-2.43,1.07,1.07,0,0,1,.21-.61,1.08,1.08,0,0,0,0-1.38c-.2-.25-.44-.52-.7-.82C10,34.91,8.3,33,9,30.91a2.5,2.5,0,0,1-2.65-1.48c-.84-1.67-.64-4.4.41-5.43l.1-.07A8.4,8.4,0,0,1,11,22.35c1.17-.23,1.93-.73,2.07-1.37a.94.94,0,0,0-.39-1,1.3,1.3,0,0,0-1.46,0,2.69,2.69,0,0,1-2.6.36A4.66,4.66,0,0,1,6.3,17.2a20.28,20.28,0,0,0,7.17,24.5Zm3.92,2.12a19.84,19.84,0,0,0,2.67.87l.27.06a2.47,2.47,0,0,0,1.42,0h0a1.32,1.32,0,0,0,.51-.93.44.44,0,0,0-.27-.34l-.08,0a2.1,2.1,0,0,1-1-.75.65.65,0,0,1-.06-.34c0-.17,0-.31-.13-.39s-.13-.09-1.09-.06h0c-1,0-3.37-2.6-3.5-2.81v0a.34.34,0,0,1-.41-.15.45.45,0,0,1,0-.52h0l0,0a14,14,0,0,0,2.58-4c.83-2,.1-2.82-.83-3.87a6.23,6.23,0,0,1-1.77-3.32s-.13-.69.25-.76a.47.47,0,0,1,.54.36c.06.2.28,1.53,2.35,3.47a3.92,3.92,0,0,1,.81,3.42C23.28,36,28.36,35,28.41,35a.09.09,0,0,1,.07,0,.08.08,0,0,1,0,.07,11.93,11.93,0,0,0-.44,2.41c0,.44-.07.91-.11,1.36-.09,1-.18,2-.17,2.45a.45.45,0,0,0,.13.35.6.6,0,0,0,.4.14c0-.24.08-.53.15-.88a21,21,0,0,0,.3-3.46,9.14,9.14,0,0,1,.83-4.38,3.14,3.14,0,0,1-1.05.18,2.34,2.34,0,0,1-.66-.09.73.73,0,0,1-.5-.94,2.28,2.28,0,0,1-.44,0,1.23,1.23,0,0,1-.44-.07c-.32-.11-.66-.41-.5-1.21h0a1.55,1.55,0,0,1-.92-.29.74.74,0,0,1-.31-.89h-.21a1.57,1.57,0,0,1-.63-.12c-.23-.1-.57-.37-.33-1h-.22a1.67,1.67,0,0,1-.75-.15.53.53,0,0,1-.21-.74h-.07a1.38,1.38,0,0,1-.78-.21.71.71,0,0,1-.14-1,3.29,3.29,0,0,1-.54.05,1.61,1.61,0,0,1-.6-.1.7.7,0,0,1-.37-.3h0a7.65,7.65,0,0,0-9.8,2.15c-1,1-1.47.69-1.86.47l-.18-.1H8a2.26,2.26,0,0,1-.71-2.5,3.65,3.65,0,0,1,3.23-2.3c1.27-.1,3.45-.88,4.13-2.24a1.8,1.8,0,0,0,.05-1.46A3.38,3.38,0,0,0,13,18.38a2.13,2.13,0,0,0-1.33-.08,2.94,2.94,0,0,1-1.87-.15,2.75,2.75,0,0,1-1.51-2.36,1.65,1.65,0,0,0-.09-.36c-.29-.11-.46,0-.63.33h0a4.42,4.42,0,0,0,2,2.79.09.09,0,0,1,0,.1.08.08,0,0,1-.07.05h0A4.61,4.61,0,0,1,7.42,16l0,.12-.14.28h0A4.24,4.24,0,0,0,9.15,18.9a.07.07,0,0,1,0,.1.08.08,0,0,1-.07.05h0a4.25,4.25,0,0,1-1.95-2.5.85.85,0,0,1-.17.2.18.18,0,0,1-.08.05,5,5,0,0,0,1.88,2.53.08.08,0,0,1,0,.14h0a5.06,5.06,0,0,1-1.94-2.66l-.06,0-.06,0a.14.14,0,0,0-.11.05.47.47,0,0,0-.07.32,4.51,4.51,0,0,0,2.25,3.11,2.55,2.55,0,0,0,2.46-.35,1.45,1.45,0,0,1,1.63,0A1.09,1.09,0,0,1,13.23,21c-.16.7-1,1.24-2.19,1.48A8.48,8.48,0,0,0,7,24.05l-.09.07c-1,1-1.19,3.62-.37,5.24a2.33,2.33,0,0,0,2.61,1.38.11.11,0,0,1,.08,0,.09.09,0,0,1,0,.07c-.79,2,.91,4,2.27,5.52.26.3.5.57.71.83a1.24,1.24,0,0,1,0,1.55.92.92,0,0,0-.19.51C12.16,41.09,15,42.82,17.39,43.82Zm4.08-2.32a.42.42,0,0,0,0-.33c-.09-.16-.39-.24-.8-.35a7.73,7.73,0,0,1-3.91-2.23l-.5.41c.29.39,2.52,2.73,3.36,2.7,1,0,1.11,0,1.18.09a.5.5,0,0,1,.2.52.57.57,0,0,0,0,.27,2,2,0,0,0,.94.68l.09,0a.57.57,0,0,1,.35.47,1.25,1.25,0,0,1-.34.83l.25-.11c.56-.26.89-.61.92-1a.82.82,0,0,0-.45-.73l-.66-.39C21.62,42.1,21.33,41.93,21.47,41.5ZM25,45.3a20.1,20.1,0,0,0,6.43-1h-.25a3.84,3.84,0,0,1-2.41-.89h0l-.17-.15c-.34-.29-.44-.41-.31-1.29a.82.82,0,0,1-.48-.19.59.59,0,0,1-.18-.46c0-.43.08-1.42.17-2.47,0-.45.08-.91.11-1.35a13,13,0,0,1,.41-2.33c-.8.14-5.33.79-8.67-1.38a10.68,10.68,0,0,1-2.77,4.74,7.72,7.72,0,0,0,3.84,2.19c.47.12.77.2.89.42a.54.54,0,0,1,0,.45c-.09.3.06.4.61.71.19.1.41.23.67.39a1,1,0,0,1,.52.87c0,.42-.39.82-1,1.1a3.77,3.77,0,0,1-1.1.35A20.42,20.42,0,0,0,25,45.3Zm18.52-12,.19-.45c.13-.3.26-.61.37-.92s.22-.63.32-.95c.2-.63.36-1.28.5-1.94s.21-1.15.28-1.74a.39.39,0,0,1-.24.15.39.39,0,0,1-.29-.07,2.76,2.76,0,0,1-.16,1.38,1,1,0,0,1-.82.67c-.29.07-1,.35-1.93.71a37.79,37.79,0,0,1-6.13,2h0l0,0h0a2.44,2.44,0,0,1-.94,0c-.07,1.45-1.08,3.59-2,5.48-.37.77-.71,1.49-.95,2.09a3.75,3.75,0,0,0-.5,1.73.14.14,0,0,0,.08.11.67.67,0,0,0,.49-.08c.53-.21.88-.25,1.09-.14s.24.34.28.56.08.45.28.54a.43.43,0,0,1,.26.39,1,1,0,0,1-.37.64A20.42,20.42,0,0,0,43.52,33.34ZM45.37,23l3.33-.35c0-.51-.11-1-.19-1.49l-3.3.58C45.28,22.19,45.33,22.61,45.37,23Zm3.12-2q-.14-.75-.3-1.47l-3.25.8c.1.41.18.83.25,1.25Zm-.34-1.62c-.12-.49-.25-1-.4-1.45l-3.18,1c.13.4.24.81.34,1.23Zm-.44-1.6c-.16-.48-.32-.95-.5-1.41l-3.1,1.25q.22.58.42,1.2Zm-.56-1.56q-.28-.69-.6-1.38l-3,1.47c.18.38.35.77.51,1.16Zm-.66-1.51c-.22-.46-.46-.9-.7-1.34L42.9,15.09l.09.15c.18.32.34.65.5,1Zm-.78-1.47c-.24-.44-.51-.87-.78-1.29l-2.76,1.86.33.53.33.56Zm-.87-1.41q-.42-.63-.87-1.23l-2.62,2,0,.06c.2.27.39.53.58.81l.12.18Zm-1-1.35q-.47-.6-1-1.17l-2.47,2.22.34.4c.16.19.31.39.47.59ZM42.82,9.25c-.34-.38-.68-.74-1-1.1l-2.31,2.39c.12.11.23.22.34.34l.33.36.21.23ZM41.67,8q-.54-.52-1.11-1L38.43,9.56c.32.28.63.57.94.87Zm-31,2.32L8.42,8c-.36.35-.71.72-1.06,1.1l2.45,2.19,0,0c.22-.25.44-.48.68-.71ZM7.26,9.21c-.33.38-.66.77-1,1.17l2.59,2L9.21,12l.5-.57ZM6.19,10.5c-.31.4-.61.81-.89,1.24L8,13.57H8c.19-.28.38-.54.58-.81l.17-.23Zm-1,1.36c-.28.42-.55.86-.8,1.3L7.26,14.8l.24-.41c.14-.24.29-.46.44-.69Zm-.88,1.43c-.25.44-.49.89-.71,1.35l3,1.44c.14-.28.28-.56.43-.84l.17-.31Zm-.78,1.48c-.22.46-.42.93-.61,1.4L6,17.4c.16-.4.34-.79.52-1.18Zm-.67,1.54c-.18.47-.36,1-.51,1.43l3.13,1c.14-.41.28-.82.44-1.22Zm-.56,1.58c-.15.48-.29,1-.41,1.47l3.2.79c.11-.42.22-.83.35-1.24ZM1.88,19.5c-.12.5-.22,1-.31,1.5l3.25.57c.07-.43.16-.85.26-1.27Zm-.34,1.65c-.08.49-.15,1-.2,1.5L4.63,23c0-.43.1-.86.17-1.28Zm-.21,1.66c-.05.5-.08,1-.09,1.51l3.3.12c0-.43,0-.86.08-1.29Zm-.08,3.34c0,.51.07,1,.12,1.51l3.3-.35c0-.42-.09-.85-.11-1.28Zm.14,1.66c.06.51.13,1,.22,1.5l3.27-.57c-.08-.42-.14-.85-.2-1.28Zm.25,1.65c.09.5.2,1,.33,1.48l3.22-.8c-.11-.41-.2-.83-.28-1.25ZM2,31.09c.13.49.27,1,.43,1.45l3.16-1c-.13-.4-.26-.81-.37-1.22Zm.48,1.6c.16.48.34,1,.53,1.41l3.09-1.24c-.17-.4-.32-.8-.46-1.2Zm.59,1.55q.3.7.63,1.38l3-1.46c-.19-.38-.38-.77-.54-1.16Zm.7,1.51c.23.45.47.9.73,1.33l2.88-1.67c-.13-.22-.26-.44-.38-.67l-.24-.45Zm.8,1.46c.26.43.54.86.82,1.27l2.77-1.86L8,36.42c-.18-.27-.36-.54-.53-.83l0-.05Zm.91,1.4c.29.41.59.81.9,1.21L9,37.76c-.14-.18-.28-.35-.41-.53l-.36-.49Zm1,1.32c.32.4.65.78,1,1.15L10,38.84l-.09-.1c-.22-.24-.44-.49-.65-.74l-.09-.12Zm1.09,1.26c.34.37.69.73,1,1.07L11,39.86l-.41-.41c-.17-.16-.33-.33-.49-.5Zm32.66-2.51,2.47,2.23c.33-.37.65-.75,1-1.13L41,37.72Q40.65,38.21,40.23,38.68Zm3.53,1c.3-.39.6-.8.88-1.21l-2.77-1.86c-.23.35-.48.69-.74,1Zm1-1.33c.28-.41.55-.83.8-1.26L42.63,35.4c-.21.36-.43.72-.67,1.07Zm.88-1.39c.25-.43.49-.87.71-1.31l-3-1.47q-.29.57-.6,1.11Zm.78-1.45c.22-.44.42-.9.61-1.36L43.9,32.88c-.16.39-.34.77-.52,1.15Zm.67-1.5c.19-.46.37-.92.53-1.4l-3.18-1c-.14.4-.29.79-.44,1.18Zm.57-1.54c.16-.47.3-1,.43-1.43l-3.25-.81c-.11.4-.23.81-.36,1.21Zm.47-1.58c.12-.48.23-1,.32-1.46l-3.3-.58q-.12.62-.27,1.23Zm.35-1.61c.09-.49.16-1,.22-1.48l-3.34-.35c0,.42-.11.84-.18,1.25Zm.23-1.63c.06-.49.1-1,.12-1.49L45.45,26v.19c0,.36,0,.71-.09,1.07ZM48.8,26c0-.32,0-.64,0-1,0-.17,0-.35,0-.52l-3.35.11c0,.13,0,.26,0,.39v0c0,.21,0,.41,0,.61v.23Zm0-1.65c0-.5-.05-1-.09-1.49l-3.33.35c0,.41.06.84.07,1.26ZM25,1.24A23.72,23.72,0,0,0,8.53,7.89l2.28,2.36A20.45,20.45,0,0,1,25,4.52h0a20.38,20.38,0,0,1,10.71,3,1.62,1.62,0,0,1,.35.22,20.56,20.56,0,0,1,2.25,1.68l2.13-2.54A23.69,23.69,0,0,0,25,1.24ZM8.74,42.37c.36.34.74.67,1.12,1L12,40.8q-.5-.4-1-.84ZM39.25,39.7l2.31,2.39c.36-.34.7-.7,1-1.06L40.12,38.8Q39.7,39.27,39.25,39.7Zm-27.54,5A23.78,23.78,0,0,0,41.45,42.2l-2.31-2.39a20.38,20.38,0,0,1-19.29,5,11.4,11.4,0,0,1-1.78-.55A20.14,20.14,0,0,1,13.59,42c-.5-.34-1-.7-1.46-1.08L10,43.46C10.54,43.92,11.12,44.35,11.71,44.75Zm2.16,0a.38.38,0,0,1-.41,0c-.33-.2-.29-.6-.1-.92s.46-.51.78-.32a.34.34,0,0,1,.2.36l0,.12,0,0,.18-.31a1.35,1.35,0,0,0-.33-.28.81.81,0,1,0-.83,1.38,1.37,1.37,0,0,0,.42.17l.22-.24,0,0Zm1.56.78c0,.19,0,.22,0,.28l0,0v0l-.6-.3v0l.1,0c.09,0,.11,0,.14-.19l0-.25-.49-.24-.13.12c-.18.16-.19.21-.12.27l.07.06,0,0L14,45.15l0,0h0c.08,0,.11,0,.27-.16l1-.89.18.09Zm-.14-1.21h0l-.16.16-.37.33.43.21.06-.48S15.28,44.36,15.29,44.31Zm1.66.52-.65-.27,0,0,.07,0c.07.06.08.08,0,.26l-.36.88c-.07.17-.09.18-.18.17h-.09l0,0,.64.26,0,0-.07-.05c-.08-.06-.09-.08,0-.26l.43-1.06.08,0c.2.08.31.2.21.44a.32.32,0,0,1-.46.18l-.05,0,.22.93.42.17v0l0,0c-.05,0-.07-.1-.12-.3s-.11-.42-.15-.58a.4.4,0,0,0,.5-.21C17.45,45.11,17.22,44.93,17,44.83Zm2.24,1.55a.82.82,0,0,1-1.1.49l-.72-.22,0,0h.08c.1,0,.12,0,.17-.19l.29-.9c.06-.18.05-.2,0-.25l-.08-.05,0,0,.78.25C19.08,45.57,19.35,45.87,19.19,46.38Zm-.68-.88-.23-.07-.33,1c-.06.2,0,.23.05.26l.07,0c.33.11.64,0,.79-.46S18.87,45.61,18.51,45.5Zm2.2,2,.05,0v0l-.66-.15v0h.1c.09,0,.11,0,.09-.22l0-.25-.53-.12-.1.15c-.13.2-.14.25-.05.29l.08.05v0l-.49-.11v0h.05c.08,0,.1,0,.23-.22l.77-1.11.2.05.18,1.35C20.63,47.42,20.65,47.45,20.71,47.49Zm-.46-.69-.05-.49a.77.77,0,0,1,0-.22h0a1.57,1.57,0,0,1-.12.19l-.27.41Zm2-.52.12,0c.09,0,.11.08.05.56l-.05.34s0,.13,0,.18h0a.88.88,0,0,0-.09-.21l-.58-1-.51-.07v0l.11,0c.09,0,.11.06.08.24l-.1.74c-.05.38-.08.41-.17.42H21v0l.58.09v0l-.12,0c-.1,0-.12-.09,0-.57l.06-.45c0-.05,0-.12,0-.15h0a1.12,1.12,0,0,0,.08.18l.68,1.19.16,0,.15-1.05c.06-.38.08-.4.17-.42h.08v0l-.58-.08Zm2.34.92a.8.8,0,0,1-.85.76.75.75,0,0,1-.77-.85.79.79,0,0,1,.86-.76A.74.74,0,0,1,24.62,47.2Zm-.33,0c0-.52-.2-.73-.44-.74s-.49.16-.52.69.2.72.44.73S24.26,47.71,24.29,47.18Zm1.74.68a.34.34,0,0,1-.34-.18l-.06-.12-.05,0,.08.34A1.14,1.14,0,0,0,26,48a.52.52,0,0,0,.55-.54.49.49,0,0,0-.34-.41L26.1,47c-.12-.05-.27-.12-.27-.26s.12-.23.25-.24.28.08.31.16l0,.14h0v-.34a.88.88,0,0,0-.37,0,.44.44,0,0,0-.16.87l.14.06c.13.05.26.13.27.28S26.19,47.85,26,47.86Zm.78-1.13v-.15c0-.08.06-.13.31-.16l.13,0,.12,1.14c0,.19,0,.21-.08.24l-.09,0v0l.7-.08v0h-.1c-.09,0-.11,0-.13-.22l-.13-1.13h.12c.25,0,.31,0,.34.09l0,.13h.06l-.05-.37-1.35.15,0,.37Zm1.45,1v0l.05,0c.06,0,.07-.07.12-.29l.27-1.32.2,0,.7,1.17c.1.16.12.19.2.2h.05v0l-.66.12v0l.09,0c.08,0,.09-.07,0-.23L29.15,47l-.54.1,0,.17c0,.24,0,.29.08.29h.09v0Zm.37-.72.46-.08-.24-.43a.84.84,0,0,1-.09-.19h0s0,.18,0,.22Zm1.77-.54.73.64.44-.12v0h-.07a.73.73,0,0,1-.3-.18l-.56-.48.2-.37c.1-.19.15-.29.2-.31l.07,0v0l-.54.15v0h.09c.09,0,.13.06,0,.29Zm-.61-.54c.1,0,.12,0,.17.2l.24.92c.05.18,0,.2,0,.25l-.08,0v0l.67-.18v0h-.09c-.09,0-.11,0-.16-.2l-.25-.92c0-.18,0-.2.05-.25l.07,0v0l-.66.18v0Zm1.6-.44c.1,0,.12,0,.18.19l.31.89c.06.18.05.2,0,.26l-.08,0,0,0,1.07-.37,0-.33h0l0,.11c0,.11-.06.16-.28.24l-.13,0c-.09,0-.12,0-.19-.18L32,46l.19-.06c.2-.07.23-.07.28,0l.06.08h0l-.14-.43h0v.09c0,.08,0,.1-.22.17l-.19.06-.19-.53.19-.07c.24-.08.3-.08.35,0l0,.09h0l-.1-.3-1,.36v0Zm2-.73c.09,0,.11,0,.19.17l.4.86c.08.17.07.19,0,.25l-.07.06,0,0,.67-.31v0l-.13,0c-.09,0-.12,0-.2-.16l-.49-1.05.09,0a.34.34,0,0,1,.49.18.37.37,0,0,1-.19.52l0,.08c.29-.13.6-.41.44-.77s-.48-.24-.72-.13l-.63.29,0,0Zm1.64,0a.79.79,0,0,1,.31-1.11.75.75,0,0,1,1.1.32.79.79,0,0,1-.32,1.09A.73.73,0,0,1,35,44.79Zm.29-.17c.25.46.55.51.76.39s.33-.39.07-.85-.56-.51-.77-.39S35,44.16,35.29,44.62Zm1.39-.79a.78.78,0,0,1,.21-1.12.74.74,0,0,1,1.12.21A.79.79,0,0,1,37.79,44,.73.73,0,0,1,36.68,43.83Zm.27-.19c.29.43.59.46.79.32s.29-.42,0-.85-.61-.46-.8-.32S36.65,43.2,37,43.64Zm.88-1.48c.09,0,.11,0,.23.11l.59.74c.12.15.12.18.06.25l-.05.07,0,0,.87-.7-.17-.33,0,0,0,.16c0,.1,0,.17-.19.31l-.09.08c-.08.06-.11.06-.24-.11l-.57-.71c-.12-.15-.12-.17,0-.25l.08-.09,0,0-.57.45,0,0ZM15.41,4.44c.09,0,.11,0,.19.17l.38.87c.07.18.06.2,0,.26l-.07,0,0,0,.68-.3v0l-.13,0c-.09,0-.13,0-.2-.16L15.79,4.3l.1,0a.33.33,0,0,1,.48.19.37.37,0,0,1-.21.52l0,.08c.29-.13.61-.4.45-.76s-.47-.25-.71-.15l-.64.28,0,0Zm1.65.06a.78.78,0,0,1,.49-1,.75.75,0,0,1,1,.5.8.8,0,0,1-.51,1A.73.73,0,0,1,17.06,4.5Zm.31-.11c.17.49.46.59.68.51s.39-.33.22-.83-.46-.59-.69-.52S17.19,3.88,17.37,4.39Zm1.53-.52a.79.79,0,0,1,.58-1,.75.75,0,0,1,1,.59.8.8,0,0,1-.59,1A.74.74,0,0,1,18.9,3.87Zm.32-.08c.12.51.4.63.63.58s.42-.3.29-.81-.4-.64-.64-.58S19.09,3.28,19.22,3.79Zm1.47-1.07c.1,0,.12,0,.15.21l.16.94c0,.19,0,.2-.07.24l-.08,0v0L22,4l0-.38h-.06l0,.16c0,.1-.08.15-.31.19h-.11c-.1,0-.13,0-.17-.21l-.15-.89c0-.18,0-.21.07-.24l.12-.05v0l-.73.13v0Zm2.14.4a.79.79,0,0,1,.76-.86.74.74,0,0,1,.85.76.79.79,0,0,1-.76.85A.73.73,0,0,1,22.83,3.12Zm.33,0c0,.52.28.69.52.67s.46-.21.43-.73-.28-.7-.52-.69S23.13,2.56,23.16,3.1Zm2.28.66-.13,0c-.09,0-.11,0-.11-.23V3.08h.23c.21,0,.24,0,.26.09l0,.1h0V2.81h-.05l0,.09c0,.08-.06.08-.27.08h-.22V2.36h.23c.25,0,.31,0,.33.11l0,.13h.05V2.27l-1.12,0v0l.08,0c.09,0,.11,0,.11.24l0,.94c0,.2,0,.21-.11.24l-.08,0v0h.74Zm2,.18-.72-.09v0l.09,0c.09,0,.11,0,.13-.22l.11-.94c0-.18,0-.2-.08-.24l-.08,0v0l.71.08c.22,0,.54.09.5.39s-.26.3-.38.31h0a.38.38,0,0,1,.37.42C28.09,3.82,27.83,4,27.46,3.94Zm-.13-.89h.12a.28.28,0,0,0,.36-.25c0-.23-.12-.3-.31-.33h-.1Zm.45.49c0-.28-.14-.36-.33-.38l-.13,0-.05.45c0,.21,0,.24.1.25h0A.32.32,0,0,0,27.78,3.54Zm.92.58L28.21,4V4h.05c.08,0,.1,0,.22-.23l.73-1.13.2,0L29.65,4c0,.19,0,.22.11.26l0,0v0l-.66-.13v0h.1c.08,0,.11,0,.08-.22l0-.24-.54-.11-.09.15c-.13.2-.13.26,0,.3l.09,0Zm.11-.63.47.09-.07-.48a.78.78,0,0,1,0-.22h0a1.6,1.6,0,0,1-.11.19Zm1.83,1.07-.7-.19v0H30c.1,0,.12,0,.17-.2l.25-.91c.05-.18,0-.2,0-.25l-.08-.05v0l.69.18c.21.06.52.17.44.47s-.3.25-.42.24h0a.38.38,0,0,1,.3.48C31.28,4.53,31,4.66,30.64,4.56Zm0-.9.11,0a.29.29,0,0,0,.4-.19c.06-.23-.08-.32-.26-.37l-.1,0Zm-.07.79A.32.32,0,0,0,31,4.21c.08-.27-.08-.38-.27-.43l-.12,0-.12.44c-.05.2,0,.23.06.25Zm.88.35,1.07.37.18-.28,0,0-.09.08c-.07.08-.15.09-.37,0l-.12,0c-.1,0-.11-.07,0-.27l.14-.39.19.06c.2.07.22.09.22.17v.1l0,0,.15-.44h0l-.05.07c0,.07-.08.06-.28,0l-.19-.07.19-.54.19.07c.24.08.28.12.28.21V4l0,0,.11-.3L32,3.35v0l.07.05c.08.06.09.08,0,.26l-.32.89c-.06.18-.08.19-.18.19h-.08Zm1.47.46h-.09v0l1,.45.21-.32,0,0-.12.12c-.07.07-.15.07-.36,0l-.11,0c-.09,0-.11-.07,0-.27l.36-.83c.07-.18.1-.19.19-.17l.12,0,0,0-.68-.29v0l.07,0c.07.06.08.08,0,.26l-.37.87C33,5.26,33,5.27,32.93,5.26Z"/></svg>