<svg id="Layer_1" data-name="Layer 1" xmlns="http://www.w3.org/2000/svg" xmlns:xlink="http://www.w3.org/1999/xlink" viewBox="0 0 46.83 46.85"><defs><style>.cls-1{fill:url(#Silver);}</style><linearGradient id="Silver" x1="25" y1="1.57" x2="25" y2="48.43" gradientUnits="userSpaceOnUse"><stop offset="0" stop-color="#cfd1d2"/><stop offset="0.19" stop-color="#a3a5a6"/><stop offset="0.46" stop-color="#fcfcfc"/><stop offset="1" stop-color="#9fa1a6"/></linearGradient></defs><path id="PoB-Silver" class="cls-1" d="M29.45,12.55c.32-.6,1.84-1.57,2.42-.15C32,12.7,30.49,12.85,29.45,12.55ZM33.3,7.74A1.23,1.23,0,0,1,34,9.14a3.85,3.85,0,0,1-.28,1.26.07.07,0,0,0,.05.09h0a.08.08,0,0,0,.07-.05,4.16,4.16,0,0,0,.29-1.3,1.39,1.39,0,0,0-.77-1.55.08.08,0,0,0-.1.05A.07.07,0,0,0,33.3,7.74Zm2.48,5.69a.68.68,0,0,0,.09.51.44.44,0,0,0,.3.16h.15a.63.63,0,0,0,.65-.39.43.43,0,0,0-.13-.51c-.06,0-.25-.12-.51.14a.08.08,0,0,0,0,.11.09.09,0,0,0,.1,0c.13-.13.25-.18.33-.13a.29.29,0,0,1,.07.34c-.08.22-.32.32-.64.28a.26.26,0,0,1-.2-.1.53.53,0,0,1-.07-.4c0-.33.29-.51.56-.73a1.79,1.79,0,0,0,.82-1.19.09.09,0,0,0-.07-.09.08.08,0,0,0-.08.06,1.63,1.63,0,0,1-.76,1.1A1.28,1.28,0,0,0,35.78,13.43Zm-3.45,20a.43.43,0,0,0-.49.43c1.15.53-.15,2.18-.85,4.25s-.52,2.3-.51,2.08C30.54,39.27,34.19,33.85,32.33,33.43ZM21.27,31.67l.05,0s0,0,.06,0a.08.08,0,0,0,0-.1c-.86-.57-.44-2.47-.43-2.49a.08.08,0,0,0-.15,0C20.76,29.11,20.33,31.05,21.27,31.67Zm1.26.36,0,0,.06,0a.09.09,0,0,0,0-.11c-.94-.78-.49-2.64-.48-2.66a.08.08,0,0,0-.15,0C22,29.3,21.52,31.19,22.53,32Zm1.35.25h0a.06.06,0,0,0,.06,0,.07.07,0,0,0,0-.1c-1.17-.61-.83-2.56-.82-2.58a.08.08,0,0,0-.15,0C23,29.62,22.61,31.61,23.88,32.28Zm-13.1-1.55a.08.08,0,0,0-.15,0c-.31,2.22.88,3.68,1.83,4.85s1.7,2.08.83,3.31a.09.09,0,0,0,0,.11h0l.06,0c.92-1.32.11-2.33-.84-3.49S10.48,32.89,10.78,30.73ZM48.42,25v0A23.42,23.42,0,0,1,1.58,25h0A23.47,23.47,0,0,1,18.13,2.6c.64-.19,1.3-.36,2-.51L20.53,2A23.52,23.52,0,0,1,25,1.57h0A23.45,23.45,0,0,1,48.42,25ZM1.8,26,5,25.86c0-.29,0-.58,0-.87V24.6l-3.23-.11V25C1.78,25.35,1.78,25.66,1.8,26Zm42.13.89a.08.08,0,0,1,.1,0,.5.5,0,0,1,.09.18c.1.16.22.25.33.23s.27-.2.31-.54a1.36,1.36,0,0,0,0-.2c0-.09,0-.17,0-.25l0-.68c0-.15-.14-.18-.43-.26-1-.24-1.31.3-1.7.92a3.62,3.62,0,0,1-.61.79h0a1.21,1.21,0,0,1-.3.2,21.4,21.4,0,0,1-3,.12,1.21,1.21,0,0,1-.8-.08c-.39.95-.84,1.91-1.29,2.89a3.55,3.55,0,0,1-.21.44,2.33,2.33,0,0,1-.44.75s0,0,0,0a3.33,3.33,0,0,1-.42.42,40.14,40.14,0,0,0,5.69-1.92c.9-.35,1.61-.63,1.91-.7a.84.84,0,0,0,.7-.57A2.45,2.45,0,0,0,44,27.13L43.9,27S43.9,26.87,43.93,26.86Zm-8.63,5a3.16,3.16,0,0,0,.51-.45h0a1.15,1.15,0,0,1-.84-.32h0a.58.58,0,0,0-.71-.05.43.43,0,0,0-.08.56,0,0,0,0,1,0,0c.12.11.19.2.22.23A2,2,0,0,0,35.3,31.9Zm-3.93,7.49c.24-.59.57-1.3.93-2,.88-1.87,1.87-4,1.91-5.36a2.41,2.41,0,0,0-1.53-.88h0A2.61,2.61,0,0,0,31,31.5c-2.05,1.34-2.11,3.34-2.18,5.65a20.46,20.46,0,0,1-.31,3.4c-.32,1.79-.28,1.82.09,2.14l.17.14a3.4,3.4,0,0,0,3.65.54c.51-.25.86-.61.86-.89a.26.26,0,0,0-.17-.24.76.76,0,0,1-.35-.63c0-.2-.07-.37-.21-.45s-.46,0-.93.14h0a1.06,1.06,0,0,1-.32.11c-.32.05-.42-.13-.44-.24A3.86,3.86,0,0,1,31.37,39.39Zm-1.71-6.81a2.88,2.88,0,0,1,.27-.34.77.77,0,0,1-.25,0,.86.86,0,0,1-.36-.08,1.07,1.07,0,0,1-.52-.84,3,3,0,0,1-1.31.64s0,0,0,0a.55.55,0,0,0,.38.78,2.33,2.33,0,0,0,1.74-.18A.08.08,0,0,1,29.66,32.58Zm-21-17.07,0,0c.07.05.09.17.14.45a2.59,2.59,0,0,0,1.39,2.2,2.72,2.72,0,0,0,1.74.13,2.26,2.26,0,0,1,1.39.09,3.46,3.46,0,0,1,.5.27.57.57,0,0,1-.23-.53.44.44,0,0,1,.2-.32.93.93,0,0,1-.54-.62.9.9,0,0,1,.27-.87.57.57,0,0,1,.21-.12,1.7,1.7,0,0,1-.85-1c-.06-.37.16-.74.64-1.1a1.29,1.29,0,0,1-.25-1,1.54,1.54,0,0,1,.77-.92,1.65,1.65,0,0,1-.13-.76,1.48,1.48,0,0,1,1-1.19,2.41,2.41,0,0,1,.45-2,1.51,1.51,0,0,1,1.2-.42h0a1.69,1.69,0,0,1,1.82-.65h0a1.76,1.76,0,0,1,.49-.52c.35-.24.94-.38,1.73.27a1.87,1.87,0,0,1,1.06-.39h0c.54,0,.75.53.8.89l.23-.14A1,1,0,0,1,24,7.44c.46.48.37,1.39-.22,2.44a5.25,5.25,0,0,0-1.11,4.46c.91,3.67,6.2,6.24,8.19,7.21l.2.1c1.23-1.25,1.46-2.49,1-3.08s-1.37-.56-2.6,0c-1,.5-2.15-.9-2.2-1a.08.08,0,0,1,0-.1l.12,0c.05,0,.3,0,.65,0,.67,0,1.56-1,2.17-1.08a.69.69,0,0,0-.2-.6c-.32-.29-1-.15-1.73,0a4.57,4.57,0,0,1-1.26.13h0a.86.86,0,0,1-.79-.59,2.42,2.42,0,0,1-.17-.81h0c0-.12-.14-.26-.27-.39s-.32-.32-.32-.49c-.17-.64.62-.95,1.09-1.14l0,0a.71.71,0,0,1,.25-.11h0c.07,0,1.73-.57,2.49-.73a2.49,2.49,0,0,1,2.19-1.55c.83-.18,1.48-.32,1.49-1.35v0c0-.3,0-.8-.92-1.53a.13.13,0,0,1,0-.16c.06-.15.42-.17.74-.14A19.82,19.82,0,0,0,7,16.81a.33.33,0,0,1,.17,0c.07,0,.1,0,.12,0a1.6,1.6,0,0,0,.36-.57C7.85,15.8,8.08,15.3,8.63,15.51Zm35.84,9.56a1.47,1.47,0,0,0-1.57.27,2.94,2.94,0,0,0-.74,1.46,4.23,4.23,0,0,0,.41-.6c.38-.61.78-1.25,1.86-1l.08,0A.13.13,0,0,0,44.47,25.07Zm.18.21.19.09V25A19.79,19.79,0,0,0,36.69,9a2.75,2.75,0,0,1,.68,1.29,4.82,4.82,0,0,1,.3,2.89c2.33,2.37,3.9,9.86,1.41,14l0,0a17.73,17.73,0,0,0,2.68-.1A1.38,1.38,0,0,0,42,27a3.22,3.22,0,0,1,.83-1.74A1.59,1.59,0,0,1,44.56,25,.27.27,0,0,1,44.65,25.28Zm-8.31,5.34h-.06a1.64,1.64,0,0,1-.93-.25l0,0c-.3.11-.45.28-.4.47s.5.54,1,.48A2.53,2.53,0,0,0,36.34,30.62ZM34.09,31h0c-.48-.06-.58-.32-.6-.44a.83.83,0,0,1,.4-.74.6.6,0,0,1-.45-.18l0,0a1.53,1.53,0,0,1-1,.69.52.52,0,0,0-.12.4c0,.13.15.22.35.3h0a2.51,2.51,0,0,1,1.2.52A.51.51,0,0,1,34.09,31Zm-3.16.42.22-.11a.53.53,0,0,1-.15-.08.33.33,0,0,1-.09-.16,1.37,1.37,0,0,1-.64.2h0a.65.65,0,0,1-.57-.25.05.05,0,0,1,0,0,1.93,1.93,0,0,1-.7.26.93.93,0,0,0,.45.86.7.7,0,0,0,.8-.13h0A5.74,5.74,0,0,1,30.93,31.37Zm-3.68-2.58a.69.69,0,0,1-.26-.12.68.68,0,0,1-.31-.67,1.6,1.6,0,0,1-.47.08A.75.75,0,0,1,26,28a.5.5,0,0,1-.2-.09.91.91,0,0,1-.42.18.61.61,0,0,0,.11.74A1.84,1.84,0,0,0,27.25,28.79Zm-1.61-.94a.9.9,0,0,1-.12-.73l-.23,0a1,1,0,0,1-.44-.09.64.64,0,0,1-.2-.16,1.13,1.13,0,0,1-.34.2.69.69,0,0,0,.33.72A.85.85,0,0,0,25.64,27.85Zm-1.07-1.09a.74.74,0,0,1-.06-.34h-.1a1.48,1.48,0,0,1-.49-.08.56.56,0,0,1-.41-.55,1,1,0,0,1-.43.25.65.65,0,0,0,.26.86A1.12,1.12,0,0,0,24.57,26.76ZM22.86,26a1,1,0,0,0,.55-.28h-.07a1,1,0,0,1-.6-.16.5.5,0,0,1-.12-.61,2.22,2.22,0,0,1-.76.31c-.12.17-.22.39-.12.55S22.44,26,22.86,26Zm-2.21-.84a.43.43,0,0,1-.25-.3.57.57,0,0,1,.21-.48,1.35,1.35,0,0,1-.36-.08,5.62,5.62,0,0,1-1,.15c-.32.2-.5.39-.48.53s.12.2.33.27A2.12,2.12,0,0,0,20.65,25.11ZM15.8,21.76c0,.25.27.54.94.58a6,6,0,0,0,2-.19.88.88,0,0,1-.46-.31.48.48,0,0,1,0-.57l-.22-.08s0,0,0,0a6.66,6.66,0,0,1-1.44.12h-.46A.4.4,0,0,0,15.8,21.76Zm2.51-.63a4.27,4.27,0,0,0,1.52.13h0c-.09-.17,0-.36.23-.56a1,1,0,0,1-.44-.37h0A5.89,5.89,0,0,1,18.16,20h0c-.12,0-.35.18-.42.44h0a.09.09,0,0,1,0,.08h0C17.68,20.79,17.89,21,18.31,21.13Zm-4.59-3c0,.12,0,.53,1.06.83a8.16,8.16,0,0,0,2.54.26.58.58,0,0,1,0-.47.62.62,0,0,1,.31-.26,1.15,1.15,0,0,1-.14-.17A15.65,15.65,0,0,1,14.25,18,1.34,1.34,0,0,1,14,17.9.31.31,0,0,0,13.72,18.16ZM30.8,21.68l-.65-.32c-.24.15-.35.31-.33.46s.2.31.48.4A1.33,1.33,0,0,0,31.53,22l-.48-.23h0Zm-3.32-4.09c.21.25,1.15,1.26,2,.86.26-.12.5-.21.73-.29a2.89,2.89,0,0,1,1.44-.51,3.7,3.7,0,0,0,1.81-2.48.62.62,0,0,0,0-.31c-1.94.71-3.3-1.21-3.32-1.23a.08.08,0,0,1,0-.1.06.06,0,0,1,.1,0s1.33,1.87,3.18,1.15h0s.12,0,.15.14a3.65,3.65,0,0,1-1.7,2.83,1.35,1.35,0,0,1,.75.36,1.21,1.21,0,0,1,.16.16h0c1.35-.74,1.52-2.09,1.67-3.28a3.16,3.16,0,0,1,.85-2.27l.33-.23h0c.57-.42,1.67-1.34,1.56-2.07a3.54,3.54,0,0,0-1.18-1.77l-.74-.47a5.87,5.87,0,0,1,.29,1.6h0c.09.69-.27.78-.65.87a1.35,1.35,0,0,0-1.13,1,.08.08,0,0,1-.07.05h0a.08.08,0,0,1-.07-.05,2.38,2.38,0,0,0-2.32-1.28h0a2.18,2.18,0,0,0-1.82,1.43.12.12,0,0,1-.05.05c-.71.14-2.39.69-2.51.73l-.22.1c-.29.24-.34.86-.38,1.34a2.28,2.28,0,0,1-.09.59,2.09,2.09,0,0,0,.16.73.73.73,0,0,0,.65.51,4.82,4.82,0,0,0,1.23-.14c.73-.14,1.48-.28,1.86.06a.91.91,0,0,1,.25.75h0C30.49,17.82,28.2,17.57,27.48,17.59Zm5.75-8.94v0c0,1-.62,1.27-1.34,1.44a2.29,2.29,0,0,1,1.86,1.19,1.48,1.48,0,0,1,1.16-.89.94.94,0,0,0,.45-.19h0a1.59,1.59,0,0,0-.84,0,.07.07,0,0,1-.08,0,.06.06,0,0,1,0-.08,2.34,2.34,0,0,0,.13-1.58A1.81,1.81,0,0,0,33.15,7a1.5,1.5,0,0,0-.89,0C33.24,7.78,33.23,8.35,33.23,8.65ZM35.15,8c-.31-.18-.62-.36-.94-.53a2.06,2.06,0,0,1,.5,1.07,2.93,2.93,0,0,1-.08,1.54,1.31,1.31,0,0,1,.78,0,4.23,4.23,0,0,0-.24-2A.19.19,0,0,1,35.15,8Zm2.2,2.7a4.22,4.22,0,0,1-1.59,1.82c-.51.86-.59,1.58-.23,1.93a.94.94,0,0,0,1.16,0C37.8,13.7,37.76,12,37.35,10.7ZM35.67,29.63l-.17,0h-.14a.5.5,0,0,1-.42-.28,1.25,1.25,0,0,1-.34.25c-.05.27,0,.44.18.5a1,1,0,0,0,.93-.29h0A.27.27,0,0,1,35.67,29.63ZM35,29a1.1,1.1,0,0,1-.36.07.73.73,0,0,1-.47-.14.5.5,0,0,1-.2-.35,1.73,1.73,0,0,1-.35.31v0c-.08.17-.15.41,0,.56a.78.78,0,0,0,.77.06A1,1,0,0,0,35,29Zm-1.59,0-.27.11-.26,0a.51.51,0,0,1-.37-.13.45.45,0,0,1-.12-.28,2.45,2.45,0,0,1-1.12.69.5.5,0,0,0,.07.53,1.11,1.11,0,0,0,1,.15,1.3,1.3,0,0,0,1-.74s0,0,0,0A.89.89,0,0,1,33.38,29Zm-1.85,1.25a.66.66,0,0,1-.33-.2.61.61,0,0,1-.13-.58l-.22,0s0,0,0,0a4.33,4.33,0,0,1-1.08.77.65.65,0,0,0,0,.56.56.56,0,0,0,.48.18A2.12,2.12,0,0,0,31.53,30.29ZM29.76,28.8H29.6a.7.7,0,0,1-.55-.18.39.39,0,0,1-.1-.27,3.13,3.13,0,0,1-1.27.46c-.08.48,0,.77.33.84A2.14,2.14,0,0,0,29.76,28.8ZM29,28.16a1,1,0,0,1,.07-.2,1.48,1.48,0,0,1-.42.07h0a.76.76,0,0,1-.63-.25.61.61,0,0,1-.09-.43h-.2a1.67,1.67,0,0,1-.87.61.59.59,0,0,0,.24.6C27.38,28.75,28,28.75,29,28.16Zm-3-.26a1.83,1.83,0,0,0,1.56-.6.16.16,0,0,1-.09,0,.65.65,0,0,1-.44-.68l-.2,0-.22,0a2.23,2.23,0,0,1-.93.5C25.59,27.54,25.69,27.82,26,27.9Zm-4-4,.1-.15H22c-.51,0-.87-.23-1-.48,0,0,0-.06,0-.09a3.6,3.6,0,0,1-.67.06l-.45,0a.75.75,0,0,0,.28.84,1.87,1.87,0,0,0,1.8-.15Zm-3.56-2.07a3,3,0,0,0,2,.31v0a.63.63,0,0,1,.19-.47,1.48,1.48,0,0,1-.63-.24h0s-.22,0-.51,0a4.18,4.18,0,0,1-1-.11C18.2,21.62,18.35,21.76,18.39,21.81Zm1.75-1.25a1.76,1.76,0,0,0,1.51.05.7.7,0,0,1,.11-.67,2.23,2.23,0,0,1-.54.06A2.67,2.67,0,0,1,20,19.72h0a.37.37,0,0,0-.3.28C19.66,20.21,19.81,20.41,20.14,20.56Zm-.66-1.4a.51.51,0,0,1,0-.37.63.63,0,0,1,.16-.23,5,5,0,0,1-1.7-1.06.48.48,0,0,0-.33.16h0a.59.59,0,0,0-.05.47C17.67,18.63,18.88,19,19.48,19.16Zm-1.71-2.22c.15.7,1.78,1.49,2,1.5h0l.09,0a.2.2,0,0,1,0-.08.6.6,0,0,1,0-.57h0c-.34-.15-1.53-.73-1.74-1.39C17.85,16.53,17.73,16.71,17.77,16.94Zm.49-.82c-.06.61,1.21,1.29,1.74,1.52a1.08,1.08,0,0,1,.48-.15l0-.12a3.93,3.93,0,0,1-1.78-1.45l0-.07a.4.4,0,0,0-.25.05A.27.27,0,0,0,18.26,16.12Zm.6-.88a.57.57,0,0,0-.06.62,3.71,3.71,0,0,0,1.65,1.34.38.38,0,0,1,.09-.25.51.51,0,0,1,.23-.15,2.74,2.74,0,0,1-1.37-1.73A.54.54,0,0,0,18.86,15.24Zm.69-.48c-.08.47.25,1.28,1.43,2h.17a.63.63,0,0,1,.12-.34l.06-.06a3.77,3.77,0,0,1-.94-1.58c-.18-.27-.4-.42-.58-.38l-.09,0,0,0h0A.47.47,0,0,0,19.55,14.76Zm1.32-.91c-.16,0-.36.05-.38.37a3.15,3.15,0,0,0,1,2.06,1.11,1.11,0,0,1,.6,0,.86.86,0,0,1,.06-.23,6.61,6.61,0,0,1-.82-1.92.08.08,0,0,1,0,0C21.29,14,21.09,13.85,20.87,13.85Zm2,3.86a.57.57,0,0,0-.48.32.53.53,0,0,0,.15.59c.45.49,1.82.61,1.84.62h0a.84.84,0,0,1,.28-.18.62.62,0,0,1-.15-.37A1.92,1.92,0,0,1,22.83,17.71Zm1.9,1.47a.65.65,0,0,0-.41.37.51.51,0,0,0,.17.53,1.79,1.79,0,0,0,1.44.38.93.93,0,0,1,.29-.46.67.67,0,0,1-.13-.27A2.44,2.44,0,0,1,24.73,19.18Zm6.94,2.93a1.31,1.31,0,0,1-.91.33,3.16,3.16,0,0,1-.32,0,.4.4,0,0,0,0,.42.72.72,0,0,0,.69.18,1.19,1.19,0,0,0,.94-.7Zm.5.27a1.26,1.26,0,0,1-.9.74.4.4,0,0,0,.12.42,1,1,0,0,0,.94-.16.76.76,0,0,0,.44-.64Zm.75.45a1,1,0,0,1-.51.68l-.11.06c0,.3.19.44.43.41a1.08,1.08,0,0,0,.82-.71C33.34,23.11,33.12,23,32.92,22.83Zm.76.53A1.19,1.19,0,0,1,33,24h0a.33.33,0,0,0-.07.23c0,.06.07.12.17.17a.64.64,0,0,0,.6-.09,1,1,0,0,0,.47-.6Zm.65.51a1.31,1.31,0,0,1-.52.62l-.12.06a.44.44,0,0,0,.07.43.48.48,0,0,0,.46.08,1,1,0,0,0,.61-.75Zm.62.56a1.16,1.16,0,0,1-.56.72.35.35,0,0,0,.24.46.77.77,0,0,0,.88-.58C35.33,24.82,35.14,24.62,35,24.43Zm.67.73a1,1,0,0,1-.67.59c0,.17,0,.28.14.33a.65.65,0,0,0,.6-.11c.17-.1.29-.23.3-.33S35.75,25.31,35.62,25.16Zm.47.63a1,1,0,0,1-.32.31,1.07,1.07,0,0,1-.52.17l-.12,0a.34.34,0,0,0,.24.41.78.78,0,0,0,.89-.58A2.75,2.75,0,0,0,36.09,25.79Zm.26.45a1,1,0,0,1-.83.59h-.11a.35.35,0,0,0,.24.47.8.8,0,0,0,.9-.63h0C36.49,26.52,36.42,26.38,36.35,26.24Zm.31.69,0-.07a1.06,1.06,0,0,1-.59.56s0,0,0,0a.52.52,0,0,0-.16.48.22.22,0,0,0,.22.16c.34,0,.68-.42.76-.54A4.37,4.37,0,0,0,36.66,26.93Zm-.72,1.28-.11-.05a1.07,1.07,0,0,1-.63.23c-.1.19-.1.32,0,.39a.77.77,0,0,0,.72-.08C35.86,28.62,35.79,28.47,35.94,28.21Zm-1.71.63a.8.8,0,0,0,.82,0,.39.39,0,0,1,0-.45l-.14-.05a.44.44,0,0,1-.19-.46,1.28,1.28,0,0,1-.53.3.88.88,0,0,1,0,.15A.41.41,0,0,0,34.23,28.84ZM34,28.26a.14.14,0,0,1,0-.06h-.17a.56.56,0,0,1-.51-.6h-.11a1.22,1.22,0,0,1-.69.76.65.65,0,0,0,.05.59.49.49,0,0,0,.48.05A1.58,1.58,0,0,0,34,28.26Zm-1.62.16-.12,0-.2,0a.66.66,0,0,1-.55-.23.5.5,0,0,1-.08-.26,2,2,0,0,1-.88.61,3.2,3.2,0,0,1-.55.17.53.53,0,0,0,.36.63,2.2,2.2,0,0,0,2-.88,0,0,0,0,0,0,0A.64.64,0,0,0,32.38,28.42ZM29,26.6a.65.65,0,0,1-.58-.46,3.7,3.7,0,0,1-1.25.44.51.51,0,0,0,.34.56A1.35,1.35,0,0,0,29,26.6Zm-.55-.66a.85.85,0,0,1-.23,0,.8.8,0,0,1-.3-.06.55.55,0,0,1-.38-.38.28.28,0,0,1,0-.09,2.36,2.36,0,0,1-1.27.39c-.09.3,0,.49.21.58A2.81,2.81,0,0,0,28.45,25.94Zm-.86-.76s0-.05,0-.07a1.74,1.74,0,0,1-.45.06.83.83,0,0,1-.46-.11.47.47,0,0,1-.2-.42,1.55,1.55,0,0,1-1,.45.4.4,0,0,0,.24.51A2,2,0,0,0,27.59,25.18ZM25.29,25a1.42,1.42,0,0,0,1.15-.46,1.18,1.18,0,0,1-.42-.16.55.55,0,0,1-.27-.47,2.47,2.47,0,0,1-.66.3l-.16,0c-.17.21-.23.39-.17.52A.59.59,0,0,0,25.29,25Zm-1.56-1.77c-.5,0-.65-.28-.69-.39a.48.48,0,0,1,0-.29,4.92,4.92,0,0,1-1.3.19l-.4,0q-.26.3-.18.51c.08.2.39.35.85.39A2.43,2.43,0,0,0,23.73,23.18Zm-2.66-.71a4.11,4.11,0,0,0,2-.15l.09-.12-.11,0c-.53-.09-.64-.36-.67-.51v-.05a4.12,4.12,0,0,1-.93.09,5.22,5.22,0,0,1-.69,0,.49.49,0,0,0-.23.41C20.56,22.26,20.74,22.4,21.07,22.47Zm.85-1.72a2.71,2.71,0,0,0,2.36.29.47.47,0,0,1-.11-.37.55.55,0,0,1,.3-.41s0,0,0-.05a4.81,4.81,0,0,1-1,.11A2,2,0,0,1,22,19.89C21.71,20.23,21.68,20.53,21.92,20.75Zm0-2a2.37,2.37,0,0,1-1.41-1.11v0a.73.73,0,0,0-.53.21.43.43,0,0,0,0,.43c.23.57,1.55.73,1.76.75l0-.07A.75.75,0,0,1,22,18.77ZM20.65,17c-.09.12-.08.31,0,.56a2.32,2.32,0,0,0,1.42,1.06.7.7,0,0,1,.19-.06A.61.61,0,0,1,22.2,18a1.35,1.35,0,0,1-1-.83,1.14,1.14,0,0,1-.08-.27A.6.6,0,0,0,20.65,17ZM22,19.73c.47.59,1.82.45,2.27.36a.62.62,0,0,1-.12-.58.42.42,0,0,1,.06-.14,3.58,3.58,0,0,1-1.83-.63.58.58,0,0,0-.5.3A.58.58,0,0,0,22,19.73Zm3.57.9a1.82,1.82,0,0,1-1-.27.42.42,0,0,0-.28.33c0,.18.1.34.35.45a3.38,3.38,0,0,0,1.68,0,.75.75,0,0,1-.36-.31.4.4,0,0,1-.07-.2Zm2.51.68a3.58,3.58,0,0,1-.58.05,3.12,3.12,0,0,1-.93-.13c-.27.26-.33.48-.18.64a.81.81,0,0,0,.37.2h0A2,2,0,0,0,28.18,22h0A.48.48,0,0,1,28.11,21.31Zm1.08,1.76a1.27,1.27,0,0,1-.28,0,.26.26,0,0,0,0,.26,1,1,0,0,0,.94.2.84.84,0,0,0,.64-.42.49.49,0,0,1-.22-.18.39.39,0,0,1-.05-.13A1.73,1.73,0,0,1,29.19,23.07Zm6.62,4.39h0a.58.58,0,0,1-.19,0,.47.47,0,0,1-.28-.21,1,1,0,0,1-.3.14.92.92,0,0,1-.09.23v0c-.08.21-.13.48,0,.58a.79.79,0,0,0,.76-.16l0-.07A.63.63,0,0,1,35.81,27.46Zm-1-.06a1.24,1.24,0,0,1-.27,0,.78.78,0,0,1-.39-.09.35.35,0,0,1-.12-.1,1,1,0,0,1-.59.33.43.43,0,0,0,.39.48A1,1,0,0,0,34.85,27.4Zm-1.77.17a.48.48,0,0,1-.35-.49.59.59,0,0,1-.29.07.86.86,0,0,1-.27,0,.92.92,0,0,1-.48.49h0c-.13.23-.15.42-.06.55a.62.62,0,0,0,.61.15A1.1,1.1,0,0,0,33.08,27.57Zm-2.41-.92a1,1,0,0,0,.17-.33.82.82,0,0,1,0-.28,1.12,1.12,0,0,1-.42.1h-.12a.35.35,0,0,1-.16-.06.87.87,0,0,1-.66.49.54.54,0,0,0,.48.38.78.78,0,0,0,.69-.25h0A.08.08,0,0,1,30.67,26.65ZM30,26a.64.64,0,0,1-.13-.34,1.55,1.55,0,0,1-.29,0,.93.93,0,0,1-.25,0,.46.46,0,0,1-.14-.09,1.84,1.84,0,0,1-.4.28.73.73,0,0,1-.23.24c.07.38.45.41.62.41C29.54,26.45,30,26.23,30,26Zm-4.56-3.44h0a1.15,1.15,0,0,1-.7-.33.54.54,0,0,1-.11-.24,2.9,2.9,0,0,1-1.18.28h-.1a1.15,1.15,0,0,0-.14.17.09.09,0,0,1,0,.06.37.37,0,0,0,0,.29c.07.22.35.33.77.31A2.4,2.4,0,0,0,25.43,22.52Zm-.57-.44a1.61,1.61,0,0,0,1.76.08.86.86,0,0,1-.31-.19c-.11-.11-.23-.35.06-.7a4.3,4.3,0,0,1-1,.12l-.32,0C24.86,21.56,24.66,21.84,24.86,22.08Zm.54.93a.47.47,0,0,0,.36.3,1.09,1.09,0,0,0,1-.23.5.5,0,0,1,0-.24h0a.53.53,0,0,1-.35-.42,2.06,2.06,0,0,1-.7.12h-.11C25.45,22.71,25.37,22.87,25.4,23Zm.7,1.19a1,1,0,0,0,1.2-.07.57.57,0,0,1,0-.51.87.87,0,0,1-.27-.14.69.69,0,0,1-.18-.24,1.23,1.23,0,0,1-.77.26h0a.44.44,0,0,1-.12.19v0A.38.38,0,0,0,26.1,24.2Zm2.69-.81a1.84,1.84,0,0,1-1,.31,2,2,0,0,1-.35,0c-.08.23-.05.38.11.48A1.55,1.55,0,0,0,29,23.87a.45.45,0,0,1,0-.29.52.52,0,0,1-.25-.18ZM31,24.75a1.72,1.72,0,0,1-1,.83c0,.24.11.38.3.41a1.59,1.59,0,0,0,1.32-1,.54.54,0,0,1-.42-.34Zm.77.27h0A2,2,0,0,1,31,26c0,.25,0,.43.13.52a.69.69,0,0,0,.72-.07,1,1,0,0,0,.58-.84h0a.63.63,0,0,1-.27-.06.55.55,0,0,1-.27-.49Zm1.48,1.07h-.16a.65.65,0,0,1-.29-.06.51.51,0,0,1-.27-.34,1.26,1.26,0,0,1-.56.78h0a.26.26,0,0,0,.06.38.51.51,0,0,0,.7,0,2,2,0,0,0,.51-.72A.13.13,0,0,1,33.27,26.09Zm-2.43-1.31h-.05a.59.59,0,0,1-.59-.5,2.75,2.75,0,0,1-.93.69h0c-.1.27-.07.44.11.51A1.54,1.54,0,0,0,30.84,24.78Zm-.76-.59-.21,0h-.15a.79.79,0,0,1-.64-.21,1.78,1.78,0,0,1-.81.35h0c-.1.15-.24.43-.06.56S29.47,24.89,30.08,24.19Zm-3.29.75a1.59,1.59,0,0,0,1.2-.11.61.61,0,0,1,.1-.45H28a1.09,1.09,0,0,1-.5-.11l-.06,0a1.15,1.15,0,0,1-.73.27A.39.39,0,0,0,26.79,24.94Zm.89.56a.44.44,0,0,0,.29.27c.47.2,1-.27,1.13-.36a.51.51,0,0,1,0-.37,1.79,1.79,0,0,1-.57.11.7.7,0,0,1-.4-.11.2.2,0,0,1-.08-.08l-.22.09a.75.75,0,0,0-.1.17s0,0,0,0h0A.43.43,0,0,0,27.68,25.5Zm3.08,1.94a.63.63,0,0,0,.65.1A.88.88,0,0,0,32,27L32,27a.45.45,0,0,1-.17-.39,1,1,0,0,1-.44.1.52.52,0,0,1-.33-.1.38.38,0,0,1-.09-.09,1.64,1.64,0,0,1-.16.26C30.64,27.07,30.64,27.31,30.76,27.44ZM34,27.08a.62.62,0,0,1,0-.29h-.14a.77.77,0,0,1-.27,0,.5.5,0,0,1-.34-.31,2.06,2.06,0,0,1-.4.51c0,.27.06.43.26.48A.87.87,0,0,0,34,27.08Zm1.27-.3a.49.49,0,0,1-.28-.59h0a1.18,1.18,0,0,1-.79.57.46.46,0,0,0-.05.29v0a.19.19,0,0,0,.1.13,1.13,1.13,0,0,0,1-.13A.62.62,0,0,1,35.27,26.78Zm-.5-1-.19,0a.51.51,0,0,1-.32-.29,1.4,1.4,0,0,1-.32.33,2,2,0,0,1-.5.25,1,1,0,0,1,0,.14.37.37,0,0,0,.27.43,1.1,1.1,0,0,0,1.21-.55h0a.56.56,0,0,1-.07-.29Zm-.56-.57-.16,0a.55.55,0,0,1-.4-.15.48.48,0,0,1-.1-.17,1.42,1.42,0,0,1-.41.4,2.15,2.15,0,0,1-.46.21.44.44,0,0,0,.2.39,1.13,1.13,0,0,0,1-.23A.81.81,0,0,0,34.21,25.21Zm-.7-.59-.18,0a.63.63,0,0,1-.27-.06.41.41,0,0,1-.23-.24A1.32,1.32,0,0,1,32,25v0a.39.39,0,0,0,.19.36,1,1,0,0,0,.86-.19A.86.86,0,0,0,33.51,24.62Zm-.78-.49h0c-.17,0-.44-.07-.52-.5h0a1.61,1.61,0,0,1-.8,1,.45.45,0,0,0,.55.26C32.28,24.79,32.71,24.45,32.73,24.13ZM32,23.7a1.33,1.33,0,0,1-.34.05.54.54,0,0,1-.34-.09l-.1-.08a1.57,1.57,0,0,1-.9.56c.08.35.25.52.54.49A1.71,1.71,0,0,0,32,23.7Zm-.87-.54h-.2a1.12,1.12,0,0,1-.27,0,.93.93,0,0,1-.76.52l-.3,0a1.29,1.29,0,0,1-.4-.05.29.29,0,0,0,0,.27c.09.13.35.19.68.17a1.64,1.64,0,0,0,1.28-.65A.71.71,0,0,1,31.12,23.16ZM28.76,23a1.08,1.08,0,0,1-.53-.22l-.08-.07a2,2,0,0,1-.85.18,1.22,1.22,0,0,1-.34,0,.4.4,0,0,0,.15.48,1.42,1.42,0,0,0,1.62-.12A.41.41,0,0,1,28.76,23Zm-.65-.84a2,2,0,0,1-.69.1,2.51,2.51,0,0,1-.62-.07.82.82,0,0,1-.2.12.4.4,0,0,0,.26.36,1.74,1.74,0,0,0,1.22-.09A.46.46,0,0,1,28.11,22.19Zm-5.57-.54c0,.19.23.33.55.39a2.62,2.62,0,0,0,1.55-.27.87.87,0,0,1,.25-.42,1.36,1.36,0,0,1-.28-.08.91.91,0,0,1-.22-.12,1.69,1.69,0,0,1-.91.19,3.19,3.19,0,0,1-.75-.08h0A.37.37,0,0,0,22.54,21.65ZM24,23.92a1.11,1.11,0,0,0,1.07.09,1.42,1.42,0,0,0,.85-.52l-.18,0a.6.6,0,0,1-.47-.4.47.47,0,0,1,0-.23,3,3,0,0,1-1.27.36C23.86,23.51,23.85,23.77,24,23.92Zm4.13,3.77a.61.61,0,0,0,.51.19h0a2.19,2.19,0,0,0,1.42-.79h-.13a.65.65,0,0,1-.6-.49h-.14a1.63,1.63,0,0,1-1.13.74A.47.47,0,0,0,28.11,27.69Zm1.05.83c.17.2.75.17,1.33-.06s.86-.51.9-.76l-.26,0a.57.57,0,0,1-.58-.79.77.77,0,0,1-.28.12,3,3,0,0,1-1,.82C29.14,28.09,29,28.36,29.16,28.52Zm1.13-6.15h0a1.08,1.08,0,0,1-.37-.2,1.26,1.26,0,0,1-.61.1,2.37,2.37,0,0,1-.93-.17c-.19.25-.2.46,0,.61a1.77,1.77,0,0,0,1.9-.11A.7.7,0,0,1,30.29,22.37ZM30,21.29a4.36,4.36,0,0,1-1,.16,1.23,1.23,0,0,1-.65-.15c-.26.36-.09.51,0,.56a2.09,2.09,0,0,0,1.52.2.52.52,0,0,1-.1-.23C29.65,21.7,29.7,21.5,30,21.29Zm-1.85-.14h0a.82.82,0,0,1-.15-.46.88.88,0,0,1-.24,0,2.17,2.17,0,0,1-.91-.24,2.08,2.08,0,0,1-.51-.37q-.36.36-.21.63C26.36,21.15,27.44,21.31,28.14,21.15Zm-5.4-3.71a1.25,1.25,0,0,1-.69-1h0c-.31-.06-.54,0-.65.12a.59.59,0,0,0,0,.6,1.22,1.22,0,0,0,.9.75.74.74,0,0,1,.51-.31.37.37,0,0,1,0-.11Zm-2.92,2a2.32,2.32,0,0,0,2,.34.74.74,0,0,1-.15-.58A3.12,3.12,0,0,1,20,18.55a.49.49,0,0,0-.37.29A.52.52,0,0,0,19.82,19.41ZM20,21.19c.08.15.39.26.78.33h.05a4.3,4.3,0,0,0,1.62-.06.51.51,0,0,1,.13-.24,1.74,1.74,0,0,1-.72-.36.4.4,0,0,1-.1-.12,1.55,1.55,0,0,1-.73.16,2.06,2.06,0,0,1-.77-.15C20.05,20.88,19.89,21.05,20,21.19Zm-1,1.47c0,.11.14.26.46.31A4.14,4.14,0,0,0,21,23a1,1,0,0,1,.17-.36l-.11,0a.89.89,0,0,1-.6-.36h0a2.12,2.12,0,0,1-.53.05,4.81,4.81,0,0,1-.74-.06h0a.08.08,0,0,0-.08,0A.34.34,0,0,0,19,22.66Zm3.17,1.74a2.38,2.38,0,0,0,2.36-.16.75.75,0,0,1-.62-.23.68.68,0,0,1-.08-.68,2.51,2.51,0,0,1-1.48.41h-.08C22,24,22,24.24,22.13,24.4Zm.7,1a.94.94,0,0,0,.66.13l.06,0h.08a2.87,2.87,0,0,0,1.23-.5.45.45,0,0,1-.23-.22.57.57,0,0,1,.09-.55,2.42,2.42,0,0,1-1.66.56h-.22C22.69,25.07,22.68,25.27,22.83,25.39ZM24,26.2a1.58,1.58,0,0,0,1.68-.49.52.52,0,0,1-.3-.61h-.06l-.27,0a3,3,0,0,1-1.34.58A.43.43,0,0,0,24,26.2Zm1,.71a1.56,1.56,0,0,0,1.5-.36h0c-.17-.06-.43-.24-.31-.72a1.54,1.54,0,0,1-.31-.05,1.5,1.5,0,0,1-1.13.63A.47.47,0,0,0,24.92,26.91ZM28.56,30c0,.08.08.16.21.22a1.05,1.05,0,0,0,.9,0h0a3.82,3.82,0,0,0,.94-.65,1.36,1.36,0,0,1-.3,0,.62.62,0,0,1-.46-.6,2.32,2.32,0,0,1-1.18.8s0,0,0,0A.33.33,0,0,0,28.56,30Zm7.36-1.15a1,1,0,0,1-.45.1.78.78,0,0,1-.22,0c-.14.13-.2.26-.17.35a.37.37,0,0,0,.3.2.57.57,0,0,0,.39-.07.62.62,0,0,1,.14-.14A.34.34,0,0,1,35.92,28.88Zm1-.38a4.71,4.71,0,0,0,0-.75,1.15,1.15,0,0,1-.77.49c-.09.13-.15.28,0,.37A.79.79,0,0,0,36.91,28.5Zm-.1-1.59c3.07-7.47.21-11.85-.12-12.32a1.32,1.32,0,0,1-.66.2.85.85,0,0,1-.6-.23c-.38-.36-.35-1,.06-1.84l-.07,0a3.08,3.08,0,0,0-.79,2.17c-.16,1.22-.33,2.6-1.74,3.38a4.37,4.37,0,0,1-.24,4.18l.21.13,0,0,.75.5,0,0,.62.48a.05.05,0,0,1,0,0c.2.16.4.34.59.52,0,0,0,0,0,0a7.39,7.39,0,0,1,.67.7l0,0c.15.19.3.38.44.58l0,0c.09.13.17.27.25.41a.05.05,0,0,1,0,.06,4.71,4.71,0,0,1,.38.82ZM30.74,18a1.43,1.43,0,0,1,1.5.45c.52.75.1,2.07-1,3.23l.47.24s0,0,0,0l.46.24h0l0,0,.33.19c.85-1.59.86-3.5,0-4.28A1.56,1.56,0,0,0,30.74,18Zm-.94,3.16c-.4-.21-.86-.45-1.33-.72a.1.1,0,0,1,0,0c-.12,0-.24.07-.28.16s0,.22.12.4C28.48,21.42,29.33,21.3,29.8,21.19Zm-1.48-.81c-.56-.32-1.15-.68-1.73-1.08h0c-.22.09-.34.21-.34.35s.25.49.66.69a1.24,1.24,0,0,0,1.21.13h0A.71.71,0,0,1,28.32,20.38ZM26.45,19.2c-.39-.28-.79-.58-1.16-.9a.63.63,0,0,0-.61.22.39.39,0,0,0,.07.46,2.19,2.19,0,0,0,1.35.6C26.12,19.46,26.21,19.32,26.45,19.2Zm-1.34-1.06a11,11,0,0,1-1.22-1.24h0c-.6,0-.94.21-.94.52,0,.48.75,1.09,1.59,1.11l.05-.1A.77.77,0,0,1,25.11,18.14Zm-1.33-1.37c-.16-.21-.31-.41-.45-.63h0c-.31-.28-.61-.38-.83-.28a.5.5,0,0,0-.28.47,1.07,1.07,0,0,0,.58,1C22.84,17.08,23.05,16.8,23.78,16.77Zm-.65-.95a6,6,0,0,1-.6-1.44,4.17,4.17,0,0,1-.1-.6.09.09,0,0,1,0-.06c0-.07-.11-.17-.29-.22a.55.55,0,0,0-.64.22c-.22.37.42,1.61.74,2.16a.65.65,0,0,1,.21-.16A.81.81,0,0,1,23.13,15.82Zm.54-6c.65-1.16.55-1.93.23-2.26a.91.91,0,0,0-1.09-.08c-.23.12-2.24,1.31-1.42,6.13a.69.69,0,0,1,.76-.23.58.58,0,0,1,.25.12A5.68,5.68,0,0,1,23.67,9.8ZM22.38,7.58c0-.1-.08-.85-.66-.85a1.68,1.68,0,0,0-1.41.88,6.51,6.51,0,0,0-.4,3.65,12.74,12.74,0,0,0,.54,2.62.5.5,0,0,1,.43-.18.71.71,0,0,1,.4.13C20.65,10.38,21.41,8.38,22.38,7.58Zm-1.83-.5C20,6.61,19.46,6.52,19,6.82c-.94.62-1.3,2.78-.92,4a14.88,14.88,0,0,0,1.59,3.45l.1,0a.62.62,0,0,1,.57.23,1.31,1.31,0,0,1,0-.28.4.4,0,0,1,0-.15c-.32-.7-1.26-4.68-.18-6.53A1.62,1.62,0,0,1,20.55,7.08Zm-2.19.27a1.5,1.5,0,0,0-1.72.74c-.82,1.65.75,5.53,2.18,7a.69.69,0,0,1,.57-.15,1.15,1.15,0,0,1,0-.19.68.68,0,0,1,.16-.34A15.16,15.16,0,0,1,18,10.89,4.82,4.82,0,0,1,18.36,7.35ZM16.52,8a1.38,1.38,0,0,0-1,.38,2.32,2.32,0,0,0-.41,1.88v0c0,.17,0,.35.08.54.45,2.41,3,4.64,3.27,4.9a.39.39,0,0,1,.15,0,.67.67,0,0,1,.12-.52C17.26,13.71,15.63,9.79,16.51,8ZM15,10.38c-.57.26-.88.61-.91,1-.15,1.68,3.42,4.19,4.07,4.63a.39.39,0,0,1,.18-.27c-.47-.42-2.83-2.59-3.27-4.94C15,10.69,15,10.53,15,10.38Zm-.87,1.94a1.39,1.39,0,0,0-.68.81,1.24,1.24,0,0,0,.37,1.08,12.43,12.43,0,0,0,3.86,2.47.9.9,0,0,1,.45-.46,20.93,20.93,0,0,1-2.2-1.71A7.2,7.2,0,0,1,14.09,12.32Zm-.49,1.9c-.44.32-.63.65-.58,1s.44.72,1,1h0l0,0a16.56,16.56,0,0,0,3.05,1.17l.43.13a.62.62,0,0,1,.31-.16,1.07,1.07,0,0,1-.2-.4.62.62,0,0,1,0-.13,12.94,12.94,0,0,1-4-2.53Zm0,2.22a.77.77,0,0,0-.23.72c.06.22.26.52.9.68a16.07,16.07,0,0,0,3.14.37s0,0,0-.05a.69.69,0,0,1,0-.5l-.4-.12a15.52,15.52,0,0,1-3.11-1.2A.35.35,0,0,0,13.61,16.44Zm5.95,3.73a.43.43,0,0,1,0-.2.54.54,0,0,1,.28-.36l-.12-.09a.9.9,0,0,1-.16-.19,5.65,5.65,0,0,1-1.78-.7.52.52,0,0,0-.32.22.53.53,0,0,0,0,.44C17.74,19.88,19.21,20.12,19.56,20.17Zm-2.68,2.88c.12.18.49.25.93.25a.06.06,0,0,1,.06,0,8.92,8.92,0,0,0,1.6-.17h-.08a.65.65,0,0,1-.57-.42.49.49,0,0,1,.06-.45,5.66,5.66,0,0,1-1.73.25H17C16.83,22.74,16.79,22.92,16.88,23.05Zm1,1a.64.64,0,0,0,.58.25,7.58,7.58,0,0,0,1.58-.12.86.86,0,0,1-.35-.91,10.49,10.49,0,0,1-1.82.21A.71.71,0,0,0,17.89,24Zm3.9,1.05h0a1.91,1.91,0,0,0,.76-.31,1.22,1.22,0,0,1-.55-.24.47.47,0,0,1-.15-.41,2.36,2.36,0,0,1-1.05.25h0c-.2.16-.3.31-.28.44s.12.18.29.24A2,2,0,0,0,21.79,25.07Zm4.87,4.82a.93.93,0,0,0,1.17-.15c-.21-.11-.39-.36-.3-.92h-.06a2.5,2.5,0,0,1-.95.36h0A.53.53,0,0,0,26.66,29.89Zm.87,1a2.14,2.14,0,0,0,2-.05.85.85,0,0,1,0-.39,1.41,1.41,0,0,1-.44.08.88.88,0,0,1-.45-.11.47.47,0,0,1-.29-.33.59.59,0,0,1,.05-.27,1.24,1.24,0,0,1-.27,0,.65.65,0,0,1-.2,0,1.44,1.44,0,0,1-.5.33h0C27.31,30.44,27.33,30.68,27.53,30.85Zm4.84.09a.54.54,0,0,1-.16-.24.58.58,0,0,1,.06-.4,2.2,2.2,0,0,1-.36,0l-.22,0a3,3,0,0,1-.65.61.28.28,0,0,0,.06.14.44.44,0,0,0,.38,0h0A2.53,2.53,0,0,1,32.37,30.94Zm2.41-.06,0,0a.52.52,0,0,1,.32-.56H35a.59.59,0,0,1-.23,0,.5.5,0,0,1-.29-.57l-.08,0h0l0,0c-.43.11-.72.5-.69.75s.35.37.85.34h0A.85.85,0,0,1,34.78,30.88Zm1.77-.73a.87.87,0,0,0,.07-.17,1,1,0,0,1-.34.06.83.83,0,0,1-.46-.12,1.1,1.1,0,0,1-.42.28.23.23,0,0,0,.05.07,1.59,1.59,0,0,0,.95.2l.07-.14Zm.26-.83a1,1,0,0,1-.5.14.65.65,0,0,1-.29-.07.41.41,0,0,0-.1.09h0l0,0c-.07.07-.12.16-.07.24a.85.85,0,0,0,.85.06A2.85,2.85,0,0,0,36.81,29.32Zm.09-.63a1,1,0,0,1-.54.15l-.19,0c-.17.15-.22.29-.14.39s.46.17.82-.09A3,3,0,0,0,36.9,28.69Zm.09.52c2.23-4.89,3.83-9.28.15-15a1.65,1.65,0,0,1-.32.28c.38.54,3.23,5,.07,12.59l0,0a3.25,3.25,0,0,1,.11.42v0a4.3,4.3,0,0,1,.08.95v0A4.93,4.93,0,0,1,37,29.21ZM14.06,18.86a3.35,3.35,0,0,1,1,1.29,8.39,8.39,0,0,0,2.52.24.83.83,0,0,1,.37-.51,1.35,1.35,0,0,1-.58-.48h-.46a8.15,8.15,0,0,1-2.17-.28A3.3,3.3,0,0,1,14.06,18.86Zm1.07,1.46a2.17,2.17,0,0,1,.11.78,9.27,9.27,0,0,0,2.65,0,.66.66,0,0,1-.34-.57h-.4A8.3,8.3,0,0,1,15.13,20.32Zm-.08,1.48c-.69,1.39-2.85,2.16-4.15,2.26a3.41,3.41,0,0,0-3,2.15,2.05,2.05,0,0,0,.64,2.27l.18.1c.36.21.76.44,1.64-.42A7.59,7.59,0,0,1,20,26a1,1,0,0,1,.05-.52h-.22a2.19,2.19,0,0,1-.75-.12c-.27-.09-.41-.23-.43-.4s.1-.34.35-.52h-.49a.82.82,0,0,1-.71-.32.79.79,0,0,1,0-.65,1.37,1.37,0,0,1-.92-.26c-.17-.17-.17-.4,0-.7h-.09c-.77,0-1.06-.4-1.07-.72a.54.54,0,0,1,.18-.44l-.62-.08A1.59,1.59,0,0,1,15.05,21.8Zm5.39,4.52a2.55,2.55,0,0,0,1.74-.19.78.78,0,0,1-.56-.29.55.55,0,0,1,0-.6l-.3,0a1.89,1.89,0,0,1-.56-.08,1.18,1.18,0,0,1-.62.25C20,25.88,20.09,26.18,20.44,26.32Zm1.29,1.07a1.51,1.51,0,0,0,1.78-.27.85.85,0,0,1-.24-.09.79.79,0,0,1-.36-.94h0a2.42,2.42,0,0,1-.47.05h-.06a1.25,1.25,0,0,1-.67.32C21.43,26.86,21.44,27.19,21.73,27.39Zm1,.92a2.23,2.23,0,0,0,2-.27,1.18,1.18,0,0,1-.19-.11.89.89,0,0,1-.4-.8,1,1,0,0,1-.3,0l-.18,0a1.49,1.49,0,0,1-1,.55C22.5,28,22.53,28.18,22.75,28.31ZM24,29.45a2.1,2.1,0,0,0,1.79-.27.89.89,0,0,1-.45-.2.71.71,0,0,1-.18-.84.86.86,0,0,1-.28,0,1.84,1.84,0,0,1-1.1.46C23.61,29,23.68,29.3,24,29.45Zm1.15,1a1.62,1.62,0,0,0,2-.26h-.08a.87.87,0,0,1-.54-.17.65.65,0,0,1-.23-.8H26a1.63,1.63,0,0,1-1,.46h0A.58.58,0,0,0,25.16,30.44Zm1.35,1.44a2.76,2.76,0,0,0,2.21-.65h-.29a1.59,1.59,0,0,1-1-.27.61.61,0,0,1-.2-.63,2,2,0,0,1-1.11.49C26,31.39,26.13,31.74,26.51,31.88ZM13.73,41.31a3.77,3.77,0,0,1-1.56-2.38,1,1,0,0,1,.2-.59,1,1,0,0,0,0-1.34c-.2-.25-.43-.52-.68-.8-1.34-1.52-3-3.41-2.3-5.43a2.44,2.44,0,0,1-2.59-1.44C6,27.7,6.17,25,7.19,24l.1-.08a8.28,8.28,0,0,1,4.05-1.54c1.14-.22,1.88-.71,2-1.33a.93.93,0,0,0-.38-1,1.28,1.28,0,0,0-1.43,0A2.65,2.65,0,0,1,9,20.48a4.53,4.53,0,0,1-2.27-3.1,19.79,19.79,0,0,0,7,23.93Zm3.83,2.08a21.49,21.49,0,0,0,2.61.85l.27,0a2.44,2.44,0,0,0,1.39,0v0a1.27,1.27,0,0,0,.5-.9.43.43,0,0,0-.26-.34L22,43a2,2,0,0,1-1-.73.74.74,0,0,1-.05-.33c0-.16,0-.31-.13-.39s-.13-.08-1.07-.05h0c-1,0-3.3-2.54-3.42-2.75a0,0,0,0,1,0,0,.33.33,0,0,1-.41-.14.45.45,0,0,1,0-.51h0s0,0,0,0a13.33,13.33,0,0,0,2.52-3.93c.82-1.94.1-2.76-.81-3.79a6.07,6.07,0,0,1-1.73-3.24s-.12-.68.25-.74a.45.45,0,0,1,.52.35A6.83,6.83,0,0,0,19,30.05a3.83,3.83,0,0,1,.78,3.34c3.52,2.32,8.48,1.35,8.53,1.34a.09.09,0,0,1,.07,0s0,0,0,.07A11.74,11.74,0,0,0,28,37.18c0,.43-.07.89-.11,1.33-.09,1-.17,2-.17,2.39a.45.45,0,0,0,.14.35.68.68,0,0,0,.38.14l.15-.87a21.09,21.09,0,0,0,.3-3.38,8.8,8.8,0,0,1,.8-4.27,3,3,0,0,1-1,.17,2.11,2.11,0,0,1-.64-.09.7.7,0,0,1-.49-.91,3.44,3.44,0,0,1-.43,0,1.51,1.51,0,0,1-.44-.06c-.31-.11-.64-.41-.49-1.18h0a1.55,1.55,0,0,1-.9-.28.72.72,0,0,1-.3-.87h-.21a1.71,1.71,0,0,1-.62-.11c-.22-.11-.55-.37-.32-1h-.21a1.56,1.56,0,0,1-.73-.14.52.52,0,0,1-.21-.73H22.4a1.33,1.33,0,0,1-.76-.21c-.16-.11-.47-.42-.14-1a3.07,3.07,0,0,1-.53.05,1.72,1.72,0,0,1-.58-.09.74.74,0,0,1-.37-.3h0a7.46,7.46,0,0,0-9.56,2.11c-1,.94-1.44.67-1.82.45l-.18-.1h0a2.21,2.21,0,0,1-.69-2.44,3.58,3.58,0,0,1,3.16-2.25c1.23-.09,3.37-.86,4-2.18A1.75,1.75,0,0,0,15,20.31a3.27,3.27,0,0,0-1.72-1.77,2,2,0,0,0-1.3-.08,3,3,0,0,1-1.83-.15A2.7,2.7,0,0,1,8.64,16a1.29,1.29,0,0,0-.08-.36c-.29-.11-.45,0-.62.33h0a4.32,4.32,0,0,0,2,2.73.09.09,0,0,1,.05.1.08.08,0,0,1-.07.05h0a4.54,4.54,0,0,1-2.05-2.67.61.61,0,0,0,0,.12c0,.09-.09.18-.13.27h0A4.17,4.17,0,0,0,9.52,19a.08.08,0,0,1,0,.1s0,.05-.07.05h0a4.18,4.18,0,0,1-1.91-2.44.63.63,0,0,1-.17.19.12.12,0,0,1-.07.05,4.9,4.9,0,0,0,1.83,2.47.08.08,0,0,1,0,.11.07.07,0,0,1-.06,0l0,0A4.92,4.92,0,0,1,7.16,17l0,0H7.05a.12.12,0,0,0-.11,0,.46.46,0,0,0-.07.31,4.36,4.36,0,0,0,2.19,3A2.48,2.48,0,0,0,11.47,20a1.45,1.45,0,0,1,1.6,0,1.07,1.07,0,0,1,.43,1.12c-.15.68-.93,1.21-2.14,1.44a8.25,8.25,0,0,0-4,1.52l-.09.07c-1,.95-1.16,3.54-.36,5.12a2.29,2.29,0,0,0,2.55,1.35.06.06,0,0,1,.07,0,.08.08,0,0,1,0,.08c-.77,2,.89,3.87,2.23,5.39.25.29.49.56.69.81a1.21,1.21,0,0,1,0,1.51.89.89,0,0,0-.19.5C12.45,40.72,15.27,42.41,17.56,43.39Zm4-2.27a.4.4,0,0,0,0-.32c-.09-.16-.38-.24-.78-.34A7.61,7.61,0,0,1,17,38.28c-.2.16-.41.33-.48.4.27.38,2.45,2.66,3.28,2.64,1,0,1.08,0,1.15.08a.53.53,0,0,1,.2.51.66.66,0,0,0,0,.26,1.92,1.92,0,0,0,.92.66l.09,0a.56.56,0,0,1,.34.45,1.26,1.26,0,0,1-.33.82L22.4,44c.55-.25.88-.6.9-1a.8.8,0,0,0-.44-.71c-.25-.16-.46-.27-.64-.38C21.7,41.7,21.42,41.54,21.55,41.12ZM25,44.83a19.77,19.77,0,0,0,6.28-1H31A3.74,3.74,0,0,1,28.68,43h0l-.17-.15c-.33-.29-.42-.4-.3-1.27a.71.71,0,0,1-.46-.17.65.65,0,0,1-.19-.46c0-.41.08-1.38.17-2.41,0-.44.08-.89.12-1.32a13,13,0,0,1,.39-2.27c-.78.13-5.21.76-8.47-1.36a10.52,10.52,0,0,1-2.7,4.64,7.48,7.48,0,0,0,3.75,2.13c.45.12.75.2.87.41a.58.58,0,0,1,0,.45c-.09.29.06.39.6.69l.65.39a.94.94,0,0,1,.51.84c0,.41-.39.8-1,1.08a3.5,3.5,0,0,1-1.07.33A19.44,19.44,0,0,0,25,44.83ZM43.09,33.15c.06-.15.13-.3.19-.44q.19-.45.36-.9c.11-.31.21-.62.31-.93a19.58,19.58,0,0,0,.49-1.9c.11-.55.2-1.12.27-1.69a.46.46,0,0,1-.23.15.39.39,0,0,1-.29-.08A2.61,2.61,0,0,1,44,28.71a1,1,0,0,1-.8.65c-.28.07-1,.35-1.89.7a37.23,37.23,0,0,1-6,2h-.09a2.58,2.58,0,0,1-.92,0c-.07,1.41-1.06,3.5-1.93,5.35-.35.75-.69,1.45-.92,2a3.7,3.7,0,0,0-.5,1.69.19.19,0,0,0,.08.11.76.76,0,0,0,.48-.08c.52-.21.86-.25,1.06-.14s.24.33.28.55.08.43.27.53a.41.41,0,0,1,.26.38.91.91,0,0,1-.36.62A20,20,0,0,0,43.09,33.15ZM44.9,23.08l3.26-.34c0-.49-.12-1-.19-1.45l-3.23.56C44.81,22.26,44.86,22.67,44.9,23.08Zm3-1.94c-.08-.49-.18-1-.29-1.44l-3.17.79c.09.4.17.81.24,1.22Zm-.32-1.58c-.12-.48-.25-.95-.39-1.42l-3.11,1q.18.59.33,1.2ZM47.18,18c-.15-.47-.31-.93-.49-1.39l-3,1.23c.14.38.28.77.41,1.17Zm-.54-1.52c-.18-.46-.38-.91-.59-1.35l-2.93,1.43c.18.37.34.75.49,1.14ZM46,15c-.22-.44-.44-.87-.68-1.3l-2.82,1.63a1.09,1.09,0,0,1,.08.15c.17.31.34.63.49,1Zm-.76-1.43c-.24-.43-.5-.85-.77-1.26l-2.69,1.82c.11.17.22.34.32.51l.33.56Zm-.85-1.38c-.27-.41-.55-.81-.85-1.2L41,13,41,13c.2.25.38.51.56.78l.12.18Zm-.94-1.32c-.3-.39-.61-.77-.94-1.14l-2.41,2.17.33.39c.16.19.31.39.46.58Zm-1-1.25c-.32-.36-.66-.72-1-1.07l-2.25,2.33.32.33.33.36.2.22ZM41.28,8.44c-.35-.35-.71-.68-1.08-1L38.12,9.92c.31.27.62.55.91.85ZM11,10.7,8.81,8.39c-.36.35-.7.71-1,1.08l2.39,2.14s0,0,.05,0c.21-.24.43-.47.66-.7ZM7.68,9.58q-.51.55-1,1.14l2.53,2,.33-.42.48-.56Zm-1,1.26c-.31.39-.6.79-.88,1.2l2.67,1.8v0c.18-.27.36-.53.56-.78,0-.08.11-.15.17-.23Zm-1,1.33c-.27.41-.54.83-.79,1.26L7.67,15l.24-.41c.13-.22.28-.45.42-.67Zm-.86,1.39c-.24.43-.48.87-.7,1.32L7,16.29c.13-.28.27-.55.42-.82l.16-.3ZM4.05,15c-.21.45-.41.9-.6,1.36l3,1.21c.16-.39.33-.78.51-1.16Zm-.66,1.5c-.18.46-.34.93-.5,1.4l3.07,1c.12-.4.27-.8.42-1.19Zm-.54,1.54c-.15.48-.28.95-.4,1.44l3.12.78c.1-.41.22-.82.34-1.22Zm-.44,1.58c-.11.48-.21,1-.3,1.46l3.18.56c.07-.42.15-.83.25-1.24Zm-.32,1.6c-.08.49-.15,1-.2,1.48l3.21.34c0-.43.1-.84.17-1.26Zm-.21,1.63c0,.49-.08,1-.09,1.48L5,24.45c0-.42,0-.84.07-1.26ZM1.8,26.12c0,.5.06,1,.12,1.48l3.22-.34c0-.41-.08-.83-.11-1.25Zm.14,1.63c.05.49.13,1,.21,1.46l3.2-.56c-.08-.41-.14-.82-.19-1.24Zm.24,1.61c.09.49.2,1,.32,1.44L5.65,30c-.1-.4-.2-.81-.28-1.22ZM2.54,31c.13.48.27.95.42,1.42l3.09-1q-.19-.59-.36-1.2ZM3,32.51c.16.47.33.93.52,1.38l3-1.22q-.24-.57-.45-1.17ZM3.59,34c.19.45.4.9.62,1.34L7.13,34c-.19-.38-.36-.75-.53-1.14Zm.68,1.47c.23.44.46.88.71,1.3L7.8,35.17c-.13-.22-.25-.44-.37-.66l-.23-.43Zm.79,1.43c.25.42.52.83.79,1.24l2.71-1.82-.13-.19c-.18-.27-.36-.54-.52-.81l0-.05Zm.88,1.36c.28.4.57.8.88,1.18l2.57-2c-.14-.17-.27-.34-.4-.52s-.24-.31-.35-.47Zm1,1.3c.31.38.63.75,1,1.12l2.43-2.19-.09-.1q-.33-.35-.63-.72l-.1-.12ZM8,40.81c.34.36.68.72,1,1l2.28-2.35-.41-.39c-.16-.16-.32-.32-.47-.49Zm31.9-2.44,2.42,2.17c.32-.36.64-.73.94-1.11l-2.56-2C40.41,37.75,40.15,38.06,39.87,38.37Zm3.45,1c.3-.38.59-.78.86-1.18l-2.7-1.82q-.34.51-.72,1Zm1-1.3q.4-.6.78-1.23l-2.83-1.63c-.2.35-.42.7-.65,1Zm.85-1.36c.25-.42.48-.84.7-1.28L42.88,34c-.18.37-.37.73-.58,1.08Zm.76-1.41c.22-.44.42-.88.61-1.33l-3-1.22c-.16.38-.33.75-.51,1.12Zm.66-1.47c.19-.45.36-.9.51-1.36l-3.1-1c-.13.39-.28.77-.43,1.15Zm.56-1.5c.15-.46.29-.93.41-1.4l-3.17-.79c-.1.39-.22.79-.35,1.18Zm.45-1.55c.12-.47.22-.94.32-1.42l-3.23-.57c-.07.4-.16.81-.26,1.2Zm.34-1.57c.09-.48.16-1,.22-1.45l-3.26-.34c0,.41-.1.82-.18,1.22Zm.24-1.59c0-.48.09-1,.11-1.46L45,26v.18q0,.53-.09,1.05ZM48.25,26c0-.31,0-.63,0-.95s0-.34,0-.51L45,24.61V25c0,.2,0,.4,0,.59a.88.88,0,0,1,0,.23Zm0-1.61c0-.49,0-1-.09-1.46l-3.26.34c0,.41.06.82.07,1.23ZM25,1.79A23.15,23.15,0,0,0,8.91,8.29l2.23,2.31A19.9,19.9,0,0,1,25,5h0A19.84,19.84,0,0,1,35.46,8a2.11,2.11,0,0,1,.34.22A18.48,18.48,0,0,1,38,9.82l2.08-2.48A23.15,23.15,0,0,0,25,1.79ZM9.11,42c.36.34.73.67,1.1,1l2.11-2.51c-.32-.26-.63-.54-.94-.82Zm29.81-2.6,2.26,2.34c.35-.34.68-.69,1-1.05l-2.42-2.17C39.5,38.78,39.21,39.07,38.92,39.36ZM12,44.29A23.21,23.21,0,0,0,41.07,41.8l-2.26-2.34A19.94,19.94,0,0,1,20,44.35a11.74,11.74,0,0,1-1.74-.54,20.22,20.22,0,0,1-4.37-2.23c-.49-.33-1-.68-1.43-1.06L10.33,43A20.58,20.58,0,0,0,12,44.29Zm2.11,0a.37.37,0,0,1-.4,0c-.32-.2-.29-.58-.1-.9s.45-.5.76-.31c.14.09.24.23.2.35l0,.12,0,0,.18-.3a1.28,1.28,0,0,0-.32-.28.77.77,0,0,0-1.12.25.75.75,0,0,0,.31,1.1,1.28,1.28,0,0,0,.4.17l.22-.24,0,0Zm1.52.76c0,.19,0,.22,0,.28l0,0v0l-.59-.29,0,0,.09,0c.09,0,.11,0,.14-.18l0-.24-.48-.24-.13.12c-.17.15-.18.2-.11.26l.07.06,0,0-.44-.22,0,0h.06c.07,0,.1,0,.26-.15l1-.87.18.09Zm-.13-1.17h0l-.15.16-.36.32.41.21.07-.48A.71.71,0,0,1,15.52,43.87Zm1.62.5-.64-.27,0,0,.07,0c.07.06.08.08,0,.25l-.35.86c-.07.17-.09.18-.18.17h-.09v0l.62.26,0,0-.07-.05c-.07-.06-.08-.08,0-.25l.42-1,.08,0c.19.08.3.2.21.43a.31.31,0,0,1-.45.17l-.05,0c0,.22.16.7.21.91l.41.17v0l0,0c-.05,0-.07-.1-.13-.29L17,45.12a.4.4,0,0,0,.49-.2C17.62,44.64,17.4,44.47,17.14,44.37Zm2.19,1.51a.82.82,0,0,1-1.08.49l-.7-.23v0h.09c.09,0,.11,0,.17-.18l.27-.89c.06-.17.05-.19,0-.24l-.07,0v0l.76.24C19.21,45.1,19.48,45.39,19.33,45.88ZM18.66,45,18.44,45l-.33,1c-.06.2,0,.23.05.25l.07,0A.58.58,0,0,0,19,45.8C19.12,45.42,19,45.13,18.66,45ZM20.81,47l.05,0v0l-.64-.15v0h.09c.09,0,.11,0,.09-.22l0-.24-.52-.12-.1.15c-.12.19-.13.24,0,.29l.08,0v0l-.48-.11v0h.06c.07,0,.09,0,.22-.21l.75-1.08.19,0,.18,1.31C20.73,46.9,20.75,46.93,20.81,47Zm-.45-.68-.05-.47a1.48,1.48,0,0,1,0-.22h0a1.6,1.6,0,0,1-.11.19l-.27.4Zm2-.5.12,0c.09,0,.11.08.05.55l-.05.34s0,.12,0,.17h0a.83.83,0,0,0-.09-.2l-.57-1-.49-.07v0l.12,0c.08,0,.1,0,.08.24l-.1.71c-.06.37-.08.4-.17.41h-.08v0l.56.08v0l-.11,0c-.1,0-.12-.08-.05-.55l.06-.44c0-.05,0-.12,0-.15h0a1.12,1.12,0,0,0,.08.18l.66,1.16.16,0,.15-1c.05-.37.07-.4.16-.41h.08v0l-.56-.08Zm2.29.9a.77.77,0,0,1-.84.73.71.71,0,0,1-.74-.82.78.78,0,0,1,.83-.75A.74.74,0,0,1,24.63,46.69Zm-.33,0c0-.51-.19-.71-.43-.73s-.47.16-.5.68.19.7.43.71S24.28,47.18,24.3,46.67Zm1.71.66a.31.31,0,0,1-.33-.17L25.62,47h-.05l.08.33a1,1,0,0,0,.35.06.51.51,0,0,0,.54-.53.48.48,0,0,0-.33-.4l-.14-.06c-.12-.05-.26-.11-.26-.25a.22.22,0,0,1,.24-.23c.2,0,.28.07.3.15l0,.13h.05l0-.34a1.24,1.24,0,0,0-.36,0,.47.47,0,0,0-.48.47.44.44,0,0,0,.33.38l.14.06c.12.06.25.13.26.28A.28.28,0,0,1,26,47.33Zm.76-1.11v-.14c0-.08.06-.13.3-.16h.12l.13,1.1c0,.19,0,.21-.08.24l-.09,0v0l.69-.08v0l-.09,0c-.1,0-.11,0-.14-.21l-.12-1.11h.12c.25,0,.3,0,.33.09l0,.13H28l0-.36-1.32.15,0,.36Zm1.41,1v0l0,0c.06,0,.08-.07.12-.28l.27-1.29.19,0,.68,1.14c.1.17.12.19.2.2h.05v0l-.65.11v0l.08,0c.08,0,.09-.07,0-.23l-.12-.21-.53.09,0,.18c0,.22,0,.27.07.28h.09v0Zm.36-.7.46-.08L28.76,46a.84.84,0,0,1-.09-.19h0a1.46,1.46,0,0,1,0,.22ZM30.28,46l.7.62.43-.12v0h-.06a.66.66,0,0,1-.29-.18l-.55-.46.19-.37c.1-.18.15-.28.2-.3l.07,0v0l-.53.14v0h.09c.09,0,.13.06,0,.28Zm-.6-.53c.1,0,.12,0,.16.19l.24.9c.05.18,0,.2,0,.24l-.08,0v0l.65-.17v0h-.09c-.09,0-.11,0-.16-.19l-.24-.9c0-.17,0-.2.05-.24l.07,0v0l-.65.17v0ZM31.25,45c.09,0,.11,0,.17.18l.3.87c.06.18.05.2,0,.25l-.07.05v0l1-.36,0-.32h0l0,.12c0,.1-.06.15-.27.23l-.13,0c-.09,0-.12,0-.19-.18l-.13-.38.19-.07c.19-.07.22-.07.27,0l0,.08,0,0-.15-.42h0v.09c0,.08,0,.1-.22.16l-.19.07-.18-.53.19-.06c.23-.08.29-.08.34,0l0,.09.05,0-.1-.29-1,.36v0Zm1.91-.72c.09,0,.11,0,.19.17l.39.84c.08.17.07.19,0,.25l-.06,0v0l.66-.3v0l-.13,0c-.09,0-.12,0-.2-.16l-.47-1,.09-.05a.32.32,0,0,1,.47.19.35.35,0,0,1-.19.5l0,.08c.28-.13.58-.41.43-.75s-.47-.24-.7-.13l-.62.28,0,0Zm1.61,0a.77.77,0,0,1,.3-1.08.72.72,0,0,1,1.07.31.77.77,0,0,1-.3,1.07A.72.72,0,0,1,34.77,44.33Zm.28-.16c.25.44.54.49.74.38s.32-.39.07-.84-.55-.49-.75-.38S34.79,43.72,35.05,44.17Zm1.36-.77a.77.77,0,0,1,.2-1.1.72.72,0,0,1,1.1.21.77.77,0,0,1-.21,1.09A.72.72,0,0,1,36.41,43.4Zm.26-.19c.29.42.58.45.78.31s.28-.41,0-.83-.59-.45-.78-.32S36.38,42.78,36.67,43.21Zm.87-1.45c.08,0,.1,0,.22.11l.58.73c.11.14.11.17.06.24l0,.07,0,0,.86-.68-.17-.33L39,42l0,.15c0,.1,0,.17-.18.31l-.09.07c-.07.06-.11.06-.24-.1L38,41.69c-.11-.15-.11-.18-.05-.25l.08-.09,0,0-.57.44,0,0ZM15.63,4.92c.09,0,.11,0,.18.16l.38.85c.07.17.06.19,0,.25l-.07.06,0,0L16.8,6l0,0-.12,0c-.09,0-.12,0-.2-.16l-.45-1,.09,0a.32.32,0,0,1,.47.19.36.36,0,0,1-.2.5l0,.08c.28-.12.59-.39.44-.74s-.47-.25-.7-.14l-.62.27v0Zm1.61,0a.77.77,0,0,1,.49-1,.72.72,0,0,1,1,.49.76.76,0,0,1-.49,1A.72.72,0,0,1,17.24,5Zm.31-.1c.16.48.44.57.66.5s.39-.33.22-.81S18,4,17.76,4.05,17.38,4.37,17.55,4.87ZM19,4.36a.78.78,0,0,1,.57-1,.73.73,0,0,1,1,.58.76.76,0,0,1-.58.95A.71.71,0,0,1,19,4.36Zm.31-.08c.12.5.39.62.62.56s.41-.28.29-.78-.4-.62-.63-.57S19.22,3.78,19.35,4.28Zm1.44-1c.1,0,.11,0,.14.2l.16.92c0,.18,0,.2-.07.24l-.07,0v0L22,4.49l0-.37H22l0,.15c0,.1-.09.14-.31.18l-.11,0c-.1,0-.13,0-.16-.2l-.15-.88c0-.18,0-.2.07-.24l.12,0v0l-.71.12v0Zm2.09.39a.79.79,0,0,1,.74-.85.74.74,0,0,1,.84.75.78.78,0,0,1-.75.83A.72.72,0,0,1,22.88,3.63Zm.32,0c0,.51.27.68.51.67s.45-.21.42-.72-.28-.69-.51-.67S23.17,3.08,23.2,3.6Zm2.23.65-.12,0c-.09,0-.12-.05-.12-.23V3.59h.22c.21,0,.24,0,.26.09l0,.09h0V3.32h0l0,.09c0,.08-.05.08-.26.08H25.2V2.88h.22c.25,0,.3,0,.32.11l0,.12h.05V2.79h-1.1v0l.09,0c.08,0,.1,0,.1.23l0,.92c0,.19,0,.21-.1.23l-.09,0v0h.73Zm2,.18-.71-.09v0l.09,0c.09,0,.11,0,.13-.21l.1-.92c0-.18,0-.2-.07-.24l-.08,0v0l.7.09c.21,0,.52.08.49.38s-.26.28-.37.3h0a.38.38,0,0,1,.36.42C28,4.31,27.76,4.47,27.41,4.43Zm-.13-.87h.12a.28.28,0,0,0,.35-.25c0-.22-.13-.29-.3-.31l-.1,0Zm.43.47c0-.27-.13-.35-.32-.37h-.12l-.05.44c0,.2,0,.23.09.24h0A.31.31,0,0,0,27.71,4Zm.9.57-.48-.09v0h.06c.07,0,.09,0,.21-.21l.71-1.11.2,0,.22,1.31c0,.19.05.21.11.25l0,0v0L29,4.69v0h.1c.08,0,.1,0,.08-.21l0-.24-.53-.1-.09.15c-.12.19-.12.24,0,.29l.08,0ZM28.72,4l.46.09-.07-.48a1.25,1.25,0,0,1,0-.21h0a.85.85,0,0,1-.1.19Zm1.79,1-.69-.19v0h.09c.09,0,.11,0,.16-.19l.24-.9c.05-.17,0-.2,0-.24l-.07,0v0l.67.18c.21.06.51.17.43.45a.39.39,0,0,1-.41.24h0a.38.38,0,0,1,.29.47C31.13,5,30.86,5.13,30.51,5Zm0-.87.11,0A.28.28,0,0,0,31,4c.06-.22-.07-.31-.25-.36l-.09,0Zm-.07.77a.31.31,0,0,0,.42-.24c.08-.26-.08-.37-.26-.42l-.12,0-.11.43c-.06.2,0,.23.05.25Zm.86.33,1.05.37.17-.28,0,0-.08.08c-.08.07-.15.08-.36,0l-.13,0c-.09,0-.11-.06,0-.26L32,4.73l.19.06c.19.07.22.09.21.17v.09l0,0,.15-.42,0,0-.05.07c0,.07-.07.06-.27,0l-.19-.07.19-.53.19.07c.23.08.27.12.26.2v.11h0l.1-.28-1-.36v0l.07.05c.08,0,.08.08,0,.25l-.3.87c-.07.18-.09.19-.18.18h-.08Zm1.44.46h-.09v0l1,.43.21-.3,0,0L33.71,6c-.07.07-.15.07-.36,0l-.1,0c-.09,0-.11-.07,0-.26l.35-.81c.07-.17.1-.19.19-.17l.12,0,0,0-.66-.28,0,0,.07,0c.07.06.08.08,0,.25l-.37.85C32.86,5.72,32.84,5.73,32.75,5.72Z" transform="translate(-1.58 -1.57)"/></svg>