<svg id="Layer_1" data-name="Layer 1" xmlns="http://www.w3.org/2000/svg" viewBox="0 0 50 50"><defs><style>.cls-1{fill:#fff;}.cls-2{fill:#daa520;}</style></defs><circle cx="25" cy="25" r="24"/><circle class="cls-1" cx="25" cy="25" r="25"/><path id="PoB-Silver" class="cls-2" d="M29.56,12.25c.33-.62,1.89-1.61,2.48-.15C32.14,12.4,30.62,12.55,29.56,12.25ZM33.5,7.32a1.26,1.26,0,0,1,.69,1.43A3.85,3.85,0,0,1,33.9,10a.08.08,0,0,0,.05.1h0a.08.08,0,0,0,.07-.05,4.05,4.05,0,0,0,.29-1.33,1.4,1.4,0,0,0-.79-1.58.07.07,0,0,0-.1,0A.08.08,0,0,0,33.5,7.32ZM36,13.15a.66.66,0,0,0,.1.52.41.41,0,0,0,.3.16h.16a.64.64,0,0,0,.66-.4.44.44,0,0,0-.13-.52c-.07,0-.26-.12-.53.15a.07.07,0,0,0,0,.1.08.08,0,0,0,.11,0c.14-.13.26-.17.34-.12a.28.28,0,0,1,.07.34c-.08.22-.33.33-.66.29a.3.3,0,0,1-.2-.1.57.57,0,0,1-.07-.41,1.19,1.19,0,0,1,.58-.75,1.87,1.87,0,0,0,.83-1.22.08.08,0,0,0-.07-.09.06.06,0,0,0-.08.06,1.71,1.71,0,0,1-.78,1.13A1.29,1.29,0,0,0,36,13.15ZM32.51,33.63a.44.44,0,0,0-.5.45c1.17.54-.16,2.23-.87,4.35s-.54,2.36-.52,2.13C30.68,39.62,34.41,34.07,32.51,33.63ZM21.18,31.84h0a.09.09,0,0,0,.07,0,.09.09,0,0,0,0-.11c-.88-.58-.45-2.53-.44-2.55a.08.08,0,0,0-.15,0C20.66,29.21,20.22,31.2,21.18,31.84Zm1.29.36.05,0a.09.09,0,0,0,.06,0,.08.08,0,0,0,0-.11c-1-.8-.5-2.71-.49-2.72a.08.08,0,0,0-.06-.1.08.08,0,0,0-.09.06C21.91,29.4,21.44,31.34,22.47,32.2Zm1.39.25h0a.07.07,0,0,0,.07,0,.08.08,0,0,0,0-.1c-1.21-.63-.85-2.63-.85-2.65a.08.08,0,0,0-.06-.09.09.09,0,0,0-.09.07C22.92,29.73,22.55,31.77,23.86,32.45ZM10.43,30.87a.07.07,0,0,0-.07-.08s-.07,0-.08.06c-.31,2.27.9,3.77,1.88,5S13.89,38,13,39.21a.07.07,0,0,0,0,.11h0a.07.07,0,0,0,.06,0c.95-1.35.12-2.38-.86-3.58S10.13,33.08,10.43,30.87ZM49,25v0A24,24,0,0,1,1,25H1A24,24,0,0,1,18,2.05c.66-.2,1.33-.37,2-.52l.45-.09A23.79,23.79,0,0,1,25,1h0A24,24,0,0,1,49,25ZM1.23,26l3.31-.12c0-.3,0-.59,0-.89v-.4l-3.31-.12V25C1.21,25.36,1.22,25.68,1.23,26Zm43.17.9a.07.07,0,0,1,.09,0,.67.67,0,0,1,.1.19c.1.17.22.26.34.24s.27-.21.32-.56a1.36,1.36,0,0,1,0-.2c0-.09,0-.18,0-.26s0-.46,0-.7-.15-.18-.45-.26c-1-.24-1.34.31-1.74.94a3.29,3.29,0,0,1-.62.81h0a1.41,1.41,0,0,1-.31.21,22.41,22.41,0,0,1-3.07.12,1.27,1.27,0,0,1-.82-.08c-.41,1-.86,1.95-1.33,3a4.54,4.54,0,0,1-.21.45,2.36,2.36,0,0,1-.45.77h0a3,3,0,0,1-.43.44,41.6,41.6,0,0,0,5.82-2c.93-.36,1.66-.64,2-.72a.87.87,0,0,0,.71-.58,2.43,2.43,0,0,0,.08-1.56L44.36,27A.08.08,0,0,1,44.4,26.9Zm-8.84,5.17a3.78,3.78,0,0,0,.51-.46h0a1.23,1.23,0,0,1-.87-.33h0a.61.61,0,0,0-.73-.05.43.43,0,0,0-.07.57v0a2.09,2.09,0,0,1,.23.24A2.16,2.16,0,0,0,35.56,32.07Zm-4,7.67c.24-.6.58-1.33.94-2.1.91-1.91,1.93-4.07,2-5.49a2.56,2.56,0,0,0-1.57-.9h0a2.67,2.67,0,0,0-1.67.42C29.06,33,29,35.08,28.92,37.45a21.5,21.5,0,0,1-.31,3.48c-.33,1.83-.29,1.87.09,2.19l.17.15a3.5,3.5,0,0,0,3.74.55c.52-.26.89-.63.89-.91a.28.28,0,0,0-.18-.25A.76.76,0,0,1,33,42c0-.2-.07-.38-.21-.45s-.48-.05-1,.14h0a1,1,0,0,1-.33.11c-.33,0-.42-.13-.45-.24A4,4,0,0,1,31.53,39.74Zm-1.75-7a3,3,0,0,1,.27-.35,1.17,1.17,0,0,1-.26,0,.74.74,0,0,1-.36-.09,1.07,1.07,0,0,1-.54-.86,3.12,3.12,0,0,1-1.34.67h0a.58.58,0,0,0,.39.81,2.45,2.45,0,0,0,1.79-.19A.07.07,0,0,1,29.78,32.77ZM8.23,15.28h0c.07.06.1.19.14.47A2.65,2.65,0,0,0,9.81,18a2.81,2.81,0,0,0,1.79.14,2.21,2.21,0,0,1,1.42.09,2.53,2.53,0,0,1,.51.28A.61.61,0,0,1,13.3,18a.47.47,0,0,1,.21-.33A1,1,0,0,1,13,17a.9.9,0,0,1,.28-.88.8.8,0,0,1,.21-.13,1.74,1.74,0,0,1-.87-1c-.06-.38.16-.76.66-1.12a1.28,1.28,0,0,1-.25-1,1.56,1.56,0,0,1,.78-1,1.71,1.71,0,0,1-.13-.77A1.48,1.48,0,0,1,14.7,9.87a2.48,2.48,0,0,1,.47-2,1.54,1.54,0,0,1,1.22-.43h0a1.74,1.74,0,0,1,1.87-.67h0a1.83,1.83,0,0,1,.5-.53c.36-.24,1-.38,1.77.28a1.9,1.9,0,0,1,1.08-.4h0c.56,0,.78.55.83.91l.23-.14A1.08,1.08,0,0,1,24,7c.46.49.38,1.42-.23,2.5a5.37,5.37,0,0,0-1.14,4.57c.93,3.76,6.35,6.39,8.39,7.38l.2.1c1.27-1.28,1.5-2.55,1.08-3.15s-1.4-.57-2.66,0c-1.06.52-2.2-.91-2.25-1a.07.07,0,0,1,0-.1s.07,0,.12,0a4.66,4.66,0,0,1,.67,0c.68-.05,1.6-1,2.22-1.11a.76.76,0,0,0-.2-.62c-.34-.29-1.07-.15-1.78,0a4.82,4.82,0,0,1-1.29.14h0a.89.89,0,0,1-.81-.61,2.46,2.46,0,0,1-.17-.83h0c0-.12-.15-.26-.28-.4a.9.9,0,0,1-.33-.5c-.17-.65.64-1,1.12-1.16l.05,0A.53.53,0,0,1,27,12h0c.07,0,1.77-.59,2.55-.75a2.54,2.54,0,0,1,2.24-1.58c.85-.19,1.52-.33,1.53-1.39V8.25c0-.3,0-.82-.94-1.56a.14.14,0,0,1-.06-.17c.06-.15.44-.18.76-.14A20.3,20.3,0,0,0,6.55,16.61a.32.32,0,0,1,.17,0c.08,0,.1,0,.13,0A1.76,1.76,0,0,0,7.22,16C7.43,15.58,7.66,15.07,8.23,15.28Zm36.71,9.79a1.49,1.49,0,0,0-1.6.28,2.91,2.91,0,0,0-.76,1.49,4.39,4.39,0,0,0,.42-.61c.39-.63.8-1.28,1.91-1l.07,0A.11.11,0,0,0,44.94,25.07Zm.19.22a.56.56,0,0,1,.19.09c0-.12,0-.25,0-.37A20.28,20.28,0,0,0,37,8.63,2.91,2.91,0,0,1,37.68,10a5.05,5.05,0,0,1,.3,3c2.39,2.43,4,10.1,1.45,14.36a.08.08,0,0,0,0,0,19.68,19.68,0,0,0,2.74-.11,1.17,1.17,0,0,0,.26-.17,3.24,3.24,0,0,1,.84-1.79A1.67,1.67,0,0,1,45,25,.28.28,0,0,1,45.13,25.29Zm-8.52,5.47h0a1.74,1.74,0,0,1-1-.25l0,0c-.31.11-.47.28-.42.48a1,1,0,0,0,1.06.5A2.47,2.47,0,0,0,36.61,30.76Zm-2.3.34h0c-.49-.07-.59-.33-.61-.46a.84.84,0,0,1,.41-.75.63.63,0,0,1-.46-.18l0,0a1.58,1.58,0,0,1-1,.7.53.53,0,0,0-.12.41.51.51,0,0,0,.36.3h0a2.64,2.64,0,0,1,1.23.53A.52.52,0,0,1,34.31,31.1Zm-3.23.43.22-.12a.36.36,0,0,1-.15-.08.35.35,0,0,1-.1-.16,1.51,1.51,0,0,1-.65.21h0a.67.67,0,0,1-.58-.25l0,0a2,2,0,0,1-.71.26,1,1,0,0,0,.46.89.74.74,0,0,0,.82-.14h.05A4.62,4.62,0,0,1,31.08,31.53Zm-3.77-2.65a.83.83,0,0,1-.27-.12.7.7,0,0,1-.32-.68,2.06,2.06,0,0,1-.48.07,1,1,0,0,1-.26,0,.67.67,0,0,1-.21-.1.91.91,0,0,1-.43.19.61.61,0,0,0,.11.75A1.88,1.88,0,0,0,27.31,28.88Zm-1.65-1a.91.91,0,0,1-.13-.75l-.24,0a1,1,0,0,1-.44-.09.71.71,0,0,1-.21-.17.93.93,0,0,1-.35.21.73.73,0,0,0,.34.74A.88.88,0,0,0,25.66,27.92Zm-1.1-1.12a.67.67,0,0,1-.06-.35h-.1a1.37,1.37,0,0,1-.51-.08.57.57,0,0,1-.42-.56,1.07,1.07,0,0,1-.44.26.66.66,0,0,0,.27.87A1.13,1.13,0,0,0,24.56,26.8ZM22.81,26a1.08,1.08,0,0,0,.57-.28H23.3a1,1,0,0,1-.62-.17.53.53,0,0,1-.12-.62,2.32,2.32,0,0,1-.78.31c-.12.17-.23.4-.12.57S22.37,26.07,22.81,26Zm-2.27-.86a.43.43,0,0,1-.25-.3.55.55,0,0,1,.21-.49,1.9,1.9,0,0,1-.36-.09,5.57,5.57,0,0,1-1,.16c-.33.2-.51.39-.5.54s.14.21.34.28A2.17,2.17,0,0,0,20.54,25.11Zm-5-3.42c0,.25.27.54,1,.59a6,6,0,0,0,2-.2,1,1,0,0,1-.48-.31.51.51,0,0,1,0-.59l-.22-.08a.08.08,0,0,1,0,0,7,7,0,0,1-1.47.12h-.46s0,0,0,0A.4.4,0,0,0,15.58,21.69ZM18.15,21a4.44,4.44,0,0,0,1.55.13h0c-.09-.18,0-.37.24-.58a1,1,0,0,1-.45-.37h0A6.91,6.91,0,0,1,18,19.85h0c-.12,0-.36.19-.43.46h0a.1.1,0,0,1,0,.09h0C17.5,20.69,17.72,20.91,18.15,21ZM13.45,18c0,.12,0,.54,1.08.86a8.55,8.55,0,0,0,2.6.26.61.61,0,0,1,0-.48.62.62,0,0,1,.32-.27.8.8,0,0,1-.15-.17A16,16,0,0,1,14,17.81l-.26-.08A.31.31,0,0,0,13.45,18ZM31,21.6l-.68-.33c-.24.16-.35.32-.33.47s.21.32.49.41A1.36,1.36,0,0,0,31.69,22l-.49-.23h0Zm-3.41-4.19c.22.25,1.18,1.29,2,.88a5.47,5.47,0,0,1,.75-.29,2.93,2.93,0,0,1,1.48-.53,3.86,3.86,0,0,0,1.85-2.54.59.59,0,0,0,0-.32c-2,.73-3.38-1.24-3.39-1.26a.07.07,0,0,1,.12-.08s1.36,1.91,3.25,1.18h0s.12,0,.15.14a3.7,3.7,0,0,1-1.74,2.9,1.36,1.36,0,0,1,.77.37A1.29,1.29,0,0,1,33,18h0c1.39-.76,1.56-2.14,1.71-3.36a3.24,3.24,0,0,1,.88-2.32l.34-.24h0c.58-.43,1.72-1.37,1.6-2.12a3.6,3.6,0,0,0-1.21-1.81l-.76-.49a5.93,5.93,0,0,1,.3,1.65h0c.09.71-.28.8-.67.9a1.37,1.37,0,0,0-1.16,1,.07.07,0,0,1-.07,0h0a.08.08,0,0,1-.07,0A2.42,2.42,0,0,0,31.52,9.9h0a2.24,2.24,0,0,0-1.86,1.46s0,.05-.05.05c-.73.15-2.45.72-2.57.76l-.22.1c-.3.25-.35.88-.39,1.36a2.3,2.3,0,0,1-.1.61,2.23,2.23,0,0,0,.16.75.75.75,0,0,0,.67.52,5,5,0,0,0,1.26-.14c.75-.14,1.52-.28,1.91.06a.91.91,0,0,1,.25.77h0C30.62,17.64,28.28,17.39,27.54,17.41Zm5.89-9.16V8.3c0,1-.64,1.3-1.37,1.47A2.39,2.39,0,0,1,34,11a1.52,1.52,0,0,1,1.19-.91,1,1,0,0,0,.46-.19h0a1.57,1.57,0,0,0-.86,0,.07.07,0,0,1-.08,0,.08.08,0,0,1,0-.09,2.33,2.33,0,0,0,.14-1.61,1.87,1.87,0,0,0-1.45-1.57,1.57,1.57,0,0,0-.91,0C33.44,7.36,33.44,7.94,33.43,8.25Zm2-.67c-.32-.19-.64-.37-1-.54A2.06,2.06,0,0,1,35,8.14a2.79,2.79,0,0,1-.09,1.57,1.6,1.6,0,0,1,.81,0,4.41,4.41,0,0,0-.26-2A.23.23,0,0,1,35.4,7.58Zm2.25,2.77A4.42,4.42,0,0,1,36,12.22c-.53.88-.62,1.62-.24,2a1,1,0,0,0,1.19,0C38.11,13.42,38.07,11.73,37.65,10.35ZM35.93,29.74a.57.57,0,0,1-.18,0h-.14a.5.5,0,0,1-.42-.3,1.14,1.14,0,0,1-.36.26c0,.28,0,.45.19.52a1.05,1.05,0,0,0,.95-.3h0A.3.3,0,0,1,35.93,29.74Zm-.72-.61a1.11,1.11,0,0,1-.37.07.87.87,0,0,1-.48-.14.52.52,0,0,1-.2-.36,1.79,1.79,0,0,1-.36.31s0,0,0,0c-.08.18-.16.43,0,.58a.81.81,0,0,0,.79.07A1,1,0,0,0,35.21,29.13Zm-1.62,0-.29.11a1.27,1.27,0,0,1-.26,0,.5.5,0,0,1-.37-.14.41.41,0,0,1-.13-.29,2.53,2.53,0,0,1-1.15.71.52.52,0,0,0,.07.54,1.15,1.15,0,0,0,1.06.15,1.34,1.34,0,0,0,1-.75s0,0,0,0A.65.65,0,0,1,33.59,29.14Zm-1.9,1.28a.83.83,0,0,1-.34-.2.63.63,0,0,1-.13-.6l-.23,0s0,0,0,0a4.09,4.09,0,0,1-1.1.79.67.67,0,0,0,0,.57.55.55,0,0,0,.49.19A2.19,2.19,0,0,0,31.69,30.42Zm-1.82-1.53h0l-.17,0a.7.7,0,0,1-.56-.2.36.36,0,0,1-.1-.27,3.29,3.29,0,0,1-1.31.48c-.08.49,0,.78.35.85A2.15,2.15,0,0,0,29.87,28.89Zm-.8-.65a1.8,1.8,0,0,1,.08-.21,1.56,1.56,0,0,1-.44.07h0a.77.77,0,0,1-.65-.25A.66.66,0,0,1,28,27.4h0l-.17,0a1.69,1.69,0,0,1-.89.63.59.59,0,0,0,.24.62C27.43,28.84,28.11,28.85,29.07,28.24ZM26,28a1.86,1.86,0,0,0,1.59-.61l-.09,0a.65.65,0,0,1-.45-.7l-.21,0-.22,0a2.27,2.27,0,0,1-.95.51C25.6,27.6,25.71,27.89,26,28Zm-4.14-4.12a.65.65,0,0,1,.1-.15H21.9c-.53-.06-.89-.24-1-.5l0-.08a4.06,4.06,0,0,1-.68.05,3.7,3.7,0,0,1-.46,0A.76.76,0,0,0,20,24a2,2,0,0,0,1.85-.15Zm-3.65-2.11a3.06,3.06,0,0,0,2.05.31v0a.63.63,0,0,1,.19-.48,1.5,1.5,0,0,1-.65-.25h0a5,5,0,0,1-.53,0,4.39,4.39,0,0,1-1-.12C18,21.53,18.18,21.68,18.23,21.74ZM20,20.45a1.88,1.88,0,0,0,1.54.06.74.74,0,0,1,.12-.69,2.32,2.32,0,0,1-.55.06,2.8,2.8,0,0,1-1.25-.29h0a.37.37,0,0,0-.3.29C19.53,20.09,19.68,20.29,20,20.45ZM19.34,19a.51.51,0,0,1,0-.39.53.53,0,0,1,.16-.23,5,5,0,0,1-1.74-1.08.51.51,0,0,0-.35.16h0a.57.57,0,0,0-.05.48C17.49,18.48,18.73,18.87,19.34,19ZM17.6,16.74c.15.72,1.82,1.53,2.06,1.54h0l.09,0a.59.59,0,0,1,0-.08.6.6,0,0,1,0-.59h0c-.35-.15-1.57-.75-1.79-1.42C17.67,16.32,17.55,16.51,17.6,16.74Zm.49-.84c-.06.62,1.24,1.32,1.79,1.56a1,1,0,0,1,.49-.15l0-.13a4,4,0,0,1-1.83-1.48.64.64,0,0,0,0-.07.32.32,0,0,0-.26,0A.28.28,0,0,0,18.09,15.9Zm.61-.9a.61.61,0,0,0-.05.63A3.72,3.72,0,0,0,20.34,17a.37.37,0,0,1,.09-.25.53.53,0,0,1,.24-.17,2.72,2.72,0,0,1-1.4-1.76A.56.56,0,0,0,18.7,15Zm.71-.49c-.08.49.26,1.31,1.47,2h.18a.52.52,0,0,1,.12-.34l.06-.06a4,4,0,0,1-1-1.62c-.19-.28-.41-.43-.59-.39l-.1,0,0,0h0A.61.61,0,0,0,19.41,14.51Zm1.36-.94a.36.36,0,0,0-.39.39,3.33,3.33,0,0,0,1,2.11A1,1,0,0,1,22,16a1.37,1.37,0,0,1,.07-.24,6.83,6.83,0,0,1-.84-2,.08.08,0,0,1,0,0C21.19,13.71,21,13.58,20.77,13.57Zm2,4a.6.6,0,0,0-.5.33.55.55,0,0,0,.15.6,3.78,3.78,0,0,0,1.89.63h0a1,1,0,0,1,.29-.19.62.62,0,0,1-.15-.38A2,2,0,0,1,22.78,17.53ZM24.72,19a.64.64,0,0,0-.42.38.57.57,0,0,0,.18.54,1.78,1.78,0,0,0,1.47.38,1,1,0,0,1,.3-.46.71.71,0,0,1-.13-.28A2.51,2.51,0,0,1,24.72,19Zm7.12,3a1.34,1.34,0,0,1-.94.33,1.84,1.84,0,0,1-.33,0,.43.43,0,0,0,0,.44.75.75,0,0,0,.71.18,1.21,1.21,0,0,0,1-.72Zm.51.28a1.31,1.31,0,0,1-.92.76c0,.2,0,.35.12.42a1,1,0,0,0,1-.16c.3-.19.47-.43.45-.65C32.75,22.55,32.54,22.43,32.35,22.32Zm.76.46a1,1,0,0,1-.52.69l-.12.07q.08.47.45.42a1.11,1.11,0,0,0,.84-.74C33.54,23.06,33.32,22.92,33.11,22.78Zm.79.54a1.3,1.3,0,0,1-.67.7h0a.35.35,0,0,0-.08.24.31.31,0,0,0,.18.18.69.69,0,0,0,.62-.09,1.09,1.09,0,0,0,.48-.62Zm.66.52a1.26,1.26,0,0,1-.53.63l-.13.07A.46.46,0,0,0,34,25a.49.49,0,0,0,.48.08,1,1,0,0,0,.62-.77Zm.63.57a1.13,1.13,0,0,1-.57.74.36.36,0,0,0,.24.48.82.82,0,0,0,.91-.6C35.59,24.81,35.39,24.61,35.19,24.41Zm.69.75a1,1,0,0,1-.68.61.38.38,0,0,0,.14.34A.69.69,0,0,0,36,26a.61.61,0,0,0,.29-.34A5.86,5.86,0,0,0,35.88,25.16Zm.48.65a1,1,0,0,1-.32.31,1.05,1.05,0,0,1-.54.18l-.12,0a.34.34,0,0,0,.25.42.8.8,0,0,0,.91-.6Zm.27.46a1,1,0,0,1-.86.6h-.1a.36.36,0,0,0,.24.48.83.83,0,0,0,.92-.64h0C36.77,26.56,36.7,26.41,36.63,26.27Zm.31.7,0-.07a1,1,0,0,1-.6.57s0,0,0,0a.51.51,0,0,0-.16.49.22.22,0,0,0,.22.17c.35,0,.7-.44.78-.55A3.94,3.94,0,0,0,36.94,27Zm-.73,1.32-.11-.05a1.21,1.21,0,0,1-.65.24c-.1.19-.1.32,0,.39a.78.78,0,0,0,.74-.08C36.12,28.71,36.06,28.55,36.21,28.29Zm-1.76.65a.86.86,0,0,0,.85,0c-.08-.08-.12-.23,0-.46a.34.34,0,0,1-.14-.05.44.44,0,0,1-.19-.47,1.38,1.38,0,0,1-.54.3l-.06.16A.44.44,0,0,0,34.45,28.94Zm-.23-.6s0,0,0-.06h-.17a.58.58,0,0,1-.53-.62h-.11a1.25,1.25,0,0,1-.7.78c-.08.29-.06.5.05.6a.47.47,0,0,0,.48.06A1.61,1.61,0,0,0,34.22,28.34Zm-1.66.16a.27.27,0,0,1-.12,0,.75.75,0,0,1-.21,0,.68.68,0,0,1-.56-.23.54.54,0,0,1-.08-.27,2.06,2.06,0,0,1-.91.63,3.2,3.2,0,0,1-.55.17c0,.34.09.56.36.64a2.22,2.22,0,0,0,2-.89s0,0,0,0A.22.22,0,0,1,32.56,28.5ZM29.1,26.64a.65.65,0,0,1-.59-.47,3.66,3.66,0,0,1-1.28.44.5.5,0,0,0,.34.58A1.38,1.38,0,0,0,29.1,26.64ZM28.54,26a1,1,0,0,1-.24,0,.66.66,0,0,1-.31-.06.59.59,0,0,1-.39-.38.38.38,0,0,1,0-.1,2.36,2.36,0,0,1-1.3.4c-.1.31,0,.5.21.59A2.87,2.87,0,0,0,28.54,26Zm-.89-.78,0-.06a2.42,2.42,0,0,1-.46.06.89.89,0,0,1-.47-.12.49.49,0,0,1-.2-.43,1.64,1.64,0,0,1-1,.46.42.42,0,0,0,.25.52A2,2,0,0,0,27.65,25.18ZM25.3,25a1.52,1.52,0,0,0,1.18-.47,1.17,1.17,0,0,1-.43-.17.55.55,0,0,1-.28-.48,2.48,2.48,0,0,1-.68.31l-.16,0c-.18.21-.24.4-.18.53A.61.61,0,0,0,25.3,25Zm-1.6-1.81c-.51,0-.67-.29-.71-.41a.48.48,0,0,1,0-.29,5.11,5.11,0,0,1-1.33.2l-.41,0c-.17.21-.24.38-.18.53s.4.35.86.4A2.56,2.56,0,0,0,23.7,23.14ZM21,22.41A4.34,4.34,0,0,0,23,22.26a.38.38,0,0,1,.09-.13l-.11,0c-.55-.09-.67-.37-.69-.52a.13.13,0,0,0,0-.06,3.61,3.61,0,0,1-.94.1,4.28,4.28,0,0,1-.72-.05.53.53,0,0,0-.23.43C20.45,22.19,20.64,22.33,21,22.41Zm.87-1.76a2.78,2.78,0,0,0,2.41.3.51.51,0,0,1-.11-.38.59.59,0,0,1,.3-.43l-.05,0a5.14,5.14,0,0,1-1,.1,2.11,2.11,0,0,1-1.47-.43C21.62,20.12,21.6,20.42,21.85,20.65Zm0-2a2.42,2.42,0,0,1-1.44-1.14v0a.77.77,0,0,0-.55.21.48.48,0,0,0,0,.44c.23.59,1.59.75,1.8.77l0-.07A1,1,0,0,1,21.87,18.62Zm-1.32-1.77c-.1.12-.09.31,0,.57A2.44,2.44,0,0,0,22,18.51a.68.68,0,0,1,.2-.07.61.61,0,0,1-.1-.6,1.43,1.43,0,0,1-1-.85,1,1,0,0,1-.07-.28A.58.58,0,0,0,20.55,16.85ZM22,19.6c.48.61,1.86.46,2.33.37a.61.61,0,0,1-.13-.6.31.31,0,0,1,.06-.13,3.75,3.75,0,0,1-1.87-.65.58.58,0,0,0-.39,1Zm3.66.92a1.89,1.89,0,0,1-1-.27.43.43,0,0,0-.29.34c0,.18.1.34.36.45a3.4,3.4,0,0,0,1.72,0,.85.85,0,0,1-.37-.32.65.65,0,0,1-.07-.21Zm2.57.7a3.83,3.83,0,0,1-.6.05,2.91,2.91,0,0,1-.95-.14c-.28.28-.34.5-.18.67a.92.92,0,0,0,.37.2h0a2.11,2.11,0,0,0,1.41-.08h0A.48.48,0,0,1,28.19,21.22Zm1.1,1.8H29a.24.24,0,0,0,0,.26,1.07,1.07,0,0,0,1,.2.86.86,0,0,0,.66-.43.47.47,0,0,1-.23-.18l-.06-.13A1.77,1.77,0,0,1,29.29,23Zm6.78,4.5h0a.63.63,0,0,1-.19,0,.47.47,0,0,1-.29-.22.9.9,0,0,1-.31.15.92.92,0,0,1-.09.23v0c-.07.21-.13.49.06.6a.81.81,0,0,0,.77-.16l0-.07A.67.67,0,0,1,36.07,27.52Zm-1-.06a1.24,1.24,0,0,1-.27,0,.86.86,0,0,1-.41-.09.38.38,0,0,1-.11-.11,1.12,1.12,0,0,1-.61.35.44.44,0,0,0,.39.49A1.06,1.06,0,0,0,35.09,27.46Zm-1.81.18a.5.5,0,0,1-.36-.51.61.61,0,0,1-.3.08.66.66,0,0,1-.27-.06,1,1,0,0,1-.49.5h0c-.13.24-.15.43-.05.57a.62.62,0,0,0,.61.15A1.12,1.12,0,0,0,33.28,27.64Zm-2.47-.95a1.2,1.2,0,0,0,.18-.34.65.65,0,0,1,0-.29,1,1,0,0,1-.43.11h-.12l-.17-.06a.92.92,0,0,1-.67.5.54.54,0,0,0,.49.38.8.8,0,0,0,.71-.25h0A.08.08,0,0,1,30.81,26.69Zm-.7-.7a.76.76,0,0,1-.13-.36,1.08,1.08,0,0,1-.3,0,.66.66,0,0,1-.25,0,.28.28,0,0,1-.14-.09,2.23,2.23,0,0,1-.41.29,1.1,1.1,0,0,1-.24.25c.06.38.46.41.63.41C29.65,26.48,30.09,26.26,30.11,26Zm-4.67-3.53h0a1.19,1.19,0,0,1-.71-.34.45.45,0,0,1-.12-.25,2.84,2.84,0,0,1-1.21.29h-.1a.52.52,0,0,0-.14.16.06.06,0,0,1,0,.06.48.48,0,0,0,0,.31c.08.22.37.33.79.31A2.57,2.57,0,0,0,25.44,22.46ZM24.86,22a1.64,1.64,0,0,0,1.8.08.78.78,0,0,1-.31-.19c-.12-.12-.24-.36,0-.73a4,4,0,0,1-1,.13l-.33,0C24.86,21.48,24.65,21.76,24.86,22Zm.55.95c0,.14.16.25.37.31a1.11,1.11,0,0,0,1-.24.55.55,0,0,1,0-.25h0a.53.53,0,0,1-.35-.44,2,2,0,0,1-.72.13h-.12C25.46,22.65,25.38,22.82,25.41,23Zm.72,1.23a1.08,1.08,0,0,0,1.23-.08.56.56,0,0,1,0-.52,1.06,1.06,0,0,1-.28-.15.72.72,0,0,1-.19-.24,1.24,1.24,0,0,1-.78.26h0a.59.59,0,0,1-.12.2v0A.41.41,0,0,0,26.13,24.19Zm2.75-.84a1.91,1.91,0,0,1-1,.32,1.37,1.37,0,0,1-.36,0c-.09.24-.05.4.12.5a1.58,1.58,0,0,0,1.51-.29.45.45,0,0,1,0-.29.65.65,0,0,1-.26-.19Zm2.28,1.39a1.7,1.7,0,0,1-1,.85c0,.25.12.39.31.42a1.59,1.59,0,0,0,1.35-1,.54.54,0,0,1-.43-.34ZM32,25h0a2.12,2.12,0,0,1-.82.95c0,.25,0,.44.13.53a.73.73,0,0,0,.74-.07,1.12,1.12,0,0,0,.6-.87h0a.67.67,0,0,1-.28-.06A.56.56,0,0,1,32,25Zm1.52,1.09-.17,0a.72.72,0,0,1-.29-.06.51.51,0,0,1-.27-.35,1.27,1.27,0,0,1-.58.79h0a.28.28,0,0,0,.07.4.52.52,0,0,0,.71,0,2.14,2.14,0,0,0,.52-.74S33.47,26.14,33.47,26.11ZM31,24.77h-.05a.62.62,0,0,1-.61-.52,2.57,2.57,0,0,1-.94.7h0c-.11.28-.07.45.1.52A1.56,1.56,0,0,0,31,24.77Zm-.77-.6-.22,0h-.16a.82.82,0,0,1-.65-.22,1.76,1.76,0,0,1-.83.36h0c-.1.16-.25.44-.06.58S29.58,24.89,30.21,24.17Zm-3.37.76c.3.21,1,0,1.22-.1a.63.63,0,0,1,.1-.46H28a1,1,0,0,1-.51-.11l-.06,0a1.16,1.16,0,0,1-.75.28C26.67,24.71,26.71,24.85,26.84,24.93Zm.91.58a.44.44,0,0,0,.3.28c.48.2,1-.27,1.15-.37a.54.54,0,0,1,0-.38,1.9,1.9,0,0,1-.58.11A.69.69,0,0,1,28.2,25a.59.59,0,0,1-.08-.08l-.22.09a1.59,1.59,0,0,0-.11.18v0h0A.43.43,0,0,0,27.75,25.51Zm3.15,2a.67.67,0,0,0,.67.1.91.91,0,0,0,.64-.51L32.13,27a.44.44,0,0,1-.18-.4,1,1,0,0,1-.44.1.55.55,0,0,1-.34-.1.41.41,0,0,1-.1-.09,1,1,0,0,1-.16.26C30.78,27.12,30.78,27.37,30.9,27.5Zm3.32-.37a.66.66,0,0,1,0-.3h-.14a.86.86,0,0,1-.28,0,.51.51,0,0,1-.35-.32,2.22,2.22,0,0,1-.41.53c0,.27.06.44.27.49A.9.9,0,0,0,34.22,27.13Zm1.3-.31a.49.49,0,0,1-.28-.6h0a1.16,1.16,0,0,1-.81.58.59.59,0,0,0-.05.3s0,0,0,0a.28.28,0,0,0,.11.13,1.17,1.17,0,0,0,1-.14A.82.82,0,0,1,35.52,26.82Zm-.51-1a.58.58,0,0,1-.19,0,.45.45,0,0,1-.33-.29,1.17,1.17,0,0,1-.33.34,1.73,1.73,0,0,1-.51.25.83.83,0,0,1,0,.15.38.38,0,0,0,.27.44,1.12,1.12,0,0,0,1.24-.56h0a.6.6,0,0,1-.07-.3Zm-.58-.58-.16,0a.56.56,0,0,1-.4-.16.39.39,0,0,1-.11-.17,1.34,1.34,0,0,1-.42.4,1.63,1.63,0,0,1-.48.22.45.45,0,0,0,.22.4,1.1,1.1,0,0,0,1-.24A.77.77,0,0,0,34.43,25.22Zm-.72-.61-.18,0a.63.63,0,0,1-.27-.06.4.4,0,0,1-.24-.24,1.31,1.31,0,0,1-.84.65v0a.44.44,0,0,0,.19.37,1,1,0,0,0,.89-.19A.88.88,0,0,0,33.71,24.61Zm-.79-.5h-.06c-.17,0-.44-.07-.53-.5h0a1.63,1.63,0,0,1-.83,1,.45.45,0,0,0,.57.26C32.45,24.78,32.9,24.43,32.92,24.11Zm-.76-.44a1.48,1.48,0,0,1-.35,0,.59.59,0,0,1-.35-.09.38.38,0,0,1-.09-.09,1.63,1.63,0,0,1-.93.58c.08.36.26.53.55.5A1.72,1.72,0,0,0,32.16,23.67Zm-.89-.56-.21,0a1.26,1.26,0,0,1-.28,0,.92.92,0,0,1-.77.53,1.55,1.55,0,0,1-.31,0,1.84,1.84,0,0,1-.41,0,.29.29,0,0,0,0,.27c.09.14.36.2.7.18a1.69,1.69,0,0,0,1.31-.67A.74.74,0,0,1,31.27,23.11ZM28.85,23a1.22,1.22,0,0,1-.54-.22.3.3,0,0,1-.08-.08,1.9,1.9,0,0,1-.87.19,1.42,1.42,0,0,1-.36,0,.43.43,0,0,0,.16.49,1.5,1.5,0,0,0,1.67-.12A.35.35,0,0,1,28.85,23Zm-.67-.86a2.1,2.1,0,0,1-.7.11,2.67,2.67,0,0,1-.64-.08,1.37,1.37,0,0,1-.2.13.39.39,0,0,0,.27.36,1.74,1.74,0,0,0,1.24-.09A.51.51,0,0,1,28.18,22.12Zm-5.7-.56c0,.2.23.35.56.41a2.69,2.69,0,0,0,1.59-.28,1,1,0,0,1,.25-.43,1.58,1.58,0,0,1-.28-.08.91.91,0,0,1-.22-.13,1.69,1.69,0,0,1-.93.2,3.5,3.5,0,0,1-.78-.08h0A.38.38,0,0,0,22.48,21.56ZM24,23.89a1.14,1.14,0,0,0,1.1.1,1.42,1.42,0,0,0,.87-.54l-.19,0a.61.61,0,0,1-.47-.41.53.53,0,0,1,0-.24,3,3,0,0,1-1.3.38C23.83,23.48,23.82,23.74,24,23.89Zm4.23,3.87a.64.64,0,0,0,.53.19h0a2.19,2.19,0,0,0,1.46-.81H30a.67.67,0,0,1-.62-.5h-.14a1.6,1.6,0,0,1-1.15.75A.47.47,0,0,0,28.18,27.76Zm1.08.85c.18.2.77.18,1.37-.07s.88-.52.91-.78l-.26,0a.64.64,0,0,1-.49-.18.69.69,0,0,1-.1-.62.81.81,0,0,1-.29.12,3.19,3.19,0,0,1-1,.84C29.24,28.17,29.13,28.45,29.26,28.61Zm1.16-6.3,0,0a1.19,1.19,0,0,1-.39-.2,1.21,1.21,0,0,1-.61.11,2.37,2.37,0,0,1-.95-.18c-.2.26-.21.47,0,.62a1.78,1.78,0,0,0,2-.11A.7.7,0,0,1,30.42,22.31Zm-.31-1.11a4.48,4.48,0,0,1-1.07.16,1.3,1.3,0,0,1-.67-.15c-.26.37-.09.52,0,.58a2.13,2.13,0,0,0,1.56.19.4.4,0,0,1-.1-.22C29.77,21.62,29.82,21.42,30.11,21.2Zm-1.9-.15h0a.69.69,0,0,1-.15-.46,1,1,0,0,1-.25,0,2.23,2.23,0,0,1-.93-.25,2,2,0,0,1-.53-.38c-.24.25-.32.46-.21.64C26.39,21.06,27.5,21.22,28.21,21.05Zm-5.52-3.79A1.26,1.26,0,0,1,22,16.19h0c-.32-.06-.56,0-.67.12a.63.63,0,0,0,0,.62,1.27,1.27,0,0,0,.92.77.8.8,0,0,1,.53-.32.5.5,0,0,1,0-.12Zm-3,2a2.37,2.37,0,0,0,2.08.34.76.76,0,0,1-.15-.59,3.25,3.25,0,0,1-1.76-.64.48.48,0,0,0-.38.3C19.41,18.87,19.49,19.08,19.7,19.28Zm.14,1.81c.08.16.4.28.8.34h.05a4.25,4.25,0,0,0,1.65-.07.63.63,0,0,1,.14-.24,1.9,1.9,0,0,1-.74-.37l-.1-.12a1.75,1.75,0,0,1-.75.16,2.15,2.15,0,0,1-.79-.15C19.93,20.78,19.76,21,19.84,21.09Zm-1,1.51a.55.55,0,0,0,.47.33,4.5,4.5,0,0,0,1.6,0,.9.9,0,0,1,.18-.37l-.12,0a.93.93,0,0,1-.61-.36h0a3.16,3.16,0,0,1-.55,0A5,5,0,0,1,19,22.2s0,0-.05,0a.1.1,0,0,0-.09,0A.36.36,0,0,0,18.81,22.6Zm3.25,1.78a2.4,2.4,0,0,0,2.41-.16.79.79,0,0,1-.63-.23.72.72,0,0,1-.08-.7,2.55,2.55,0,0,1-1.52.42h-.07C21.92,24,21.88,24.22,22.06,24.38Zm.72,1a.91.91,0,0,0,.67.13l.06,0h.09A2.91,2.91,0,0,0,24.85,25a.43.43,0,0,1-.23-.23c-.06-.11-.07-.29.1-.56a2.49,2.49,0,0,1-1.7.58h-.24C22.63,25.07,22.63,25.28,22.78,25.4Zm1.17.83a1.61,1.61,0,0,0,1.72-.5.53.53,0,0,1-.31-.63h-.07a1.17,1.17,0,0,1-.27,0,3.1,3.1,0,0,1-1.38.6A.45.45,0,0,0,24,26.23Zm1,.73a1.66,1.66,0,0,0,1.55-.37h0a.55.55,0,0,1-.32-.74,1.53,1.53,0,0,1-.32-.05,1.53,1.53,0,0,1-1.16.65A.5.5,0,0,0,24.91,27Zm3.74,3.19c0,.09.08.17.21.23a1.09,1.09,0,0,0,.93,0h0a3.39,3.39,0,0,0,1-.66,1,1,0,0,1-.31,0A.63.63,0,0,1,30,29a2.36,2.36,0,0,1-1.21.81v0A.36.36,0,0,0,28.65,30.15ZM36.19,29a1.15,1.15,0,0,1-.46.1.85.85,0,0,1-.23,0c-.14.13-.2.26-.17.35s.14.18.31.21a.52.52,0,0,0,.39-.08,1.84,1.84,0,0,1,.14-.14A.35.35,0,0,1,36.19,29Zm1-.39a4.9,4.9,0,0,0-.05-.77,1.2,1.2,0,0,1-.79.5c-.09.13-.15.29,0,.38A.85.85,0,0,0,37.21,28.59ZM37.1,27c3.14-7.65.22-12.14-.12-12.61a1.39,1.39,0,0,1-.68.2.86.86,0,0,1-.62-.24c-.38-.36-.35-1.06.07-1.88l-.08,0a3.15,3.15,0,0,0-.81,2.22c-.15,1.25-.33,2.67-1.78,3.47.66,1,.58,2.73-.24,4.28l.21.13,0,0c.25.16.51.33.77.52,0,0,0,0,0,0q.32.22.63.48s0,0,0,0c.21.17.41.35.61.53a.08.08,0,0,1,0,0,7.79,7.79,0,0,1,.68.72l0,0c.16.19.31.39.45.59,0,0,0,0,0,0s.18.28.26.42a.06.06,0,0,1,0,.06,5.28,5.28,0,0,1,.38.84Zm-6.22-9.09a1.47,1.47,0,0,1,1.54.47c.53.76.1,2.11-1.06,3.3l.49.24h0l.46.25h0l0,0,.35.2c.86-1.63.88-3.59,0-4.38A1.59,1.59,0,0,0,30.88,17.86Zm-1,3.23c-.42-.21-.88-.45-1.37-.73a.07.07,0,0,1-.05,0c-.12,0-.25.07-.28.16s0,.23.12.41C28.57,21.33,29.43,21.21,29.92,21.09Zm-1.52-.82c-.57-.33-1.18-.7-1.77-1.11h0c-.23.1-.35.22-.35.36s.26.5.67.71a1.32,1.32,0,0,0,1.25.13h0A.71.71,0,0,1,28.4,20.27Zm-1.91-1.21q-.61-.43-1.2-.93a.67.67,0,0,0-.62.23.39.39,0,0,0,.08.47,2.17,2.17,0,0,0,1.37.62A.61.61,0,0,1,26.49,19.06ZM25.11,18a11.51,11.51,0,0,1-1.25-1.27h0c-.61,0-1,.21-1,.53,0,.49.77,1.12,1.63,1.14a.93.93,0,0,1,.05-.1A.78.78,0,0,1,25.11,18Zm-1.36-1.4c-.16-.21-.32-.43-.46-.64h0a.88.88,0,0,0-.85-.29.54.54,0,0,0-.29.49,1.08,1.08,0,0,0,.6,1C22.78,16.89,23,16.6,23.75,16.57Zm-.67-1a5.93,5.93,0,0,1-.61-1.48c0-.21-.08-.41-.11-.62a.06.06,0,0,1,0-.06c0-.07-.11-.17-.29-.22a.56.56,0,0,0-.65.23c-.23.37.43,1.65.75,2.2a.6.6,0,0,1,.22-.16A.81.81,0,0,1,23.08,15.6Zm.55-6.17c.68-1.19.57-2,.25-2.31A.93.93,0,0,0,22.76,7c-.24.13-2.3,1.35-1.46,6.28a.76.76,0,0,1,1-.11A5.88,5.88,0,0,1,23.63,9.43ZM22.31,7.15c0-.09-.07-.87-.67-.87a1.7,1.7,0,0,0-1.44.9,6.67,6.67,0,0,0-.42,3.75,13.61,13.61,0,0,0,.56,2.68.52.52,0,0,1,.44-.19.84.84,0,0,1,.41.14C20.54,10,21.32,8,22.31,7.15Zm-1.87-.51c-.59-.48-1.12-.57-1.58-.27-1,.65-1.33,2.85-.94,4.13A15.07,15.07,0,0,0,19.55,14a.21.21,0,0,1,.11,0,.62.62,0,0,1,.57.23,1.31,1.31,0,0,1,0-.28.78.78,0,0,1,0-.16C19.93,13.08,19,9,20.07,7.1A1.87,1.87,0,0,1,20.44,6.64Zm-2.24.28a1.53,1.53,0,0,0-1.76.75c-.85,1.7.76,5.67,2.22,7.15a.75.75,0,0,1,.59-.15,1.21,1.21,0,0,1,0-.19.68.68,0,0,1,.17-.35,15,15,0,0,1-1.65-3.58A4.9,4.9,0,0,1,18.2,6.92Zm-1.89.67a1.32,1.32,0,0,0-1,.39,2.37,2.37,0,0,0-.42,1.92h0c0,.18,0,.37.08.56.46,2.47,3,4.76,3.35,5l.15,0a.7.7,0,0,1,.12-.53C17.07,13.43,15.4,9.41,16.3,7.6ZM14.72,10a1.37,1.37,0,0,0-.94,1.08c-.15,1.72,3.51,4.29,4.17,4.74a.47.47,0,0,1,.18-.28c-.48-.43-2.89-2.65-3.34-5.06A4,4,0,0,1,14.72,10Zm-.9,2a1.43,1.43,0,0,0-.7.83A1.35,1.35,0,0,0,13.5,14a12.91,12.91,0,0,0,4,2.53.87.87,0,0,1,.46-.47,20.51,20.51,0,0,1-2.25-1.76A7.44,7.44,0,0,1,13.82,12Zm-.5,2c-.45.33-.65.66-.6,1s.46.73,1,1h0l0,0a16.22,16.22,0,0,0,3.12,1.2l.45.14a.64.64,0,0,1,.31-.17,1,1,0,0,1-.2-.41.57.57,0,0,1,0-.13,13.22,13.22,0,0,1-4.06-2.59Zm0,2.27a.78.78,0,0,0-.24.74c.06.23.27.54.93.69a16.29,16.29,0,0,0,3.22.38l0-.05a.78.78,0,0,1,0-.51l-.4-.12a15.71,15.71,0,0,1-3.19-1.23A.35.35,0,0,0,13.33,16.23Zm6.09,3.82a.72.72,0,0,1,0-.21.61.61,0,0,1,.29-.36l-.12-.09a.94.94,0,0,1-.16-.2,5.64,5.64,0,0,1-1.83-.71.43.43,0,0,0-.32.22.51.51,0,0,0,0,.45C17.56,19.75,19.07,20,19.42,20.05ZM16.68,23c.13.19.51.26.95.26a.06.06,0,0,1,.06,0,10.63,10.63,0,0,0,1.65-.17l-.09,0a.7.7,0,0,1-.59-.42.53.53,0,0,1,.07-.47,5.83,5.83,0,0,1-1.77.26h-.17C16.63,22.68,16.59,22.87,16.68,23Zm1,1a.68.68,0,0,0,.6.25,7.29,7.29,0,0,0,1.62-.12.91.91,0,0,1-.36-.94,9.82,9.82,0,0,1-1.86.22A.75.75,0,0,0,17.71,24Zm4,1.07h0a2,2,0,0,0,.79-.32,1.2,1.2,0,0,1-.57-.25.43.43,0,0,1-.16-.41,2.44,2.44,0,0,1-1.07.25h0c-.2.17-.3.33-.27.45s.12.19.28.25A2,2,0,0,0,21.71,25.07Zm5,4.94a1,1,0,0,0,1.2-.15c-.22-.11-.4-.37-.31-.95h-.06a2.5,2.5,0,0,1-1,.37h0A.54.54,0,0,0,26.7,30Zm.89,1a2.21,2.21,0,0,0,2.1-.06.9.9,0,0,1,0-.4,1.42,1.42,0,0,1-.45.08,1,1,0,0,1-.46-.11.46.46,0,0,1-.29-.33.43.43,0,0,1,.05-.28,1.43,1.43,0,0,1-.29,0l-.19,0a1.51,1.51,0,0,1-.52.33h0C27.37,30.57,27.39,30.82,27.59,31Zm5,.08a.47.47,0,0,1-.16-.24.56.56,0,0,1,.06-.41,2.33,2.33,0,0,1-.37,0l-.23,0a2.86,2.86,0,0,1-.66.63.27.27,0,0,0,.06.14.47.47,0,0,0,.39,0h0A2.88,2.88,0,0,1,32.55,31.08ZM35,31s0,0,0,0a.53.53,0,0,1,.33-.58h-.12a.69.69,0,0,1-.25,0c-.13-.05-.32-.2-.29-.59l-.08,0h0l0,0c-.45.11-.74.5-.7.77s.35.37.86.34h0A.75.75,0,0,1,35,31Zm1.82-.74a1.34,1.34,0,0,0,.07-.18,1,1,0,0,1-.34.06.9.9,0,0,1-.48-.12,1.08,1.08,0,0,1-.43.29l.05.06a1.69,1.69,0,0,0,1,.22l.07-.15Zm.27-.86a1,1,0,0,1-.51.15.56.56,0,0,1-.3-.08l-.1.1h0l0,0c-.07.08-.12.17-.07.24a.81.81,0,0,0,.87.06A3.92,3.92,0,0,0,37.1,29.42Zm.1-.63a1.2,1.2,0,0,1-.57.14.62.62,0,0,1-.19,0c-.17.16-.22.3-.14.4s.47.18.84-.09A3.41,3.41,0,0,0,37.2,28.79Zm.08.52c2.29-5,3.92-9.51.16-15.34a1.81,1.81,0,0,1-.33.29c.38.55,3.31,5.14.07,12.89,0,0,0,0,0,0a3.15,3.15,0,0,1,.11.44s0,0,0,0a4.58,4.58,0,0,1,.08,1v0A5.31,5.31,0,0,1,37.28,29.31ZM13.79,18.71a3.52,3.52,0,0,1,1,1.32,8.39,8.39,0,0,0,2.57.24.91.91,0,0,1,.39-.52,1.23,1.23,0,0,1-.59-.49h-.48A8.13,8.13,0,0,1,14.49,19,3.26,3.26,0,0,1,13.79,18.71Zm1.1,1.5A2.24,2.24,0,0,1,15,21a9.32,9.32,0,0,0,2.72,0,.67.67,0,0,1-.35-.58H17A8.64,8.64,0,0,1,14.89,20.21Zm-.08,1.51c-.71,1.42-2.92,2.21-4.26,2.32a3.5,3.5,0,0,0-3.1,2.2,2.1,2.1,0,0,0,.66,2.33l.19.1c.36.21.77.45,1.67-.43A7.77,7.77,0,0,1,19.83,26a1.18,1.18,0,0,1,.06-.53h-.23a2.35,2.35,0,0,1-.77-.12c-.27-.09-.42-.23-.44-.41s.11-.35.36-.54h-.5a.7.7,0,0,1-.76-1,1.46,1.46,0,0,1-.95-.26c-.16-.17-.16-.41,0-.72h-.1c-.78-.05-1.08-.42-1.09-.74a.54.54,0,0,1,.19-.45L15,21.16A1.65,1.65,0,0,1,14.81,21.72Zm5.52,4.63a2.55,2.55,0,0,0,1.78-.2.76.76,0,0,1-.57-.28.58.58,0,0,1,0-.63,1.62,1.62,0,0,1-.31,0,1.67,1.67,0,0,1-.57-.08,1.25,1.25,0,0,1-.64.26C19.88,25.91,20,26.21,20.33,26.35Zm1.32,1.1a1.56,1.56,0,0,0,1.82-.28,1.06,1.06,0,0,1-.25-.09.83.83,0,0,1-.36-1h0a2.42,2.42,0,0,1-.47.05H22.3a1.28,1.28,0,0,1-.68.33C21.35,26.91,21.35,27.24,21.65,27.45Zm1.05.94a2.25,2.25,0,0,0,2-.28,1.18,1.18,0,0,1-.19-.11.93.93,0,0,1-.42-.81,1.45,1.45,0,0,1-.3,0h-.18a1.61,1.61,0,0,1-1.06.56C22.43,28.06,22.47,28.26,22.7,28.39ZM24,29.56a2.25,2.25,0,0,0,1.84-.27,1.07,1.07,0,0,1-.47-.21.74.74,0,0,1-.18-.86,1,1,0,0,1-.29,0,1.8,1.8,0,0,1-1.12.47C23.57,29.1,23.65,29.41,24,29.56Zm1.18,1a1.67,1.67,0,0,0,2.09-.26h-.08a1,1,0,0,1-.56-.18.69.69,0,0,1-.23-.82H26a1.61,1.61,0,0,1-1,.47h0A.59.59,0,0,0,25.16,30.57ZM26.55,32a2.74,2.74,0,0,0,2.26-.66l-.29,0a1.61,1.61,0,0,1-1-.29.58.58,0,0,1-.2-.64,2.05,2.05,0,0,1-1.15.5C26,31.55,26.16,31.91,26.55,32ZM13.46,41.71a3.9,3.9,0,0,1-1.61-2.43,1.15,1.15,0,0,1,.21-.61,1.08,1.08,0,0,0,0-1.38c-.2-.25-.44-.53-.7-.82C10,34.92,8.29,33,9,30.91a2.47,2.47,0,0,1-2.65-1.48c-.85-1.66-.64-4.4.4-5.43l.11-.08A8.62,8.62,0,0,1,11,22.34c1.18-.22,1.93-.72,2.07-1.36a.93.93,0,0,0-.39-1,1.29,1.29,0,0,0-1.46,0,2.69,2.69,0,0,1-2.6.37A4.63,4.63,0,0,1,6.29,17.2a20.29,20.29,0,0,0,7.17,24.51Zm3.92,2.13a20.31,20.31,0,0,0,2.67.87l.28,0a2.38,2.38,0,0,0,1.42,0v0a1.23,1.23,0,0,0,.51-.92.41.41,0,0,0-.26-.35l-.08,0a2.13,2.13,0,0,1-1-.74.83.83,0,0,1-.05-.35c0-.16,0-.31-.13-.39s-.13-.08-1.1-.06h0c-1,0-3.38-2.6-3.51-2.81a0,0,0,0,0,0,0,.33.33,0,0,1-.41-.15.45.45,0,0,1,0-.52h0s0,0,0,0a13.68,13.68,0,0,0,2.58-4c.84-2,.1-2.82-.83-3.88a6.19,6.19,0,0,1-1.77-3.32s-.13-.69.25-.76a.47.47,0,0,1,.54.36,7,7,0,0,0,2.36,3.47,4,4,0,0,1,.81,3.42C23.28,36,28.36,35,28.41,35s.06,0,.07,0a.08.08,0,0,1,0,.08,12.37,12.37,0,0,0-.43,2.41c0,.44-.08.91-.12,1.36-.09,1-.18,2-.17,2.45a.49.49,0,0,0,.14.36.62.62,0,0,0,.39.14l.15-.89a21.07,21.07,0,0,0,.31-3.46,9.11,9.11,0,0,1,.82-4.38,3.13,3.13,0,0,1-1,.18,2,2,0,0,1-.66-.1.7.7,0,0,1-.5-.93,2.42,2.42,0,0,1-.45,0,1.51,1.51,0,0,1-.44-.06c-.32-.11-.66-.42-.5-1.21h0a1.55,1.55,0,0,1-.92-.29.74.74,0,0,1-.31-.89h-.21a1.54,1.54,0,0,1-.63-.11c-.23-.11-.57-.38-.33-1h-.22a1.55,1.55,0,0,1-.75-.15.53.53,0,0,1-.21-.74h-.07a1.38,1.38,0,0,1-.78-.21.71.71,0,0,1-.14-1,3.41,3.41,0,0,1-.55.05,1.61,1.61,0,0,1-.6-.1.69.69,0,0,1-.37-.3h0a7.64,7.64,0,0,0-9.8,2.16c-1,1-1.47.69-1.86.46L8,28.7H8a2.29,2.29,0,0,1-.71-2.5,3.66,3.66,0,0,1,3.24-2.3c1.27-.1,3.45-.88,4.13-2.24a1.8,1.8,0,0,0,.05-1.46A3.38,3.38,0,0,0,13,18.38a2.06,2.06,0,0,0-1.33-.08,3,3,0,0,1-1.87-.15,2.78,2.78,0,0,1-1.52-2.36,1.3,1.3,0,0,0-.08-.37c-.3-.11-.47,0-.64.33h0a4.41,4.41,0,0,0,2,2.8.07.07,0,0,1,0,.09.07.07,0,0,1-.07.06s0,0,0,0A4.59,4.59,0,0,1,7.41,16a1.34,1.34,0,0,0-.06.12c0,.09-.08.18-.13.27h0A4.32,4.32,0,0,0,9.14,18.9a.07.07,0,0,1,0,.1.07.07,0,0,1-.07,0h0a4.33,4.33,0,0,1-2-2.5.63.63,0,0,1-.17.19.19.19,0,0,1-.07.06,4.94,4.94,0,0,0,1.88,2.53.07.07,0,0,1,0,.1.07.07,0,0,1-.06,0l0,0a5,5,0,0,1-1.94-2.66H6.67l-.06,0a.16.16,0,0,0-.12,0,.47.47,0,0,0-.06.32,4.46,4.46,0,0,0,2.24,3.12,2.57,2.57,0,0,0,2.47-.36,1.46,1.46,0,0,1,1.63,0A1.11,1.11,0,0,1,13.22,21c-.16.71-1,1.25-2.19,1.48A8.59,8.59,0,0,0,7,24l-.1.08c-1,1-1.19,3.63-.37,5.24A2.34,2.34,0,0,0,9.1,30.75a.06.06,0,0,1,.07,0,.08.08,0,0,1,0,.08c-.8,2,.91,4,2.27,5.52.26.3.5.57.71.83a1.22,1.22,0,0,1,0,1.55.92.92,0,0,0-.19.51C12.15,41.1,15,42.83,17.38,43.84Zm4.09-2.32a.4.4,0,0,0,0-.34c-.08-.16-.38-.24-.79-.34a7.87,7.87,0,0,1-3.92-2.24c-.2.17-.41.34-.49.42.28.38,2.52,2.72,3.36,2.7,1,0,1.11,0,1.18.08a.55.55,0,0,1,.2.52.53.53,0,0,0,0,.27,1.91,1.91,0,0,0,.94.68l.09,0a.57.57,0,0,1,.34.46,1.26,1.26,0,0,1-.33.84l.25-.11c.56-.26.89-.62.92-1a.79.79,0,0,0-.46-.72,6.53,6.53,0,0,0-.65-.39C21.62,42.11,21.33,42,21.47,41.52ZM25,45.32a20.22,20.22,0,0,0,6.44-1h-.25a3.86,3.86,0,0,1-2.42-.89h0l-.17-.15c-.34-.29-.44-.41-.31-1.29a.8.8,0,0,1-.48-.18.63.63,0,0,1-.18-.47c0-.42.08-1.42.17-2.47,0-.45.08-.91.11-1.35a13,13,0,0,1,.41-2.33c-.8.14-5.33.78-8.67-1.39a10.67,10.67,0,0,1-2.78,4.75,7.62,7.62,0,0,0,3.85,2.19c.46.12.77.2.89.42a.58.58,0,0,1,0,.45c-.1.3.06.4.61.71.18.11.41.23.67.4a1,1,0,0,1,.52.86c0,.42-.4.82-1,1.11a3.88,3.88,0,0,1-1.09.34A20.42,20.42,0,0,0,25,45.32Zm18.53-12,.2-.45q.2-.46.36-.93c.12-.31.22-.62.32-.94q.3-1,.51-2c.11-.57.2-1.15.27-1.73a.38.38,0,0,1-.24.14.35.35,0,0,1-.29-.07,2.62,2.62,0,0,1-.15,1.38,1,1,0,0,1-.83.67c-.28.07-1,.36-1.93.72a38,38,0,0,1-6.13,2h-.09a2.47,2.47,0,0,1-.94,0c-.08,1.45-1.09,3.59-2,5.48-.36.77-.7,1.49-.94,2.09a3.91,3.91,0,0,0-.51,1.73.15.15,0,0,0,.08.12.73.73,0,0,0,.49-.09c.54-.21.88-.25,1.09-.14s.24.34.29.57.08.44.28.54a.43.43,0,0,1,.26.38,1,1,0,0,1-.37.65A20.47,20.47,0,0,0,43.53,33.35ZM45.39,23l3.33-.35c0-.5-.11-1-.19-1.49l-3.3.59C45.29,22.19,45.35,22.61,45.39,23Zm3.11-2c-.08-.49-.18-1-.29-1.47L45,20.38c.09.41.17.83.24,1.25Zm-.33-1.62c-.12-.49-.25-1-.4-1.45l-3.18,1c.12.4.23.81.33,1.22Zm-.45-1.59c-.15-.48-.32-.95-.5-1.42l-3.1,1.25q.24.6.42,1.2Zm-.55-1.56q-.29-.7-.6-1.38l-3,1.46c.18.38.34.77.5,1.17Zm-.67-1.52c-.22-.45-.45-.9-.7-1.34l-2.88,1.67.09.16c.17.32.33.64.49,1Zm-.77-1.47c-.25-.44-.51-.87-.79-1.29l-2.76,1.87.33.52q.18.28.33.57Zm-.87-1.41c-.28-.42-.57-.83-.88-1.23l-2.62,2s0,0,0,.05c.19.27.38.53.57.81l.12.18Zm-1-1.35q-.47-.6-1-1.17l-2.47,2.22c.12.13.23.27.34.4s.32.39.47.59ZM42.83,9.24c-.34-.38-.68-.75-1-1.1l-2.3,2.39.33.34.33.36.21.23ZM41.68,8q-.54-.52-1.11-1L38.44,9.55c.32.28.63.57.94.87Zm-31,2.32L8.41,8c-.36.35-.72.72-1.06,1.1l2.44,2.19.06,0c.22-.25.44-.48.67-.72ZM7.25,9.2c-.34.38-.67.77-1,1.17l2.59,2L9.2,12l.49-.57ZM6.18,10.49c-.31.4-.61.81-.9,1.24L8,13.57v0l.57-.81.18-.23Zm-1,1.36c-.28.43-.55.86-.81,1.3l2.85,1.64.25-.41c.14-.23.29-.46.44-.69Zm-.88,1.43c-.26.44-.49.89-.72,1.35l3,1.44c.14-.28.29-.56.44-.83a3.07,3.07,0,0,1,.17-.31Zm-.78,1.49c-.22.45-.43.92-.62,1.39L6,17.4c.16-.4.33-.8.52-1.19ZM2.86,16.3q-.27.7-.51,1.44l3.14,1c.13-.41.28-.82.43-1.22ZM2.3,17.88c-.15.49-.28,1-.41,1.47l3.21.8c.1-.42.21-.84.34-1.25ZM1.86,19.5c-.12.49-.22,1-.31,1.49l3.26.58c.07-.43.15-.85.25-1.27Zm-.33,1.64c-.08.5-.15,1-.2,1.51L4.62,23c0-.43.09-.86.16-1.28ZM1.31,22.8c0,.51-.08,1-.09,1.52l3.31.12c0-.44,0-.86.07-1.29Zm-.08,3.35c0,.51.07,1,.12,1.51l3.3-.34c-.05-.43-.08-.86-.1-1.29Zm.14,1.66c.06.51.13,1,.22,1.51l3.27-.58c-.07-.42-.14-.85-.19-1.27Zm.25,1.65c.1.5.21,1,.33,1.49l3.23-.81c-.11-.41-.2-.83-.29-1.25ZM2,31.09c.13.49.27,1,.43,1.46l3.17-1c-.14-.4-.26-.82-.37-1.23Zm.48,1.6c.16.48.34,1,.54,1.42l3.08-1.25q-.24-.59-.45-1.2Zm.59,1.56c.2.47.41.92.64,1.38l3-1.47c-.19-.38-.37-.76-.54-1.16Zm.71,1.51c.22.45.47.89.72,1.33l2.89-1.67c-.13-.22-.26-.45-.38-.68l-.24-.44Zm.8,1.46c.26.43.53.86.82,1.27l2.76-1.87L8,36.43c-.18-.27-.36-.55-.53-.83l0-.05Zm.9,1.4c.29.41.59.81.9,1.21L9,37.77l-.42-.53-.35-.49Zm1,1.33c.32.39.64.77,1,1.14l2.49-2.24-.09-.1c-.22-.24-.44-.49-.65-.74l-.1-.12ZM7.56,41.2q.51.55,1,1.08l2.33-2.41-.42-.4L10,39Zm32.68-2.51,2.47,2.23c.34-.36.66-.74,1-1.13l-2.63-2.06Q40.66,38.23,40.24,38.69Zm3.53,1c.31-.39.6-.79.88-1.21L41.89,36.6c-.24.35-.49.68-.75,1Zm1-1.33c.28-.41.54-.83.8-1.26l-2.89-1.67c-.22.36-.44.72-.68,1.06ZM45.61,37c.25-.43.49-.87.71-1.31l-3-1.47q-.28.57-.6,1.11Zm.78-1.45c.22-.45.43-.9.62-1.36l-3.1-1.25c-.16.39-.33.77-.52,1.14Zm.68-1.5c.19-.46.36-.93.52-1.4l-3.18-1c-.13.39-.28.79-.44,1.18Zm.57-1.55c.16-.47.3-1,.42-1.43l-3.24-.81c-.11.41-.23.81-.36,1.21Zm.46-1.58c.13-.48.23-1,.33-1.46l-3.3-.58c-.08.42-.17.83-.28,1.23Zm.35-1.61c.09-.49.17-1,.22-1.48l-3.33-.35c-.05.42-.11.84-.19,1.25Zm.24-1.63c.06-.49.1-1,.12-1.49L45.46,26v.19c0,.36-.05.72-.09,1.07ZM48.82,26c0-.32,0-.64,0-1,0-.17,0-.35,0-.53l-3.35.12V25c0,.21,0,.41,0,.61a.88.88,0,0,1,0,.23Zm0-1.65c0-.5,0-1-.09-1.49l-3.34.35c0,.41.06.84.07,1.26ZM25,1.22A23.73,23.73,0,0,0,8.52,7.88l2.28,2.36A20.41,20.41,0,0,1,25,4.51h0a20.3,20.3,0,0,1,10.72,3,2,2,0,0,1,.35.21,20.64,20.64,0,0,1,2.25,1.69l2.13-2.54A23.69,23.69,0,0,0,25,1.22ZM8.72,42.38c.37.34.75.68,1.13,1L12,40.81q-.49-.41-1-.84Zm30.54-2.67,2.31,2.4c.36-.35.71-.7,1-1.07l-2.47-2.23C39.85,39.12,39.56,39.42,39.26,39.71ZM11.7,44.77a23.79,23.79,0,0,0,29.76-2.56l-2.31-2.39a20.49,20.49,0,0,1-19.31,5,12.91,12.91,0,0,1-1.78-.56A21,21,0,0,1,13.58,42a17.15,17.15,0,0,1-1.45-1.09L10,43.47C10.53,43.93,11.11,44.36,11.7,44.77Zm2.16,0a.37.37,0,0,1-.4,0c-.34-.2-.3-.59-.11-.92s.46-.51.78-.32c.15.09.25.24.2.36l0,.12.05,0,.18-.3a1.37,1.37,0,0,0-.33-.29.81.81,0,1,0-.83,1.38,1.37,1.37,0,0,0,.42.17l.22-.24,0,0Zm1.56.77c0,.19,0,.23,0,.28l0,0,0,0-.6-.3,0,0,.09,0c.09,0,.12,0,.14-.19l0-.25-.49-.25-.13.12c-.17.16-.19.21-.11.28l.06.06v0L14,45.16l0,0h0c.08,0,.11,0,.27-.15l1-.89.18.09Zm-.13-1.2h0a1.21,1.21,0,0,1-.16.16l-.36.33.42.22.06-.49A2.09,2.09,0,0,1,15.29,44.33Zm1.66.51-.66-.27,0,0,.07,0c.08.06.09.08,0,.25l-.35.88c-.08.18-.1.19-.19.18h-.09v0l.64.26v0l-.07-.06c-.07,0-.08-.07,0-.25l.44-1.07.07,0c.2.08.32.21.22.45a.31.31,0,0,1-.46.17l-.06,0c.05.23.17.71.22.94l.42.16,0,0,0,0c-.05,0-.07-.11-.13-.31s-.11-.41-.15-.57a.42.42,0,0,0,.5-.22C17.44,45.12,17.21,45,17,44.84Zm2.24,1.55a.84.84,0,0,1-1.11.5l-.71-.23v0h.09c.09,0,.11,0,.17-.19l.29-.91c.05-.18,0-.2,0-.25l-.07-.05v0l.78.24C19.07,45.59,19.35,45.89,19.19,46.39Zm-.69-.88-.22-.07-.34,1.05c-.06.21,0,.23,0,.26l.07,0a.6.6,0,0,0,.79-.47A.55.55,0,0,0,18.5,45.51Zm2.21,2,0,0v0l-.66-.15v0h.1c.09,0,.11,0,.09-.22l0-.24-.54-.13-.1.16c-.13.19-.13.25,0,.29l.08,0v0l-.48-.11v0h.06c.07,0,.1,0,.22-.21l.77-1.11.2,0,.18,1.36C20.63,47.44,20.64,47.47,20.71,47.51Zm-.46-.7-.06-.48s0-.17,0-.22h0l-.11.19-.27.41Zm2-.51.12,0c.09,0,.11.09,0,.56l0,.35s0,.13,0,.18h0a.88.88,0,0,0-.09-.21l-.59-1-.5-.07v0l.12,0c.09,0,.11.05.08.24l-.1.73c-.06.38-.08.41-.17.42H21v0l.58.08v0l-.12,0c-.09,0-.11-.08-.05-.56l.07-.45c0-.06,0-.13,0-.16h0a.62.62,0,0,0,.09.19l.68,1.18.16,0,.15-1c0-.38.08-.41.17-.42h.08v0l-.58-.08Zm2.34.92a.78.78,0,0,1-.85.75.73.73,0,0,1-.77-.84.8.8,0,0,1,.85-.77A.75.75,0,0,1,24.62,47.22Zm-.33,0c0-.53-.2-.73-.44-.74s-.49.15-.52.69.2.72.44.73S24.26,47.72,24.29,47.2Zm1.74.68a.34.34,0,0,1-.34-.18l-.06-.12h-.05l.08.34A1.15,1.15,0,0,0,26,48a.53.53,0,0,0,.55-.54.5.5,0,0,0-.34-.42L26.1,47c-.12,0-.27-.11-.27-.25s.12-.23.25-.24.29.08.31.16l0,.13h0v-.35a1.4,1.4,0,0,0-.37-.05.45.45,0,0,0-.16.88l.14.06c.13,0,.26.13.27.28A.3.3,0,0,1,26,47.88Zm.78-1.14V46.6c0-.09.06-.14.31-.17h.13l.13,1.13c0,.19,0,.21-.09.25l-.09,0v0l.7-.08v0h-.1c-.09,0-.11,0-.13-.22l-.13-1.13.12,0c.26,0,.31,0,.34.09l.05.14h.05l0-.37-1.36.16,0,.37Zm1.45,1v0l.05,0c.06,0,.08-.08.12-.29l.28-1.32.2,0,.69,1.17c.1.17.13.19.2.21h.06v0l-.66.12v0l.09,0c.08,0,.09-.07,0-.24l-.12-.21-.54.09,0,.18c0,.23,0,.28.07.29h.09v0Zm.37-.71L29.1,47l-.25-.43s-.08-.15-.09-.2h0a1.3,1.3,0,0,1,0,.22Zm1.78-.54.72.63.44-.11v0h-.07c-.06,0-.13,0-.29-.18l-.57-.47.2-.38a1.43,1.43,0,0,1,.2-.31l.08,0v0l-.54.14v0h.08c.09,0,.13.05,0,.29ZM29.8,46c.09,0,.11,0,.16.2l.25.91c0,.19,0,.21-.05.26l-.07,0v0l.66-.18v0h-.08c-.1,0-.12,0-.17-.2l-.24-.91c-.05-.19,0-.21,0-.25l.08,0v0l-.67.18v0Zm1.6-.44c.09,0,.11,0,.18.18l.31.9c.06.18.05.2,0,.25l-.07,0v0l1.07-.37,0-.33h0v.12c0,.1-.06.16-.29.23l-.12,0c-.09,0-.13,0-.2-.18l-.13-.4.19-.07c.2-.07.23-.07.27,0l.06.08h0l-.15-.44,0,0v.09c0,.08,0,.1-.23.16L32,46l-.19-.54.2-.07c.24-.08.29-.07.34,0l.06.09.05,0-.11-.29-1,.36v0Zm2-.73c.09,0,.12,0,.2.16l.39.86c.09.18.08.2,0,.26l-.07,0v0l.68-.31v0l-.13,0c-.09,0-.13,0-.21-.17l-.48-1,.09,0a.34.34,0,0,1,.49.19.38.38,0,0,1-.2.52l0,.08c.29-.14.6-.42.43-.77s-.47-.25-.71-.14l-.63.3,0,0Zm1.65,0a.79.79,0,0,1,.3-1.1.75.75,0,0,1,1.11.31.8.8,0,0,1-.32,1.1A.73.73,0,0,1,35,44.8Zm.28-.16c.26.45.56.5.77.38s.32-.39.07-.85-.56-.51-.77-.39S35,44.17,35.29,44.64Zm1.39-.79a.8.8,0,0,1,.21-1.13.75.75,0,0,1,1.13.22.78.78,0,0,1-.22,1.11A.74.74,0,0,1,36.68,43.85Zm.28-.19c.29.43.59.45.79.32s.29-.43,0-.86-.61-.46-.8-.32S36.66,43.22,37,43.66Zm.88-1.49c.09,0,.11,0,.23.12l.59.74c.12.15.12.17.06.25l0,.07,0,0,.87-.7-.17-.34,0,0,0,.15c0,.1,0,.17-.19.32l-.09.07C39,43,39,43,38.88,42.8l-.57-.71c-.12-.14-.12-.17-.05-.25l.08-.09,0,0-.57.46,0,0ZM15.4,4.43c.09,0,.11,0,.19.17l.38.87c.08.17.07.19,0,.25l-.06.06v0l.69-.3,0,0-.13,0c-.09,0-.12,0-.2-.17l-.46-1.06.09,0a.34.34,0,0,1,.49.2.38.38,0,0,1-.21.51l0,.08c.29-.12.61-.4.46-.76s-.48-.25-.72-.14l-.63.27v0Zm1.65.05a.8.8,0,0,1,.5-1,.75.75,0,0,1,1,.5.79.79,0,0,1-.5,1A.74.74,0,0,1,17.05,4.48Zm.31-.11c.17.49.46.6.69.52s.39-.33.22-.83-.47-.6-.69-.52S17.19,3.87,17.36,4.37Zm1.53-.51a.81.81,0,0,1,.59-1,.75.75,0,0,1,1,.6.79.79,0,0,1-.59,1A.74.74,0,0,1,18.89,3.86Zm.32-.08c.13.5.4.63.64.57s.42-.29.29-.81-.41-.63-.64-.57S19.08,3.26,19.21,3.78Zm1.48-1.07c.09,0,.11,0,.15.21l.15.93c0,.19,0,.21-.06.25l-.08,0v0L22,4V3.61h-.06l0,.16c0,.11-.08.15-.32.19l-.11,0c-.09,0-.12,0-.16-.21l-.15-.89c0-.19,0-.22.07-.25l.12-.05v0l-.72.12v0Zm2.14.39a.8.8,0,0,1,.75-.86.74.74,0,0,1,.86.76.78.78,0,0,1-.76.85A.73.73,0,0,1,22.83,3.1Zm.33,0c0,.52.28.69.52.68s.46-.21.43-.74-.28-.7-.52-.69S23.12,2.55,23.16,3.08Zm2.28.66-.13,0c-.09,0-.11-.05-.11-.24V3.06h.23c.21,0,.24,0,.26.09l0,.09h0V2.79h0l0,.09c0,.08-.06.09-.27.08h-.22V2.34h.22c.26,0,.31,0,.33.11l0,.12h.05V2.25l-1.12,0v0l.08,0c.09,0,.11,0,.11.23l0,1c0,.19,0,.21-.11.23l-.08,0v0h.74Zm2,.18-.72-.08v0h.08c.1,0,.11,0,.14-.22l.1-.94c0-.19,0-.21-.08-.25l-.08,0v0l.71.08c.22,0,.54.09.5.4s-.26.29-.37.3h0a.39.39,0,0,1,.37.43C28.09,3.8,27.83,4,27.46,3.92ZM27.34,3l.11,0a.3.3,0,0,0,.37-.26c0-.23-.13-.3-.31-.32H27.4Zm.44.49c0-.28-.14-.36-.33-.38l-.12,0-.06.45c0,.22,0,.24.1.25h0A.32.32,0,0,0,27.78,3.52Zm.92.58L28.21,4V4h.05c.08,0,.1,0,.22-.22l.73-1.14.2,0L29.65,4c0,.19.05.22.11.26l0,0v0l-.66-.13v0h.1c.09,0,.11,0,.08-.22l0-.25-.54-.11-.09.16c-.12.2-.12.25,0,.3l.08,0Zm.11-.62.47.09-.07-.49a1.38,1.38,0,0,1,0-.22h0a1,1,0,0,1-.11.2Zm1.83,1.06-.7-.19v0H30c.09,0,.11,0,.16-.19l.25-.92c.05-.18,0-.2,0-.25l-.07,0v0l.69.19c.21.06.52.17.44.46s-.31.25-.42.25h0a.39.39,0,0,1,.31.47C31.28,4.52,31,4.64,30.64,4.54Zm0-.89.11,0c.13,0,.34,0,.4-.2s-.08-.32-.26-.37l-.1,0Zm-.06.79A.33.33,0,0,0,31,4.2a.32.32,0,0,0-.27-.43l-.12,0-.12.44c-.06.21,0,.23,0,.26Zm.88.34,1.07.38.17-.29,0,0-.08.09c-.08.07-.15.08-.37,0l-.13-.05c-.09,0-.11-.06,0-.26l.14-.4.19.07c.2.07.23.08.22.17v.1h0l.15-.43,0,0,0,.08c-.05.06-.08.06-.28,0l-.19-.07.19-.54.19.07c.24.08.28.12.27.21V4h.05L33,3.7l-1-.37v0l.07,0c.08.05.09.07,0,.25l-.31.9c-.07.18-.09.19-.18.18h-.09Zm1.46.47-.08,0,0,0,1,.44.22-.31,0,0-.11.12c-.07.08-.15.08-.37,0l-.1,0c-.09,0-.11-.07,0-.26l.36-.84c.08-.17.1-.18.2-.16l.12,0,0,0-.68-.29,0,0,.07.06c.08,0,.08.08,0,.25l-.38.87C33.05,5.25,33,5.26,32.93,5.25Z"/></svg>